<svg width="951" height="169" xmlns="http://www.w3.org/2000/svg">
<text x="50" y="20" font-size="12" fill="black">Jan</text>
<text x="118" y="20" font-size="12" fill="black">Feb</text>
<text x="186" y="20" font-size="12" fill="black">Mar</text>
<text x="271" y="20" font-size="12" fill="black">Apr</text>
<text x="339" y="20" font-size="12" fill="black">May</text>
<text x="407" y="20" font-size="12" fill="black">Jun</text>
<text x="492" y="20" font-size="12" fill="black">Jul</text>
<text x="560" y="20" font-size="12" fill="black">Aug</text>
<text x="628" y="20" font-size="12" fill="black">Sep</text>
<text x="713" y="20" font-size="12" fill="black">Oct</text>
<text x="781" y="20" font-size="12" fill="black">Nov</text>
<text x="849" y="20" font-size="12" fill="black">Dec</text>
<text x="10" y="50" font-size="12" fill="black">S</text>
<text x="10" y="67" font-size="12" fill="black">M</text>
<text x="10" y="84" font-size="12" fill="black">T</text>
<text x="10" y="101" font-size="12" fill="black">W</text>
<text x="10" y="118" font-size="12" fill="black">T</text>
<text x="10" y="135" font-size="12" fill="black">F</text>
<text x="10" y="152" font-size="12" fill="black">S</text>
<rect id="day-2024-01-01" x="50" y="50" width="15" height="15" fill="#EEE" stroke="#CCC" data-date="2024-01-01"></rect>
<rect id="day-2024-01-02" x="50" y="67" width="15" height="15" fill="#EEE" stroke="#CCC" data-date="2024-01-02"></rect>
<rect id="day-2024-01-03" x="50" y="84" width="15" height="15" fill="#EEE" stroke="#CCC" data-date="2024-01-03"></rect>
<rect id="day-2024-01-04" x="50" y="101" width="15" height="15" fill="#EEE" stroke="#CCC" data-date="2024-01-04"></rect>
<rect id="day-2024-01-05" x="50" y="118" width="15" height="15" fill="#EEE" stroke="#CCC" data-date="2024-01-05"></rect>
<rect id="day-2024-01-06" x="50" y="135" width="15" height="15" fill="#EEE" stroke="#CCC" data-date="2024-01-06"></rect>
<rect id="day-2024-01-07" x="50" y="152" width="15" height="15" fill="#EEE" stroke="#CCC" data-date="2024-01-07"></rect>
<rect id="day-2024-01-08" x="67" y="50" width="15" height="15" fill="#EEE" stroke="#CCC" data-date="2024-01-08"></rect>
<rect id="day-2024-01-09" x="67" y="67" width="15" height="15" fill="#EEE" stroke="#CCC" data-date="2024-01-09"></rect>
<rect id="day-2024-01-10" x="67" y="84" width="15" height="15" fill="#EEE" stroke="#CCC" data-date="2024-01-10"></rect>
<rect id="day-2024-01-11" x="67" y="101" width="15" height="15" fill="#EEE" stroke="#CCC" data-date="2024-01-11"></rect>
<rect id="day-2024-01-12" x="67" y="118" width="15" height="15" fill="#EEE" stroke="#CCC" data-date="2024-01-12"></rect>
<rect id="day-2024-01-13" x="67" y="135" width="15" height="15" fill="#EEE" stroke="#CCC" data-date="2024-01-13"></rect>
<rect id="day-2024-01-14" x="67" y="152" width="15" height="15" fill="#EEE" stroke="#CCC" data-date="2024-01-14"></rect>
<rect id="day-2024-01-15" x="84" y="50" width="15" height="15" fill="#EEE" stroke="#CCC" data-date="2024-01-15"></rect>
<rect id="day-2024-01-16" x="84" y="67" width="15" height="15" fill="#EEE" stroke="#CCC" data-date="2024-01-16"></rect>
<rect id="day-2024-01-17" x="84" y="84" width="15" height="15" fill="#EEE" stroke="#CCC" data-date="2024-01-17"></rect>
<rect id="day-2024-01-18" x="84" y="101" width="15" height="15" fill="#EEE" stroke="#CCC" data-date="2024-01-18"></rect>
<rect id="day-2024-01-19" x="84" y="118" width="15" height="15" fill="#EEE" stroke="#CCC" data-date="2024-01-19"></rect>
<rect id="day-2024-01-20" x="84" y="135" width="15" height="15" fill="#EEE" stroke="#CCC" data-date="2024-01-20"></rect>
<rect id="day-2024-01-21" x="84" y="152" width="15" height="15" fill="#EEE" stroke="#CCC" data-date="2024-01-21"></rect>
<rect id="day-2024-01-22" x="101" y="50" width="15" height="15" fill="#EEE" stroke="#CCC" data-date="2024-01-22"></rect>
<rect id="day-2024-01-23" x="101" y="67" width="15" height="15" fill="#EEE" stroke="#CCC" data-date="2024-01-23"></rect>
<rect id="day-2024-01-24" x="101" y="84" width="15" height="15" fill="#EEE" stroke="#CCC" data-date="2024-01-24"></rect>
<rect id="day-2024-01-25" x="101" y="101" width="15" height="15" fill="#EEE" stroke="#CCC" data-date="2024-01-25"></rect>
<rect id="day-2024-01-26" x="101" y="118" width="15" height="15" fill="#EEE" stroke="#CCC" data-date="2024-01-26"></rect>
<rect id="day-2024-01-27" x="101" y="135" width="15" height="15" fill="#EEE" stroke="#CCC" data-date="2024-01-27"></rect>
<rect id="day-2024-01-28" x="101" y="152" width="15" height="15" fill="#EEE" stroke="#CCC" data-date="2024-01-28"></rect>
<rect id="day-2024-01-29" x="118" y="50" width="15" height="15" fill="#EEE" stroke="#CCC" data-date="2024-01-29"></rect>
<rect id="day-2024-01-30" x="118" y="67" width="15" height="15" fill="#EEE" stroke="#CCC" data-date="2024-01-30"></rect>
<rect id="day-2024-01-31" x="118" y="84" width="15" height="15" fill="#EEE" stroke="#CCC" data-date="2024-01-31"></rect>
<rect id="day-2024-02-01" x="118" y="101" width="15" height="15" fill="#EEE" stroke="#CCC" data-date="2024-02-01"></rect>
<rect id="day-2024-02-02" x="118" y="118" width="15" height="15" fill="#EEE" stroke="#CCC" data-date="2024-02-02"></rect>
<rect id="day-2024-02-03" x="118" y="135" width="15" height="15" fill="#EEE" stroke="#CCC" data-date="2024-02-03"></rect>
<rect id="day-2024-02-04" x="118" y="152" width="15" height="15" fill="#EEE" stroke="#CCC" data-date="2024-02-04"></rect>
<rect id="day-2024-02-05" x="135" y="50" width="15" height="15" fill="#EEE" stroke="#CCC" data-date="2024-02-05"></rect>
<rect id="day-2024-02-06" x="135" y="67" width="15" height="15" fill="#EEE" stroke="#CCC" data-date="2024-02-06"></rect>
<rect id="day-2024-02-07" x="135" y="84" width="15" height="15" fill="#EEE" stroke="#CCC" data-date="2024-02-07"></rect>
<rect id="day-2024-02-08" x="135" y="101" width="15" height="15" fill="#EEE" stroke="#CCC" data-date="2024-02-08"></rect>
<rect id="day-2024-02-09" x="135" y="118" width="15" height="15" fill="#EEE" stroke="#CCC" data-date="2024-02-09"></rect>
<rect id="day-2024-02-10" x="135" y="135" width="15" height="15" fill="#EEE" stroke="#CCC" data-date="2024-02-10"></rect>
<rect id="day-2024-02-11" x="135" y="152" width="15" height="15" fill="#EEE" stroke="#CCC" data-date="2024-02-11"></rect>
<rect id="day-2024-02-12" x="152" y="50" width="15" height="15" fill="#EEE" stroke="#CCC" data-date="2024-02-12"></rect>
<rect id="day-2024-02-13" x="152" y="67" width="15" height="15" fill="#EEE" stroke="#CCC" data-date="2024-02-13"></rect>
<rect id="day-2024-02-14" x="152" y="84" width="15" height="15" fill="#EEE" stroke="#CCC" data-date="2024-02-14"></rect>
<rect id="day-2024-02-15" x="152" y="101" width="15" height="15" fill="#EEE" stroke="#CCC" data-date="2024-02-15"></rect>
<rect id="day-2024-02-16" x="152" y="118" width="15" height="15" fill="#EEE" stroke="#CCC" data-date="2024-02-16"></rect>
<rect id="day-2024-02-17" x="152" y="135" width="15" height="15" fill="#EEE" stroke="#CCC" data-date="2024-02-17"></rect>
<rect id="day-2024-02-18" x="152" y="152" width="15" height="15" fill="#EEE" stroke="#CCC" data-date="2024-02-18"></rect>
<rect id="day-2024-02-19" x="169" y="50" width="15" height="15" fill="#EEE" stroke="#CCC" data-date="2024-02-19"></rect>
<rect id="day-2024-02-20" x="169" y="67" width="15" height="15" fill="#EEE" stroke="#CCC" data-date="2024-02-20"></rect>
<rect id="day-2024-02-21" x="169" y="84" width="15" height="15" fill="#EEE" stroke="#CCC" data-date="2024-02-21"></rect>
<rect id="day-2024-02-22" x="169" y="101" width="15" height="15" fill="#EEE" stroke="#CCC" data-date="2024-02-22"></rect>
<rect id="day-2024-02-23" x="169" y="118" width="15" height="15" fill="#EEE" stroke="#CCC" data-date="2024-02-23"></rect>
<rect id="day-2024-02-24" x="169" y="135" width="15" height="15" fill="#EEE" stroke="#CCC" data-date="2024-02-24"></rect>
<rect id="day-2024-02-25" x="169" y="152" width="15" height="15" fill="#EEE" stroke="#CCC" data-date="2024-02-25"></rect>
<rect id="day-2024-02-26" x="186" y="50" width="15" height="15" fill="#EEE" stroke="#CCC" data-date="2024-02-26"></rect>
<rect id="day-2024-02-27" x="186" y="67" width="15" height="15" fill="#EEE" stroke="#CCC" data-date="2024-02-27"></rect>
<rect id="day-2024-02-28" x="186" y="84" width="15" height="15" fill="#EEE" stroke="#CCC" data-date="2024-02-28"></rect>
<rect id="day-2024-02-29" x="186" y="101" width="15" height="15" fill="#EEE" stroke="#CCC" data-date="2024-02-29"></rect>
<rect id="day-2024-03-01" x="186" y="118" width="15" height="15" fill="#EEE" stroke="#CCC" data-date="2024-03-01"></rect>
<rect id="day-2024-03-02" x="186" y="135" width="15" height="15" fill="#EEE" stroke="#CCC" data-date="2024-03-02"></rect>
<rect id="day-2024-03-03" x="186" y="152" width="15" height="15" fill="#EEE" stroke="#CCC" data-date="2024-03-03"></rect>
<rect id="day-2024-03-04" x="203" y="50" width="15" height="15" fill="#EEE" stroke="#CCC" data-date="2024-03-04"></rect>
<rect id="day-2024-03-05" x="203" y="67" width="15" height="15" fill="#EEE" stroke="#CCC" data-date="2024-03-05"></rect>
<rect id="day-2024-03-06" x="203" y="84" width="15" height="15" fill="#EEE" stroke="#CCC" data-date="2024-03-06"></rect>
<rect id="day-2024-03-07" x="203" y="101" width="15" height="15" fill="#EEE" stroke="#CCC" data-date="2024-03-07"></rect>
<rect id="day-2024-03-08" x="203" y="118" width="15" height="15" fill="#EEE" stroke="#CCC" data-date="2024-03-08"></rect>
<rect id="day-2024-03-09" x="203" y="135" width="15" height="15" fill="#EEE" stroke="#CCC" data-date="2024-03-09"></rect>
<rect id="day-2024-03-10" x="203" y="152" width="15" height="15" fill="#EEE" stroke="#CCC" data-date="2024-03-10"></rect>
<rect id="day-2024-03-11" x="220" y="50" width="15" height="15" fill="#EEE" stroke="#CCC" data-date="2024-03-11"></rect>
<rect id="day-2024-03-12" x="220" y="67" width="15" height="15" fill="#EEE" stroke="#CCC" data-date="2024-03-12"></rect>
<rect id="day-2024-03-13" x="220" y="84" width="15" height="15" fill="#EEE" stroke="#CCC" data-date="2024-03-13"></rect>
<rect id="day-2024-03-14" x="220" y="101" width="15" height="15" fill="#EEE" stroke="#CCC" data-date="2024-03-14"></rect>
<rect id="day-2024-03-15" x="220" y="118" width="15" height="15" fill="#EEE" stroke="#CCC" data-date="2024-03-15"></rect>
<rect id="day-2024-03-16" x="220" y="135" width="15" height="15" fill="#EEE" stroke="#CCC" data-date="2024-03-16"></rect>
<rect id="day-2024-03-17" x="220" y="152" width="15" height="15" fill="#EEE" stroke="#CCC" data-date="2024-03-17"></rect>
<rect id="day-2024-03-18" x="237" y="50" width="15" height="15" fill="#EEE" stroke="#CCC" data-date="2024-03-18"></rect>
<rect id="day-2024-03-19" x="237" y="67" width="15" height="15" fill="#EEE" stroke="#CCC" data-date="2024-03-19"></rect>
<rect id="day-2024-03-20" x="237" y="84" width="15" height="15" fill="#EEE" stroke="#CCC" data-date="2024-03-20"></rect>
<rect id="day-2024-03-21" x="237" y="101" width="15" height="15" fill="#EEE" stroke="#CCC" data-date="2024-03-21"></rect>
<rect id="day-2024-03-22" x="237" y="118" width="15" height="15" fill="#EEE" stroke="#CCC" data-date="2024-03-22"></rect>
<rect id="day-2024-03-23" x="237" y="135" width="15" height="15" fill="#EEE" stroke="#CCC" data-date="2024-03-23"></rect>
<rect id="day-2024-03-24" x="237" y="152" width="15" height="15" fill="#EEE" stroke="#CCC" data-date="2024-03-24"></rect>
<rect id="day-2024-03-25" x="254" y="50" width="15" height="15" fill="#EEE" stroke="#CCC" data-date="2024-03-25"></rect>
<rect id="day-2024-03-26" x="254" y="67" width="15" height="15" fill="#EEE" stroke="#CCC" data-date="2024-03-26"></rect>
<rect id="day-2024-03-27" x="254" y="84" width="15" height="15" fill="#EEE" stroke="#CCC" data-date="2024-03-27"></rect>
<rect id="day-2024-03-28" x="254" y="101" width="15" height="15" fill="#EEE" stroke="#CCC" data-date="2024-03-28"></rect>
<rect id="day-2024-03-29" x="254" y="118" width="15" height="15" fill="#EEE" stroke="#CCC" data-date="2024-03-29"></rect>
<rect id="day-2024-03-30" x="254" y="135" width="15" height="15" fill="#EEE" stroke="#CCC" data-date="2024-03-30"></rect>
<rect id="day-2024-03-31" x="254" y="152" width="15" height="15" fill="#EEE" stroke="#CCC" data-date="2024-03-31"></rect>
<rect id="day-2024-04-01" x="271" y="50" width="15" height="15" fill="#EEE" stroke="#CCC" data-date="2024-04-01"></rect>
<rect id="day-2024-04-02" x="271" y="67" width="15" height="15" fill="#EEE" stroke="#CCC" data-date="2024-04-02"></rect>
<rect id="day-2024-04-03" x="271" y="84" width="15" height="15" fill="#EEE" stroke="#CCC" data-date="2024-04-03"></rect>
<rect id="day-2024-04-04" x="271" y="101" width="15" height="15" fill="#EEE" stroke="#CCC" data-date="2024-04-04"></rect>
<rect id="day-2024-04-05" x="271" y="118" width="15" height="15" fill="#EEE" stroke="#CCC" data-date="2024-04-05"></rect>
<rect id="day-2024-04-06" x="271" y="135" width="15" height="15" fill="#EEE" stroke="#CCC" data-date="2024-04-06"></rect>
<rect id="day-2024-04-07" x="271" y="152" width="15" height="15" fill="#EEE" stroke="#CCC" data-date="2024-04-07"></rect>
<rect id="day-2024-04-08" x="288" y="50" width="15" height="15" fill="#EEE" stroke="#CCC" data-date="2024-04-08"></rect>
<rect id="day-2024-04-09" x="288" y="67" width="15" height="15" fill="#EEE" stroke="#CCC" data-date="2024-04-09"></rect>
<rect id="day-2024-04-10" x="288" y="84" width="15" height="15" fill="#EEE" stroke="#CCC" data-date="2024-04-10"></rect>
<rect id="day-2024-04-11" x="288" y="101" width="15" height="15" fill="#EEE" stroke="#CCC" data-date="2024-04-11"></rect>
<rect id="day-2024-04-12" x="288" y="118" width="15" height="15" fill="#EEE" stroke="#CCC" data-date="2024-04-12"></rect>
<rect id="day-2024-04-13" x="288" y="135" width="15" height="15" fill="#EEE" stroke="#CCC" data-date="2024-04-13"></rect>
<rect id="day-2024-04-14" x="288" y="152" width="15" height="15" fill="#EEE" stroke="#CCC" data-date="2024-04-14"></rect>
<rect id="day-2024-04-15" x="305" y="50" width="15" height="15" fill="#EEE" stroke="#CCC" data-date="2024-04-15"></rect>
<rect id="day-2024-04-16" x="305" y="67" width="15" height="15" fill="#EEE" stroke="#CCC" data-date="2024-04-16"></rect>
<rect id="day-2024-04-17" x="305" y="84" width="15" height="15" fill="#EEE" stroke="#CCC" data-date="2024-04-17"></rect>
<rect id="day-2024-04-18" x="305" y="101" width="15" height="15" fill="#EEE" stroke="#CCC" data-date="2024-04-18"></rect>
<rect id="day-2024-04-19" x="305" y="118" width="15" height="15" fill="#EEE" stroke="#CCC" data-date="2024-04-19"></rect>
<rect id="day-2024-04-20" x="305" y="135" width="15" height="15" fill="#EEE" stroke="#CCC" data-date="2024-04-20"></rect>
<rect id="day-2024-04-21" x="305" y="152" width="15" height="15" fill="#EEE" stroke="#CCC" data-date="2024-04-21"></rect>
<rect id="day-2024-04-22" x="322" y="50" width="15" height="15" fill="#EEE" stroke="#CCC" data-date="2024-04-22"></rect>
<rect id="day-2024-04-23" x="322" y="67" width="15" height="15" fill="#EEE" stroke="#CCC" data-date="2024-04-23"></rect>
<rect id="day-2024-04-24" x="322" y="84" width="15" height="15" fill="#EEE" stroke="#CCC" data-date="2024-04-24"></rect>
<rect id="day-2024-04-25" x="322" y="101" width="15" height="15" fill="#EEE" stroke="#CCC" data-date="2024-04-25"></rect>
<rect id="day-2024-04-26" x="322" y="118" width="15" height="15" fill="#EEE" stroke="#CCC" data-date="2024-04-26"></rect>
<rect id="day-2024-04-27" x="322" y="135" width="15" height="15" fill="#EEE" stroke="#CCC" data-date="2024-04-27"></rect>
<rect id="day-2024-04-28" x="322" y="152" width="15" height="15" fill="#EEE" stroke="#CCC" data-date="2024-04-28"></rect>
<rect id="day-2024-04-29" x="339" y="50" width="15" height="15" fill="#EEE" stroke="#CCC" data-date="2024-04-29"></rect>
<rect id="day-2024-04-30" x="339" y="67" width="15" height="15" fill="#EEE" stroke="#CCC" data-date="2024-04-30"></rect>
<rect id="day-2024-05-01" x="339" y="84" width="15" height="15" fill="#EEE" stroke="#CCC" data-date="2024-05-01"></rect>
<rect id="day-2024-05-02" x="339" y="101" width="15" height="15" fill="#EEE" stroke="#CCC" data-date="2024-05-02"></rect>
<rect id="day-2024-05-03" x="339" y="118" width="15" height="15" fill="#EEE" stroke="#CCC" data-date="2024-05-03"></rect>
<rect id="day-2024-05-04" x="339" y="135" width="15" height="15" fill="#EEE" stroke="#CCC" data-date="2024-05-04"></rect>
<rect id="day-2024-05-05" x="339" y="152" width="15" height="15" fill="#EEE" stroke="#CCC" data-date="2024-05-05"></rect>
<rect id="day-2024-05-06" x="356" y="50" width="15" height="15" fill="#EEE" stroke="#CCC" data-date="2024-05-06"></rect>
<rect id="day-2024-05-07" x="356" y="67" width="15" height="15" fill="#EEE" stroke="#CCC" data-date="2024-05-07"></rect>
<rect id="day-2024-05-08" x="356" y="84" width="15" height="15" fill="#EEE" stroke="#CCC" data-date="2024-05-08"></rect>
<rect id="day-2024-05-09" x="356" y="101" width="15" height="15" fill="#EEE" stroke="#CCC" data-date="2024-05-09"></rect>
<rect id="day-2024-05-10" x="356" y="118" width="15" height="15" fill="#EEE" stroke="#CCC" data-date="2024-05-10"></rect>
<rect id="day-2024-05-11" x="356" y="135" width="15" height="15" fill="#EEE" stroke="#CCC" data-date="2024-05-11"></rect>
<rect id="day-2024-05-12" x="356" y="152" width="15" height="15" fill="#EEE" stroke="#CCC" data-date="2024-05-12"></rect>
<rect id="day-2024-05-13" x="373" y="50" width="15" height="15" fill="#EEE" stroke="#CCC" data-date="2024-05-13"></rect>
<rect id="day-2024-05-14" x="373" y="67" width="15" height="15" fill="#EEE" stroke="#CCC" data-date="2024-05-14"></rect>
<rect id="day-2024-05-15" x="373" y="84" width="15" height="15" fill="#EEE" stroke="#CCC" data-date="2024-05-15"></rect>
<rect id="day-2024-05-16" x="373" y="101" width="15" height="15" fill="#EEE" stroke="#CCC" data-date="2024-05-16"></rect>
<rect id="day-2024-05-17" x="373" y="118" width="15" height="15" fill="#EEE" stroke="#CCC" data-date="2024-05-17"></rect>
<rect id="day-2024-05-18" x="373" y="135" width="15" height="15" fill="#EEE" stroke="#CCC" data-date="2024-05-18"></rect>
<rect id="day-2024-05-19" x="373" y="152" width="15" height="15" fill="#EEE" stroke="#CCC" data-date="2024-05-19"></rect>
<rect id="day-2024-05-20" x="390" y="50" width="15" height="15" fill="#EEE" stroke="#CCC" data-date="2024-05-20"></rect>
<rect id="day-2024-05-21" x="390" y="67" width="15" height="15" fill="#EEE" stroke="#CCC" data-date="2024-05-21"></rect>
<rect id="day-2024-05-22" x="390" y="84" width="15" height="15" fill="#EEE" stroke="#CCC" data-date="2024-05-22"></rect>
<rect id="day-2024-05-23" x="390" y="101" width="15" height="15" fill="#EEE" stroke="#CCC" data-date="2024-05-23"></rect>
<rect id="day-2024-05-24" x="390" y="118" width="15" height="15" fill="#EEE" stroke="#CCC" data-date="2024-05-24"></rect>
<rect id="day-2024-05-25" x="390" y="135" width="15" height="15" fill="#EEE" stroke="#CCC" data-date="2024-05-25"></rect>
<rect id="day-2024-05-26" x="390" y="152" width="15" height="15" fill="#EEE" stroke="#CCC" data-date="2024-05-26"></rect>
<rect id="day-2024-05-27" x="407" y="50" width="15" height="15" fill="#EEE" stroke="#CCC" data-date="2024-05-27"></rect>
<rect id="day-2024-05-28" x="407" y="67" width="15" height="15" fill="#EEE" stroke="#CCC" data-date="2024-05-28"></rect>
<rect id="day-2024-05-29" x="407" y="84" width="15" height="15" fill="#EEE" stroke="#CCC" data-date="2024-05-29"></rect>
<rect id="day-2024-05-30" x="407" y="101" width="15" height="15" fill="#EEE" stroke="#CCC" data-date="2024-05-30"></rect>
<rect id="day-2024-05-31" x="407" y="118" width="15" height="15" fill="#EEE" stroke="#CCC" data-date="2024-05-31"></rect>
<rect id="day-2024-06-01" x="407" y="135" width="15" height="15" fill="#EEE" stroke="#CCC" data-date="2024-06-01"></rect>
<rect id="day-2024-06-02" x="407" y="152" width="15" height="15" fill="#EEE" stroke="#CCC" data-date="2024-06-02"></rect>
<rect id="day-2024-06-03" x="424" y="50" width="15" height="15" fill="#EEE" stroke="#CCC" data-date="2024-06-03"></rect>
<rect id="day-2024-06-04" x="424" y="67" width="15" height="15" fill="#EEE" stroke="#CCC" data-date="2024-06-04"></rect>
<rect id="day-2024-06-05" x="424" y="84" width="15" height="15" fill="#EEE" stroke="#CCC" data-date="2024-06-05"></rect>
<rect id="day-2024-06-06" x="424" y="101" width="15" height="15" fill="#EEE" stroke="#CCC" data-date="2024-06-06"></rect>
<rect id="day-2024-06-07" x="424" y="118" width="15" height="15" fill="#EEE" stroke="#CCC" data-date="2024-06-07"></rect>
<rect id="day-2024-06-08" x="424" y="135" width="15" height="15" fill="#EEE" stroke="#CCC" data-date="2024-06-08"></rect>
<rect id="day-2024-06-09" x="424" y="152" width="15" height="15" fill="#EEE" stroke="#CCC" data-date="2024-06-09"></rect>
<rect id="day-2024-06-10" x="441" y="50" width="15" height="15" fill="#EEE" stroke="#CCC" data-date="2024-06-10"></rect>
<rect id="day-2024-06-11" x="441" y="67" width="15" height="15" fill="#EEE" stroke="#CCC" data-date="2024-06-11"></rect>
<rect id="day-2024-06-12" x="441" y="84" width="15" height="15" fill="#EEE" stroke="#CCC" data-date="2024-06-12"></rect>
<rect id="day-2024-06-13" x="441" y="101" width="15" height="15" fill="#EEE" stroke="#CCC" data-date="2024-06-13"></rect>
<rect id="day-2024-06-14" x="441" y="118" width="15" height="15" fill="#EEE" stroke="#CCC" data-date="2024-06-14"></rect>
<rect id="day-2024-06-15" x="441" y="135" width="15" height="15" fill="#EEE" stroke="#CCC" data-date="2024-06-15"></rect>
<rect id="day-2024-06-16" x="441" y="152" width="15" height="15" fill="#EEE" stroke="#CCC" data-date="2024-06-16"></rect>
<rect id="day-2024-06-17" x="458" y="50" width="15" height="15" fill="#EEE" stroke="#CCC" data-date="2024-06-17"></rect>
<rect id="day-2024-06-18" x="458" y="67" width="15" height="15" fill="#EEE" stroke="#CCC" data-date="2024-06-18"></rect>
<rect id="day-2024-06-19" x="458" y="84" width="15" height="15" fill="#EEE" stroke="#CCC" data-date="2024-06-19"></rect>
<rect id="day-2024-06-20" x="458" y="101" width="15" height="15" fill="#EEE" stroke="#CCC" data-date="2024-06-20"></rect>
<rect id="day-2024-06-21" x="458" y="118" width="15" height="15" fill="#EEE" stroke="#CCC" data-date="2024-06-21"></rect>
<rect id="day-2024-06-22" x="458" y="135" width="15" height="15" fill="#EEE" stroke="#CCC" data-date="2024-06-22"></rect>
<rect id="day-2024-06-23" x="458" y="152" width="15" height="15" fill="#EEE" stroke="#CCC" data-date="2024-06-23"></rect>
<rect id="day-2024-06-24" x="475" y="50" width="15" height="15" fill="#EEE" stroke="#CCC" data-date="2024-06-24"></rect>
<rect id="day-2024-06-25" x="475" y="67" width="15" height="15" fill="#EEE" stroke="#CCC" data-date="2024-06-25"></rect>
<rect id="day-2024-06-26" x="475" y="84" width="15" height="15" fill="#EEE" stroke="#CCC" data-date="2024-06-26"></rect>
<rect id="day-2024-06-27" x="475" y="101" width="15" height="15" fill="#EEE" stroke="#CCC" data-date="2024-06-27"></rect>
<rect id="day-2024-06-28" x="475" y="118" width="15" height="15" fill="#EEE" stroke="#CCC" data-date="2024-06-28"></rect>
<rect id="day-2024-06-29" x="475" y="135" width="15" height="15" fill="#EEE" stroke="#CCC" data-date="2024-06-29"></rect>
<rect id="day-2024-06-30" x="475" y="152" width="15" height="15" fill="#EEE" stroke="#CCC" data-date="2024-06-30"></rect>
<rect id="day-2024-07-01" x="492" y="50" width="15" height="15" fill="#EEE" stroke="#CCC" data-date="2024-07-01"></rect>
<rect id="day-2024-07-02" x="492" y="67" width="15" height="15" fill="#EEE" stroke="#CCC" data-date="2024-07-02"></rect>
<rect id="day-2024-07-03" x="492" y="84" width="15" height="15" fill="#EEE" stroke="#CCC" data-date="2024-07-03"></rect>
<rect id="day-2024-07-04" x="492" y="101" width="15" height="15" fill="#EEE" stroke="#CCC" data-date="2024-07-04"></rect>
<rect id="day-2024-07-05" x="492" y="118" width="15" height="15" fill="#EEE" stroke="#CCC" data-date="2024-07-05"></rect>
<rect id="day-2024-07-06" x="492" y="135" width="15" height="15" fill="#EEE" stroke="#CCC" data-date="2024-07-06"></rect>
<rect id="day-2024-07-07" x="492" y="152" width="15" height="15" fill="#EEE" stroke="#CCC" data-date="2024-07-07"></rect>
<rect id="day-2024-07-08" x="509" y="50" width="15" height="15" fill="#EEE" stroke="#CCC" data-date="2024-07-08"></rect>
<rect id="day-2024-07-09" x="509" y="67" width="15" height="15" fill="#EEE" stroke="#CCC" data-date="2024-07-09"></rect>
<rect id="day-2024-07-10" x="509" y="84" width="15" height="15" fill="#EEE" stroke="#CCC" data-date="2024-07-10"></rect>
<rect id="day-2024-07-11" x="509" y="101" width="15" height="15" fill="#EEE" stroke="#CCC" data-date="2024-07-11"></rect>
<rect id="day-2024-07-12" x="509" y="118" width="15" height="15" fill="#EEE" stroke="#CCC" data-date="2024-07-12"></rect>
<rect id="day-2024-07-13" x="509" y="135" width="15" height="15" fill="#EEE" stroke="#CCC" data-date="2024-07-13"></rect>
<rect id="day-2024-07-14" x="509" y="152" width="15" height="15" fill="#EEE" stroke="#CCC" data-date="2024-07-14"></rect>
<rect id="day-2024-07-15" x="526" y="50" width="15" height="15" fill="#EEE" stroke="#CCC" data-date="2024-07-15"></rect>
<rect id="day-2024-07-16" x="526" y="67" width="15" height="15" fill="#EEE" stroke="#CCC" data-date="2024-07-16"></rect>
<rect id="day-2024-07-17" x="526" y="84" width="15" height="15" fill="#EEE" stroke="#CCC" data-date="2024-07-17"></rect>
<rect id="day-2024-07-18" x="526" y="101" width="15" height="15" fill="#EEE" stroke="#CCC" data-date="2024-07-18"></rect>
<rect id="day-2024-07-19" x="526" y="118" width="15" height="15" fill="#EEE" stroke="#CCC" data-date="2024-07-19"></rect>
<rect id="day-2024-07-20" x="526" y="135" width="15" height="15" fill="#EEE" stroke="#CCC" data-date="2024-07-20"></rect>
<rect id="day-2024-07-21" x="526" y="152" width="15" height="15" fill="#EEE" stroke="#CCC" data-date="2024-07-21"></rect>
<rect id="day-2024-07-22" x="543" y="50" width="15" height="15" fill="#EEE" stroke="#CCC" data-date="2024-07-22"></rect>
<rect id="day-2024-07-23" x="543" y="67" width="15" height="15" fill="#EEE" stroke="#CCC" data-date="2024-07-23"></rect>
<rect id="day-2024-07-24" x="543" y="84" width="15" height="15" fill="#EEE" stroke="#CCC" data-date="2024-07-24"></rect>
<rect id="day-2024-07-25" x="543" y="101" width="15" height="15" fill="#EEE" stroke="#CCC" data-date="2024-07-25"></rect>
<rect id="day-2024-07-26" x="543" y="118" width="15" height="15" fill="#EEE" stroke="#CCC" data-date="2024-07-26"></rect>
<rect id="day-2024-07-27" x="543" y="135" width="15" height="15" fill="#EEE" stroke="#CCC" data-date="2024-07-27"></rect>
<rect id="day-2024-07-28" x="543" y="152" width="15" height="15" fill="#EEE" stroke="#CCC" data-date="2024-07-28"></rect>
<rect id="day-2024-07-29" x="560" y="50" width="15" height="15" fill="#EEE" stroke="#CCC" data-date="2024-07-29"></rect>
<rect id="day-2024-07-30" x="560" y="67" width="15" height="15" fill="#EEE" stroke="#CCC" data-date="2024-07-30"></rect>
<rect id="day-2024-07-31" x="560" y="84" width="15" height="15" fill="#EEE" stroke="#CCC" data-date="2024-07-31"></rect>
<rect id="day-2024-08-01" x="560" y="101" width="15" height="15" fill="#EEE" stroke="#CCC" data-date="2024-08-01"></rect>
<rect id="day-2024-08-02" x="560" y="118" width="15" height="15" fill="#EEE" stroke="#CCC" data-date="2024-08-02"></rect>
<rect id="day-2024-08-03" x="560" y="135" width="15" height="15" fill="#EEE" stroke="#CCC" data-date="2024-08-03"></rect>
<rect id="day-2024-08-04" x="560" y="152" width="15" height="15" fill="#EEE" stroke="#CCC" data-date="2024-08-04"></rect>
<rect id="day-2024-08-05" x="577" y="50" width="15" height="15" fill="#EEE" stroke="#CCC" data-date="2024-08-05"></rect>
<rect id="day-2024-08-06" x="577" y="67" width="15" height="15" fill="#EEE" stroke="#CCC" data-date="2024-08-06"></rect>
<rect id="day-2024-08-07" x="577" y="84" width="15" height="15" fill="#EEE" stroke="#CCC" data-date="2024-08-07"></rect>
<rect id="day-2024-08-08" x="577" y="101" width="15" height="15" fill="#EEE" stroke="#CCC" data-date="2024-08-08"></rect>
<rect id="day-2024-08-09" x="577" y="118" width="15" height="15" fill="#EEE" stroke="#CCC" data-date="2024-08-09"></rect>
<rect id="day-2024-08-10" x="577" y="135" width="15" height="15" fill="#EEE" stroke="#CCC" data-date="2024-08-10"></rect>
<rect id="day-2024-08-11" x="577" y="152" width="15" height="15" fill="#EEE" stroke="#CCC" data-date="2024-08-11"></rect>
<rect id="day-2024-08-12" x="594" y="50" width="15" height="15" fill="#EEE" stroke="#CCC" data-date="2024-08-12"></rect>
<rect id="day-2024-08-13" x="594" y="67" width="15" height="15" fill="#EEE" stroke="#CCC" data-date="2024-08-13"></rect>
<rect id="day-2024-08-14" x="594" y="84" width="15" height="15" fill="#EEE" stroke="#CCC" data-date="2024-08-14"></rect>
<rect id="day-2024-08-15" x="594" y="101" width="15" height="15" fill="#EEE" stroke="#CCC" data-date="2024-08-15"></rect>
<rect id="day-2024-08-16" x="594" y="118" width="15" height="15" fill="#EEE" stroke="#CCC" data-date="2024-08-16"></rect>
<rect id="day-2024-08-17" x="594" y="135" width="15" height="15" fill="#EEE" stroke="#CCC" data-date="2024-08-17"></rect>
<rect id="day-2024-08-18" x="594" y="152" width="15" height="15" fill="#EEE" stroke="#CCC" data-date="2024-08-18"></rect>
<rect id="day-2024-08-19" x="611" y="50" width="15" height="15" fill="#EEE" stroke="#CCC" data-date="2024-08-19"></rect>
<rect id="day-2024-08-20" x="611" y="67" width="15" height="15" fill="#EEE" stroke="#CCC" data-date="2024-08-20"></rect>
<rect id="day-2024-08-21" x="611" y="84" width="15" height="15" fill="#EEE" stroke="#CCC" data-date="2024-08-21"></rect>
<rect id="day-2024-08-22" x="611" y="101" width="15" height="15" fill="#EEE" stroke="#CCC" data-date="2024-08-22"></rect>
<rect id="day-2024-08-23" x="611" y="118" width="15" height="15" fill="#EEE" stroke="#CCC" data-date="2024-08-23"></rect>
<rect id="day-2024-08-24" x="611" y="135" width="15" height="15" fill="#EEE" stroke="#CCC" data-date="2024-08-24"></rect>
<rect id="day-2024-08-25" x="611" y="152" width="15" height="15" fill="#EEE" stroke="#CCC" data-date="2024-08-25"></rect>
<rect id="day-2024-08-26" x="628" y="50" width="15" height="15" fill="#EEE" stroke="#CCC" data-date="2024-08-26"></rect>
<rect id="day-2024-08-27" x="628" y="67" width="15" height="15" fill="#EEE" stroke="#CCC" data-date="2024-08-27"></rect>
<rect id="day-2024-08-28" x="628" y="84" width="15" height="15" fill="#EEE" stroke="#CCC" data-date="2024-08-28"></rect>
<rect id="day-2024-08-29" x="628" y="101" width="15" height="15" fill="#EEE" stroke="#CCC" data-date="2024-08-29"></rect>
<rect id="day-2024-08-30" x="628" y="118" width="15" height="15" fill="#EEE" stroke="#CCC" data-date="2024-08-30"></rect>
<rect id="day-2024-08-31" x="628" y="135" width="15" height="15" fill="#EEE" stroke="#CCC" data-date="2024-08-31"></rect>
<rect id="day-2024-09-01" x="628" y="152" width="15" height="15" fill="#EEE" stroke="#CCC" data-date="2024-09-01"></rect>
<rect id="day-2024-09-02" x="645" y="50" width="15" height="15" fill="#EEE" stroke="#CCC" data-date="2024-09-02"></rect>
<rect id="day-2024-09-03" x="645" y="67" width="15" height="15" fill="#EEE" stroke="#CCC" data-date="2024-09-03"></rect>
<rect id="day-2024-09-04" x="645" y="84" width="15" height="15" fill="#EEE" stroke="#CCC" data-date="2024-09-04"></rect>
<rect id="day-2024-09-05" x="645" y="101" width="15" height="15" fill="#EEE" stroke="#CCC" data-date="2024-09-05"></rect>
<rect id="day-2024-09-06" x="645" y="118" width="15" height="15" fill="#EEE" stroke="#CCC" data-date="2024-09-06"></rect>
<rect id="day-2024-09-07" x="645" y="135" width="15" height="15" fill="#EEE" stroke="#CCC" data-date="2024-09-07"></rect>
<rect id="day-2024-09-08" x="645" y="152" width="15" height="15" fill="#EEE" stroke="#CCC" data-date="2024-09-08"></rect>
<rect id="day-2024-09-09" x="662" y="50" width="15" height="15" fill="#EEE" stroke="#CCC" data-date="2024-09-09"></rect>
<rect id="day-2024-09-10" x="662" y="67" width="15" height="15" fill="#EEE" stroke="#CCC" data-date="2024-09-10"></rect>
<rect id="day-2024-09-11" x="662" y="84" width="15" height="15" fill="#EEE" stroke="#CCC" data-date="2024-09-11"></rect>
<rect id="day-2024-09-12" x="662" y="101" width="15" height="15" fill="#EEE" stroke="#CCC" data-date="2024-09-12"></rect>
<rect id="day-2024-09-13" x="662" y="118" width="15" height="15" fill="#EEE" stroke="#CCC" data-date="2024-09-13"></rect>
<rect id="day-2024-09-14" x="662" y="135" width="15" height="15" fill="#EEE" stroke="#CCC" data-date="2024-09-14"></rect>
<rect id="day-2024-09-15" x="662" y="152" width="15" height="15" fill="#EEE" stroke="#CCC" data-date="2024-09-15"></rect>
<rect id="day-2024-09-16" x="679" y="50" width="15" height="15" fill="#EEE" stroke="#CCC" data-date="2024-09-16"></rect>
<rect id="day-2024-09-17" x="679" y="67" width="15" height="15" fill="#EEE" stroke="#CCC" data-date="2024-09-17"></rect>
<rect id="day-2024-09-18" x="679" y="84" width="15" height="15" fill="#EEE" stroke="#CCC" data-date="2024-09-18"></rect>
<rect id="day-2024-09-19" x="679" y="101" width="15" height="15" fill="#EEE" stroke="#CCC" data-date="2024-09-19"></rect>
<rect id="day-2024-09-20" x="679" y="118" width="15" height="15" fill="#EEE" stroke="#CCC" data-date="2024-09-20"></rect>
<rect id="day-2024-09-21" x="679" y="135" width="15" height="15" fill="#EEE" stroke="#CCC" data-date="2024-09-21"></rect>
<rect id="day-2024-09-22" x="679" y="152" width="15" height="15" fill="#EEE" stroke="#CCC" data-date="2024-09-22"></rect>
<rect id="day-2024-09-23" x="696" y="50" width="15" height="15" fill="#EEE" stroke="#CCC" data-date="2024-09-23"></rect>
<rect id="day-2024-09-24" x="696" y="67" width="15" height="15" fill="#EEE" stroke="#CCC" data-date="2024-09-24"></rect>
<rect id="day-2024-09-25" x="696" y="84" width="15" height="15" fill="#EEE" stroke="#CCC" data-date="2024-09-25"></rect>
<rect id="day-2024-09-26" x="696" y="101" width="15" height="15" fill="#EEE" stroke="#CCC" data-date="2024-09-26"></rect>
<rect id="day-2024-09-27" x="696" y="118" width="15" height="15" fill="#EEE" stroke="#CCC" data-date="2024-09-27"></rect>
<rect id="day-2024-09-28" x="696" y="135" width="15" height="15" fill="#EEE" stroke="#CCC" data-date="2024-09-28"></rect>
<rect id="day-2024-09-29" x="696" y="152" width="15" height="15" fill="#EEE" stroke="#CCC" data-date="2024-09-29"></rect>
<rect id="day-2024-09-30" x="713" y="50" width="15" height="15" fill="#EEE" stroke="#CCC" data-date="2024-09-30"></rect>
<rect id="day-2024-10-01" x="713" y="67" width="15" height="15" fill="#EEE" stroke="#CCC" data-date="2024-10-01"></rect>
<rect id="day-2024-10-02" x="713" y="84" width="15" height="15" fill="#EEE" stroke="#CCC" data-date="2024-10-02"></rect>
<rect id="day-2024-10-03" x="713" y="101" width="15" height="15" fill="#EEE" stroke="#CCC" data-date="2024-10-03"></rect>
<rect id="day-2024-10-04" x="713" y="118" width="15" height="15" fill="#EEE" stroke="#CCC" data-date="2024-10-04"></rect>
<rect id="day-2024-10-05" x="713" y="135" width="15" height="15" fill="#EEE" stroke="#CCC" data-date="2024-10-05"></rect>
<rect id="day-2024-10-06" x="713" y="152" width="15" height="15" fill="#EEE" stroke="#CCC" data-date="2024-10-06"></rect>
<rect id="day-2024-10-07" x="730" y="50" width="15" height="15" fill="#EEE" stroke="#CCC" data-date="2024-10-07"></rect>
<rect id="day-2024-10-08" x="730" y="67" width="15" height="15" fill="#EEE" stroke="#CCC" data-date="2024-10-08"></rect>
<rect id="day-2024-10-09" x="730" y="84" width="15" height="15" fill="#EEE" stroke="#CCC" data-date="2024-10-09"></rect>
<rect id="day-2024-10-10" x="730" y="101" width="15" height="15" fill="#EEE" stroke="#CCC" data-date="2024-10-10"></rect>
<rect id="day-2024-10-11" x="730" y="118" width="15" height="15" fill="#EEE" stroke="#CCC" data-date="2024-10-11"></rect>
<rect id="day-2024-10-12" x="730" y="135" width="15" height="15" fill="#EEE" stroke="#CCC" data-date="2024-10-12"></rect>
<rect id="day-2024-10-13" x="730" y="152" width="15" height="15" fill="#EEE" stroke="#CCC" data-date="2024-10-13"></rect>
<rect id="day-2024-10-14" x="747" y="50" width="15" height="15" fill="#EEE" stroke="#CCC" data-date="2024-10-14"></rect>
<rect id="day-2024-10-15" x="747" y="67" width="15" height="15" fill="#EEE" stroke="#CCC" data-date="2024-10-15"></rect>
<rect id="day-2024-10-16" x="747" y="84" width="15" height="15" fill="#EEE" stroke="#CCC" data-date="2024-10-16"></rect>
<rect id="day-2024-10-17" x="747" y="101" width="15" height="15" fill="#EEE" stroke="#CCC" data-date="2024-10-17"></rect>
<rect id="day-2024-10-18" x="747" y="118" width="15" height="15" fill="#EEE" stroke="#CCC" data-date="2024-10-18"></rect>
<rect id="day-2024-10-19" x="747" y="135" width="15" height="15" fill="#EEE" stroke="#CCC" data-date="2024-10-19"></rect>
<rect id="day-2024-10-20" x="747" y="152" width="15" height="15" fill="#EEE" stroke="#CCC" data-date="2024-10-20"></rect>
<rect id="day-2024-10-21" x="764" y="50" width="15" height="15" fill="#EEE" stroke="#CCC" data-date="2024-10-21"></rect>
<rect id="day-2024-10-22" x="764" y="67" width="15" height="15" fill="#EEE" stroke="#CCC" data-date="2024-10-22"></rect>
<rect id="day-2024-10-23" x="764" y="84" width="15" height="15" fill="#EEE" stroke="#CCC" data-date="2024-10-23"></rect>
<rect id="day-2024-10-24" x="764" y="101" width="15" height="15" fill="#EEE" stroke="#CCC" data-date="2024-10-24"></rect>
<rect id="day-2024-10-25" x="764" y="118" width="15" height="15" fill="#EEE" stroke="#CCC" data-date="2024-10-25"></rect>
<rect id="day-2024-10-26" x="764" y="135" width="15" height="15" fill="#EEE" stroke="#CCC" data-date="2024-10-26"></rect>
<rect id="day-2024-10-27" x="764" y="152" width="15" height="15" fill="#EEE" stroke="#CCC" data-date="2024-10-27"></rect>
<rect id="day-2024-10-28" x="781" y="50" width="15" height="15" fill="#EEE" stroke="#CCC" data-date="2024-10-28"></rect>
<rect id="day-2024-10-29" x="781" y="67" width="15" height="15" fill="#EEE" stroke="#CCC" data-date="2024-10-29"></rect>
<rect id="day-2024-10-30" x="781" y="84" width="15" height="15" fill="#EEE" stroke="#CCC" data-date="2024-10-30"></rect>
<rect id="day-2024-10-31" x="781" y="101" width="15" height="15" fill="#EEE" stroke="#CCC" data-date="2024-10-31"></rect>
<rect id="day-2024-11-01" x="781" y="118" width="15" height="15" fill="#EEE" stroke="#CCC" data-date="2024-11-01"></rect>
<rect id="day-2024-11-02" x="781" y="135" width="15" height="15" fill="#EEE" stroke="#CCC" data-date="2024-11-02"></rect>
<rect id="day-2024-11-03" x="781" y="152" width="15" height="15" fill="#EEE" stroke="#CCC" data-date="2024-11-03"></rect>
<rect id="day-2024-11-04" x="798" y="50" width="15" height="15" fill="#EEE" stroke="#CCC" data-date="2024-11-04"></rect>
<rect id="day-2024-11-05" x="798" y="67" width="15" height="15" fill="#EEE" stroke="#CCC" data-date="2024-11-05"></rect>
<rect id="day-2024-11-06" x="798" y="84" width="15" height="15" fill="#EEE" stroke="#CCC" data-date="2024-11-06"></rect>
<rect id="day-2024-11-07" x="798" y="101" width="15" height="15" fill="#EEE" stroke="#CCC" data-date="2024-11-07"></rect>
<rect id="day-2024-11-08" x="798" y="118" width="15" height="15" fill="#EEE" stroke="#CCC" data-date="2024-11-08"></rect>
<rect id="day-2024-11-09" x="798" y="135" width="15" height="15" fill="#EEE" stroke="#CCC" data-date="2024-11-09"></rect>
<rect id="day-2024-11-10" x="798" y="152" width="15" height="15" fill="#EEE" stroke="#CCC" data-date="2024-11-10"></rect>
<rect id="day-2024-11-11" x="815" y="50" width="15" height="15" fill="#EEE" stroke="#CCC" data-date="2024-11-11"></rect>
<rect id="day-2024-11-12" x="815" y="67" width="15" height="15" fill="#EEE" stroke="#CCC" data-date="2024-11-12"></rect>
<rect id="day-2024-11-13" x="815" y="84" width="15" height="15" fill="#EEE" stroke="#CCC" data-date="2024-11-13"></rect>
<rect id="day-2024-11-14" x="815" y="101" width="15" height="15" fill="#EEE" stroke="#CCC" data-date="2024-11-14"></rect>
<rect id="day-2024-11-15" x="815" y="118" width="15" height="15" fill="#EEE" stroke="#CCC" data-date="2024-11-15"></rect>
<rect id="day-2024-11-16" x="815" y="135" width="15" height="15" fill="#EEE" stroke="#CCC" data-date="2024-11-16"></rect>
<rect id="day-2024-11-17" x="815" y="152" width="15" height="15" fill="#EEE" stroke="#CCC" data-date="2024-11-17"></rect>
<rect id="day-2024-11-18" x="832" y="50" width="15" height="15" fill="#EEE" stroke="#CCC" data-date="2024-11-18"></rect>
<rect id="day-2024-11-19" x="832" y="67" width="15" height="15" fill="#EEE" stroke="#CCC" data-date="2024-11-19"></rect>
<rect id="day-2024-11-20" x="832" y="84" width="15" height="15" fill="#EEE" stroke="#CCC" data-date="2024-11-20"></rect>
<rect id="day-2024-11-21" x="832" y="101" width="15" height="15" fill="#EEE" stroke="#CCC" data-date="2024-11-21"></rect>
<rect id="day-2024-11-22" x="832" y="118" width="15" height="15" fill="#EEE" stroke="#CCC" data-date="2024-11-22"></rect>
<rect id="day-2024-11-23" x="832" y="135" width="15" height="15" fill="#EEE" stroke="#CCC" data-date="2024-11-23"></rect>
<rect id="day-2024-11-24" x="832" y="152" width="15" height="15" fill="#EEE" stroke="#CCC" data-date="2024-11-24"></rect>
<rect id="day-2024-11-25" x="849" y="50" width="15" height="15" fill="#EEE" stroke="#CCC" data-date="2024-11-25"></rect>
<rect id="day-2024-11-26" x="849" y="67" width="15" height="15" fill="#EEE" stroke="#CCC" data-date="2024-11-26"></rect>
<rect id="day-2024-11-27" x="849" y="84" width="15" height="15" fill="#EEE" stroke="#CCC" data-date="2024-11-27"></rect>
<rect id="day-2024-11-28" x="849" y="101" width="15" height="15" fill="#EEE" stroke="#CCC" data-date="2024-11-28"></rect>
<rect id="day-2024-11-29" x="849" y="118" width="15" height="15" fill="#EEE" stroke="#CCC" data-date="2024-11-29"></rect>
<rect id="day-2024-11-30" x="849" y="135" width="15" height="15" fill="#EEE" stroke="#CCC" data-date="2024-11-30"></rect>
<rect id="day-2024-12-01" x="849" y="152" width="15" height="15" fill="#EEE" stroke="#CCC" data-date="2024-12-01"></rect>
<rect id="day-2024-12-02" x="866" y="50" width="15" height="15" fill="#EEE" stroke="#CCC" data-date="2024-12-02"></rect>
<rect id="day-2024-12-03" x="866" y="67" width="15" height="15" fill="#EEE" stroke="#CCC" data-date="2024-12-03"></rect>
<rect id="day-2024-12-04" x="866" y="84" width="15" height="15" fill="#EEE" stroke="#CCC" data-date="2024-12-04"></rect>
<rect id="day-2024-12-05" x="866" y="101" width="15" height="15" fill="#EEE" stroke="#CCC" data-date="2024-12-05"></rect>
<rect id="day-2024-12-06" x="866" y="118" width="15" height="15" fill="#EEE" stroke="#CCC" data-date="2024-12-06"></rect>
<rect id="day-2024-12-07" x="866" y="135" width="15" height="15" fill="#EEE" stroke="#CCC" data-date="2024-12-07"></rect>
<rect id="day-2024-12-08" x="866" y="152" width="15" height="15" fill="#EEE" stroke="#CCC" data-date="2024-12-08"></rect>
<rect id="day-2024-12-09" x="883" y="50" width="15" height="15" fill="#EEE" stroke="#CCC" data-date="2024-12-09"></rect>
<rect id="day-2024-12-10" x="883" y="67" width="15" height="15" fill="#EEE" stroke="#CCC" data-date="2024-12-10"></rect>
<rect id="day-2024-12-11" x="883" y="84" width="15" height="15" fill="#EEE" stroke="#CCC" data-date="2024-12-11"></rect>
<rect id="day-2024-12-12" x="883" y="101" width="15" height="15" fill="#EEE" stroke="#CCC" data-date="2024-12-12"></rect>
<rect id="day-2024-12-13" x="883" y="118" width="15" height="15" fill="#EEE" stroke="#CCC" data-date="2024-12-13"></rect>
<rect id="day-2024-12-14" x="883" y="135" width="15" height="15" fill="#EEE" stroke="#CCC" data-date="2024-12-14"></rect>
<rect id="day-2024-12-15" x="883" y="152" width="15" height="15" fill="#EEE" stroke="#CCC" data-date="2024-12-15"></rect>
<rect id="day-2024-12-16" x="900" y="50" width="15" height="15" fill="#EEE" stroke="#CCC" data-date="2024-12-16"></rect>
<rect id="day-2024-12-17" x="900" y="67" width="15" height="15" fill="#EEE" stroke="#CCC" data-date="2024-12-17"></rect>
<rect id="day-2024-12-18" x="900" y="84" width="15" height="15" fill="#EEE" stroke="#CCC" data-date="2024-12-18"></rect>
<rect id="day-2024-12-19" x="900" y="101" width="15" height="15" fill="#EEE" stroke="#CCC" data-date="2024-12-19"></rect>
<rect id="day-2024-12-20" x="900" y="118" width="15" height="15" fill="#EEE" stroke="#CCC" data-date="2024-12-20"></rect>
<rect id="day-2024-12-21" x="900" y="135" width="15" height="15" fill="#EEE" stroke="#CCC" data-date="2024-12-21"></rect>
<rect id="day-2024-12-22" x="900" y="152" width="15" height="15" fill="#EEE" stroke="#CCC" data-date="2024-12-22"></rect>
<rect id="day-2024-12-23" x="917" y="50" width="15" height="15" fill="#EEE" stroke="#CCC" data-date="2024-12-23"></rect>
<rect id="day-2024-12-24" x="917" y="67" width="15" height="15" fill="#EEE" stroke="#CCC" data-date="2024-12-24"></rect>
<rect id="day-2024-12-25" x="917" y="84" width="15" height="15" fill="#EEE" stroke="#CCC" data-date="2024-12-25"></rect>
<rect id="day-2024-12-26" x="917" y="101" width="15" height="15" fill="#EEE" stroke="#CCC" data-date="2024-12-26"></rect>
<rect id="day-2024-12-27" x="917" y="118" width="15" height="15" fill="#EEE" stroke="#CCC" data-date="2024-12-27"></rect>
<rect id="day-2024-12-28" x="917" y="135" width="15" height="15" fill="#EEE" stroke="#CCC" data-date="2024-12-28"></rect>
<rect id="day-2024-12-29" x="917" y="152" width="15" height="15" fill="#EEE" stroke="#CCC" data-date="2024-12-29"></rect>
<rect id="day-2024-12-30" x="934" y="50" width="15" height="15" fill="#EEE" stroke="#CCC" data-date="2024-12-30"></rect>
<rect id="day-2024-12-31" x="934" y="67" width="15" height="15" fill="#EEE" stroke="#CCC" data-date="2024-12-31"></rect>
</svg>
