<svg height="110" style="font-family:Helvetica,arial,nimbussansl,liberationsans,freesans,clean,sans-serif;width:100%">
	<rect x="15" y="15" width="11" height="11" fill="#20242C90" rx="2" ry="2" />
	<rect x="15" y="28" width="11" height="11" fill="#20242C90" rx="2" ry="2" />
	<rect x="15" y="41" width="11" height="11" fill="#20242C90" rx="2" ry="2" />
	<rect x="15" y="54" width="11" height="11" fill="#20242C90" rx="2" ry="2" />
	<rect x="15" y="67" width="11" height="11" fill="#20242C90" rx="2" ry="2" />
	<rect x="15" y="80" width="11" height="11" fill="#20242C90" rx="2" ry="2" />
	<rect x="15" y="93" width="11" height="11" fill="#20242C90" rx="2" ry="2" />
	<rect x="28" y="15" width="11" height="11" fill="#20242C90" rx="2" ry="2" />
	<rect x="28" y="28" width="11" height="11" fill="#20242C90" rx="2" ry="2" />
	<rect x="28" y="41" width="11" height="11" fill="#20242C90" rx="2" ry="2" />
	<rect x="28" y="54" width="11" height="11" fill="#20242C90" rx="2" ry="2" />
	<rect x="28" y="67" width="11" height="11" fill="#20242C90" rx="2" ry="2" />
	<rect x="28" y="80" width="11" height="11" fill="#20242C90" rx="2" ry="2" />
	<rect x="28" y="93" width="11" height="11" fill="#20242C90" rx="2" ry="2" />
	<rect x="41" y="15" width="11" height="11" fill="#20242C90" rx="2" ry="2" />
	<rect x="41" y="28" width="11" height="11" fill="#20242C90" rx="2" ry="2" />
	<rect x="41" y="41" width="11" height="11" fill="#20242C90" rx="2" ry="2" />
	<rect x="41" y="54" width="11" height="11" fill="#20242C90" rx="2" ry="2" />
	<rect x="41" y="67" width="11" height="11" fill="#20242C90" rx="2" ry="2" />
	<rect x="41" y="80" width="11" height="11" fill="#20242C90" rx="2" ry="2" />
	<rect x="41" y="93" width="11" height="11" fill="#20242C90" rx="2" ry="2" />
	<rect x="54" y="15" width="11" height="11" fill="#20242C90" rx="2" ry="2" />
	<rect x="54" y="28" width="11" height="11" fill="#20242C90" rx="2" ry="2" />
	<rect x="54" y="41" width="11" height="11" fill="#20242C90" rx="2" ry="2" />
	<rect x="54" y="54" width="11" height="11" fill="#20242C90" rx="2" ry="2" />
	<rect x="54" y="67" width="11" height="11" fill="#20242C90" rx="2" ry="2" />
	<rect x="54" y="80" width="11" height="11" fill="#20242C90" rx="2" ry="2" />
	<rect x="54" y="93" width="11" height="11" fill="#20242C90" rx="2" ry="2" />
	<rect x="67" y="15" width="11" height="11" fill="#20242C90" rx="2" ry="2" />
	<rect x="67" y="28" width="11" height="11" fill="#20242C90" rx="2" ry="2" />
	<rect x="67" y="41" width="11" height="11" fill="#20242C90" rx="2" ry="2" />
	<rect x="67" y="54" width="11" height="11" fill="#20242C90" rx="2" ry="2" />
	<rect x="67" y="67" width="11" height="11" fill="#20242C90" rx="2" ry="2" />
	<rect x="67" y="80" width="11" height="11" fill="#20242C90" rx="2" ry="2" />
	<rect x="67" y="93" width="11" height="11" fill="#20242C90" rx="2" ry="2" />
	<rect x="80" y="15" width="11" height="11" fill="#20242C90" rx="2" ry="2" />
	<rect x="80" y="28" width="11" height="11" fill="#20242C90" rx="2" ry="2" />
	<rect x="80" y="41" width="11" height="11" fill="#20242C90" rx="2" ry="2" />
	<rect x="80" y="54" width="11" height="11" fill="#20242C90" rx="2" ry="2" />
	<rect x="80" y="67" width="11" height="11" fill="#20242C90" rx="2" ry="2" />
	<rect x="80" y="80" width="11" height="11" fill="#20242C90" rx="2" ry="2" />
	<rect x="80" y="93" width="11" height="11" fill="#20242C90" rx="2" ry="2" />
	<rect x="93" y="15" width="11" height="11" fill="#20242C90" rx="2" ry="2" />
	<rect x="93" y="28" width="11" height="11" fill="#20242C90" rx="2" ry="2" />
	<rect x="93" y="41" width="11" height="11" fill="#20242C90" rx="2" ry="2" />
	<rect x="93" y="54" width="11" height="11" fill="#20242C90" rx="2" ry="2" />
	<rect x="93" y="67" width="11" height="11" fill="#20242C90" rx="2" ry="2" />
	<rect x="93" y="80" width="11" height="11" fill="#20242C90" rx="2" ry="2" />
	<rect x="93" y="93" width="11" height="11" fill="#20242C90" rx="2" ry="2" />
	<rect x="106" y="15" width="11" height="11" fill="#20242C90" rx="2" ry="2" />
	<rect x="106" y="28" width="11" height="11" fill="#20242C90" rx="2" ry="2" />
	<rect x="106" y="41" width="11" height="11" fill="#20242C90" rx="2" ry="2" />
	<rect x="106" y="54" width="11" height="11" fill="#20242C90" rx="2" ry="2" />
	<rect x="106" y="67" width="11" height="11" fill="#20242C90" rx="2" ry="2" />
	<rect x="106" y="80" width="11" height="11" fill="#20242C90" rx="2" ry="2" />
	<rect x="106" y="93" width="11" height="11" fill="#20242C90" rx="2" ry="2" />
	<rect x="119" y="15" width="11" height="11" fill="#20242C90" rx="2" ry="2" />
	<rect x="119" y="28" width="11" height="11" fill="#20242C90" rx="2" ry="2" />
	<rect x="119" y="41" width="11" height="11" fill="#20242C90" rx="2" ry="2" />
	<rect x="119" y="54" width="11" height="11" fill="#20242C90" rx="2" ry="2" />
	<rect x="119" y="67" width="11" height="11" fill="#20242C90" rx="2" ry="2" />
	<rect x="119" y="80" width="11" height="11" fill="#20242C90" rx="2" ry="2" />
	<rect x="119" y="93" width="11" height="11" fill="#20242C90" rx="2" ry="2" />
	<rect x="132" y="15" width="11" height="11" fill="#20242C90" rx="2" ry="2" />
	<rect x="132" y="28" width="11" height="11" fill="#20242C90" rx="2" ry="2" />
	<rect x="132" y="41" width="11" height="11" fill="#20242C90" rx="2" ry="2" />
	<rect x="132" y="54" width="11" height="11" fill="#20242C90" rx="2" ry="2" />
	<rect x="132" y="67" width="11" height="11" fill="#20242C90" rx="2" ry="2" />
	<rect x="132" y="80" width="11" height="11" fill="#20242C90" rx="2" ry="2" />
	<rect x="132" y="93" width="11" height="11" fill="#20242C90" rx="2" ry="2" />
	<rect x="145" y="15" width="11" height="11" fill="#20242C90" rx="2" ry="2" />
	<rect x="145" y="28" width="11" height="11" fill="#20242C90" rx="2" ry="2" />
	<rect x="145" y="41" width="11" height="11" fill="#20242C90" rx="2" ry="2" />
	<rect x="145" y="54" width="11" height="11" fill="#20242C90" rx="2" ry="2" />
	<rect x="145" y="67" width="11" height="11" fill="#20242C90" rx="2" ry="2" />
	<rect x="145" y="80" width="11" height="11" fill="#20242C90" rx="2" ry="2" />
	<rect x="145" y="93" width="11" height="11" fill="#20242C90" rx="2" ry="2" />
	<rect x="158" y="15" width="11" height="11" fill="#20242C90" rx="2" ry="2" />
	<rect x="158" y="28" width="11" height="11" fill="#20242C90" rx="2" ry="2" />
	<rect x="158" y="41" width="11" height="11" fill="#20242C90" rx="2" ry="2" />
	<rect x="158" y="54" width="11" height="11" fill="#20242C90" rx="2" ry="2" />
	<rect x="158" y="67" width="11" height="11" fill="#20242C90" rx="2" ry="2" />
	<rect x="158" y="80" width="11" height="11" fill="#20242C90" rx="2" ry="2" />
	<rect x="158" y="93" width="11" height="11" fill="#20242C90" rx="2" ry="2" />
	<rect x="171" y="15" width="11" height="11" fill="#20242C90" rx="2" ry="2" />
	<rect x="171" y="28" width="11" height="11" fill="#20242C90" rx="2" ry="2" />
	<rect x="171" y="41" width="11" height="11" fill="#20242C90" rx="2" ry="2" />
	<rect x="171" y="54" width="11" height="11" fill="#20242C90" rx="2" ry="2" />
	<rect x="171" y="67" width="11" height="11" fill="#20242C90" rx="2" ry="2" />
	<rect x="171" y="80" width="11" height="11" fill="#20242C90" rx="2" ry="2" />
	<rect x="171" y="93" width="11" height="11" fill="#20242C90" rx="2" ry="2" />
	<rect x="184" y="15" width="11" height="11" fill="#20242C90" rx="2" ry="2" />
	<rect x="184" y="28" width="11" height="11" fill="#20242C90" rx="2" ry="2" />
	<rect x="184" y="41" width="11" height="11" fill="#20242C90" rx="2" ry="2" />
	<rect x="184" y="54" width="11" height="11" fill="#20242C90" rx="2" ry="2" />
	<rect x="184" y="67" width="11" height="11" fill="#20242C90" rx="2" ry="2" />
	<rect x="184" y="80" width="11" height="11" fill="#20242C90" rx="2" ry="2" />
	<rect x="184" y="93" width="11" height="11" fill="#20242C90" rx="2" ry="2" />
	<rect x="197" y="15" width="11" height="11" fill="#20242C90" rx="2" ry="2" />
	<rect x="197" y="28" width="11" height="11" fill="#20242C90" rx="2" ry="2" />
	<rect x="197" y="41" width="11" height="11" fill="#20242C90" rx="2" ry="2" />
	<rect x="197" y="54" width="11" height="11" fill="#20242C90" rx="2" ry="2" />
	<rect x="197" y="67" width="11" height="11" fill="#20242C90" rx="2" ry="2" />
	<rect x="197" y="80" width="11" height="11" fill="#20242C90" rx="2" ry="2" />
	<rect x="197" y="93" width="11" height="11" fill="#20242C90" rx="2" ry="2" />
	<rect x="210" y="15" width="11" height="11" fill="#20242C90" rx="2" ry="2" />
	<rect x="210" y="28" width="11" height="11" fill="#20242C90" rx="2" ry="2" />
	<rect x="210" y="41" width="11" height="11" fill="#20242C90" rx="2" ry="2" />
	<rect x="210" y="54" width="11" height="11" fill="#20242C90" rx="2" ry="2" />
	<rect x="210" y="67" width="11" height="11" fill="#20242C90" rx="2" ry="2" />
	<rect x="210" y="80" width="11" height="11" fill="#20242C90" rx="2" ry="2" />
	<rect x="210" y="93" width="11" height="11" fill="#20242C90" rx="2" ry="2" />
	<rect x="223" y="15" width="11" height="11" fill="#20242C90" rx="2" ry="2" />
	<rect x="223" y="28" width="11" height="11" fill="#20242C90" rx="2" ry="2" />
	<rect x="223" y="41" width="11" height="11" fill="#20242C90" rx="2" ry="2" />
	<rect x="223" y="54" width="11" height="11" fill="#20242C90" rx="2" ry="2" />
	<rect x="223" y="67" width="11" height="11" fill="#20242C90" rx="2" ry="2" />
	<rect x="223" y="80" width="11" height="11" fill="#20242C90" rx="2" ry="2" />
	<rect x="223" y="93" width="11" height="11" fill="#20242C90" rx="2" ry="2" />
	<rect x="236" y="15" width="11" height="11" fill="#20242C90" rx="2" ry="2" />
	<rect x="236" y="28" width="11" height="11" fill="#20242C90" rx="2" ry="2" />
	<rect x="236" y="41" width="11" height="11" fill="#20242C90" rx="2" ry="2" />
	<rect x="236" y="54" width="11" height="11" fill="#20242C90" rx="2" ry="2" />
	<rect x="236" y="67" width="11" height="11" fill="#20242C90" rx="2" ry="2" />
	<rect x="236" y="80" width="11" height="11" fill="#20242C90" rx="2" ry="2" />
	<rect x="236" y="93" width="11" height="11" fill="#20242C90" rx="2" ry="2" />
	<rect x="249" y="15" width="11" height="11" fill="#20242C90" rx="2" ry="2" />
	<rect x="249" y="28" width="11" height="11" fill="#20242C90" rx="2" ry="2" />
	<rect x="249" y="41" width="11" height="11" fill="#20242C90" rx="2" ry="2" />
	<rect x="249" y="54" width="11" height="11" fill="#20242C90" rx="2" ry="2" />
	<rect x="249" y="67" width="11" height="11" fill="#20242C90" rx="2" ry="2" />
	<rect x="249" y="80" width="11" height="11" fill="#20242C90" rx="2" ry="2" />
	<rect x="249" y="93" width="11" height="11" fill="#20242C90" rx="2" ry="2" />
	<rect x="262" y="15" width="11" height="11" fill="#20242C90" rx="2" ry="2" />
	<rect x="262" y="28" width="11" height="11" fill="#20242C90" rx="2" ry="2" />
	<rect x="262" y="41" width="11" height="11" fill="#20242C90" rx="2" ry="2" />
	<rect x="262" y="54" width="11" height="11" fill="#20242C90" rx="2" ry="2" />
	<rect x="262" y="67" width="11" height="11" fill="#20242C90" rx="2" ry="2" />
	<rect x="262" y="80" width="11" height="11" fill="#20242C90" rx="2" ry="2" />
	<rect x="262" y="93" width="11" height="11" fill="#20242C90" rx="2" ry="2" />
	<rect x="275" y="15" width="11" height="11" fill="#20242C90" rx="2" ry="2" />
	<rect x="275" y="28" width="11" height="11" fill="#20242C90" rx="2" ry="2" />
	<rect x="275" y="41" width="11" height="11" fill="#20242C90" rx="2" ry="2" />
	<rect x="275" y="54" width="11" height="11" fill="#20242C90" rx="2" ry="2" />
	<rect x="275" y="67" width="11" height="11" fill="#20242C90" rx="2" ry="2" />
	<rect x="275" y="80" width="11" height="11" fill="#20242C90" rx="2" ry="2" />
	<rect x="275" y="93" width="11" height="11" fill="#20242C90" rx="2" ry="2" />
	<rect x="288" y="15" width="11" height="11" fill="#20242C90" rx="2" ry="2" />
	<rect x="288" y="28" width="11" height="11" fill="#20242C90" rx="2" ry="2" />
	<rect x="288" y="41" width="11" height="11" fill="#20242C90" rx="2" ry="2" />
	<rect x="288" y="54" width="11" height="11" fill="#20242C90" rx="2" ry="2" />
	<rect x="288" y="67" width="11" height="11" fill="#20242C90" rx="2" ry="2" />
	<rect x="288" y="80" width="11" height="11" fill="#20242C90" rx="2" ry="2" />
	<rect x="288" y="93" width="11" height="11" fill="#20242C90" rx="2" ry="2" />
	<rect x="301" y="15" width="11" height="11" fill="#20242C90" rx="2" ry="2" />
	<rect x="301" y="28" width="11" height="11" fill="#20242C90" rx="2" ry="2" />
	<rect x="301" y="41" width="11" height="11" fill="#20242C90" rx="2" ry="2" />
	<rect x="301" y="54" width="11" height="11" fill="#20242C90" rx="2" ry="2" />
	<rect x="301" y="67" width="11" height="11" fill="#20242C90" rx="2" ry="2" />
	<rect x="301" y="80" width="11" height="11" fill="#20242C90" rx="2" ry="2" />
	<rect x="301" y="93" width="11" height="11" fill="#20242C90" rx="2" ry="2" />
	<rect x="314" y="15" width="11" height="11" fill="#20242C90" rx="2" ry="2" />
	<rect x="314" y="28" width="11" height="11" fill="#20242C90" rx="2" ry="2" />
	<rect x="314" y="41" width="11" height="11" fill="#20242C90" rx="2" ry="2" />
	<rect x="314" y="54" width="11" height="11" fill="#20242C90" rx="2" ry="2" />
	<rect x="314" y="67" width="11" height="11" fill="#20242C90" rx="2" ry="2" />
	<rect x="314" y="80" width="11" height="11" fill="#20242C90" rx="2" ry="2" />
	<rect x="314" y="93" width="11" height="11" fill="#20242C90" rx="2" ry="2" />
	<rect x="327" y="15" width="11" height="11" fill="#20242C90" rx="2" ry="2" />
	<rect x="327" y="28" width="11" height="11" fill="#20242C90" rx="2" ry="2" />
	<rect x="327" y="41" width="11" height="11" fill="#20242C90" rx="2" ry="2" />
	<rect x="327" y="54" width="11" height="11" fill="#20242C90" rx="2" ry="2" />
	<rect x="327" y="67" width="11" height="11" fill="#20242C90" rx="2" ry="2" />
	<rect x="327" y="80" width="11" height="11" fill="#20242C90" rx="2" ry="2" />
	<rect x="327" y="93" width="11" height="11" fill="#20242C90" rx="2" ry="2" />
	<rect x="340" y="15" width="11" height="11" fill="#20242C90" rx="2" ry="2" />
	<rect x="340" y="28" width="11" height="11" fill="#20242C90" rx="2" ry="2" />
	<rect x="340" y="41" width="11" height="11" fill="#20242C90" rx="2" ry="2" />
	<rect x="340" y="54" width="11" height="11" fill="#20242C90" rx="2" ry="2" />
	<rect x="340" y="67" width="11" height="11" fill="#20242C90" rx="2" ry="2" />
	<rect x="340" y="80" width="11" height="11" fill="#20242C90" rx="2" ry="2" />
	<rect x="340" y="93" width="11" height="11" fill="#20242C90" rx="2" ry="2" />
	<rect x="353" y="15" width="11" height="11" fill="#20242C90" rx="2" ry="2" />
	<rect x="353" y="28" width="11" height="11" fill="#20242C90" rx="2" ry="2" />
	<rect x="353" y="41" width="11" height="11" fill="#20242C90" rx="2" ry="2" />
	<rect x="353" y="54" width="11" height="11" fill="#20242C90" rx="2" ry="2" />
	<rect x="353" y="67" width="11" height="11" fill="#20242C90" rx="2" ry="2" />
	<rect x="353" y="80" width="11" height="11" fill="#20242C90" rx="2" ry="2" />
	<rect x="353" y="93" width="11" height="11" fill="#20242C90" rx="2" ry="2" />
	<rect x="366" y="15" width="11" height="11" fill="#20242C90" rx="2" ry="2" />
	<rect x="366" y="28" width="11" height="11" fill="#20242C90" rx="2" ry="2" />
	<rect x="366" y="41" width="11" height="11" fill="#20242C90" rx="2" ry="2" />
	<rect x="366" y="54" width="11" height="11" fill="#20242C90" rx="2" ry="2" />
	<rect x="366" y="67" width="11" height="11" fill="#20242C90" rx="2" ry="2" />
	<rect x="366" y="80" width="11" height="11" fill="#20242C90" rx="2" ry="2" />
	<rect x="366" y="93" width="11" height="11" fill="#20242C90" rx="2" ry="2" />
	<rect x="379" y="15" width="11" height="11" fill="#20242C90" rx="2" ry="2" />
	<rect x="379" y="28" width="11" height="11" fill="#20242C90" rx="2" ry="2" />
	<rect x="379" y="41" width="11" height="11" fill="#20242C90" rx="2" ry="2" />
	<rect x="379" y="54" width="11" height="11" fill="#20242C90" rx="2" ry="2" />
	<rect x="379" y="67" width="11" height="11" fill="#20242C90" rx="2" ry="2" />
	<rect x="379" y="80" width="11" height="11" fill="#20242C90" rx="2" ry="2" />
	<rect x="379" y="93" width="11" height="11" fill="#20242C90" rx="2" ry="2" />
	<rect x="392" y="15" width="11" height="11" fill="#20242C90" rx="2" ry="2" />
	<rect x="392" y="28" width="11" height="11" fill="#20242C90" rx="2" ry="2" />
	<rect x="392" y="41" width="11" height="11" fill="#20242C90" rx="2" ry="2" />
	<rect x="392" y="54" width="11" height="11" fill="#20242C90" rx="2" ry="2" />
	<rect x="392" y="67" width="11" height="11" fill="#20242C90" rx="2" ry="2" />
	<rect x="392" y="80" width="11" height="11" fill="#20242C90" rx="2" ry="2" />
	<rect x="392" y="93" width="11" height="11" fill="#20242C90" rx="2" ry="2" />
	<rect x="405" y="15" width="11" height="11" fill="#20242C90" rx="2" ry="2" />
	<rect x="405" y="28" width="11" height="11" fill="#20242C90" rx="2" ry="2" />
	<rect x="405" y="41" width="11" height="11" fill="#20242C90" rx="2" ry="2" />
	<rect x="405" y="54" width="11" height="11" fill="#20242C90" rx="2" ry="2" />
	<rect x="405" y="67" width="11" height="11" fill="#20242C90" rx="2" ry="2" />
	<rect x="405" y="80" width="11" height="11" fill="#20242C90" rx="2" ry="2" />
	<rect x="405" y="93" width="11" height="11" fill="#20242C90" rx="2" ry="2" />
	<rect x="418" y="15" width="11" height="11" fill="#20242C90" rx="2" ry="2" />
	<rect x="418" y="28" width="11" height="11" fill="#20242C90" rx="2" ry="2" />
	<rect x="418" y="41" width="11" height="11" fill="#20242C90" rx="2" ry="2" />
	<rect x="418" y="54" width="11" height="11" fill="#20242C90" rx="2" ry="2" />
	<rect x="418" y="67" width="11" height="11" fill="#20242C90" rx="2" ry="2" />
	<rect x="418" y="80" width="11" height="11" fill="#20242C90" rx="2" ry="2" />
	<rect x="418" y="93" width="11" height="11" fill="#20242C90" rx="2" ry="2" />
	<rect x="431" y="15" width="11" height="11" fill="#20242C90" rx="2" ry="2" />
	<rect x="431" y="28" width="11" height="11" fill="#20242C90" rx="2" ry="2" />
	<rect x="431" y="41" width="11" height="11" fill="#20242C90" rx="2" ry="2" />
	<rect x="431" y="54" width="11" height="11" fill="#20242C90" rx="2" ry="2" />
	<rect x="431" y="67" width="11" height="11" fill="#20242C90" rx="2" ry="2" />
	<rect x="431" y="80" width="11" height="11" fill="#20242C90" rx="2" ry="2" />
	<rect x="431" y="93" width="11" height="11" fill="#20242C90" rx="2" ry="2" />
	<rect x="444" y="15" width="11" height="11" fill="#20242C90" rx="2" ry="2" />
	<rect x="444" y="28" width="11" height="11" fill="#20242C90" rx="2" ry="2" />
	<rect x="444" y="41" width="11" height="11" fill="#20242C90" rx="2" ry="2" />
	<rect x="444" y="54" width="11" height="11" fill="#20242C90" rx="2" ry="2" />
	<rect x="444" y="67" width="11" height="11" fill="#20242C90" rx="2" ry="2" />
	<rect x="444" y="80" width="11" height="11" fill="#20242C90" rx="2" ry="2" />
	<rect x="444" y="93" width="11" height="11" fill="#20242C90" rx="2" ry="2" />
	<rect x="457" y="15" width="11" height="11" fill="#20242C90" rx="2" ry="2" />
	<rect x="457" y="28" width="11" height="11" fill="#20242C90" rx="2" ry="2" />
	<rect x="457" y="41" width="11" height="11" fill="#20242C90" rx="2" ry="2" />
	<rect x="457" y="54" width="11" height="11" fill="#20242C90" rx="2" ry="2" />
	<rect x="457" y="67" width="11" height="11" fill="#20242C90" rx="2" ry="2" />
	<rect x="457" y="80" width="11" height="11" fill="#20242C90" rx="2" ry="2" />
	<rect x="457" y="93" width="11" height="11" fill="#20242C90" rx="2" ry="2" />
	<rect x="470" y="15" width="11" height="11" fill="#20242C90" rx="2" ry="2" />
	<rect x="470" y="28" width="11" height="11" fill="#20242C90" rx="2" ry="2" />
	<rect x="470" y="41" width="11" height="11" fill="#20242C90" rx="2" ry="2" />
	<rect x="470" y="54" width="11" height="11" fill="#20242C90" rx="2" ry="2" />
	<rect x="470" y="67" width="11" height="11" fill="#20242C90" rx="2" ry="2" />
	<rect x="470" y="80" width="11" height="11" fill="#20242C90" rx="2" ry="2" />
	<rect x="470" y="93" width="11" height="11" fill="#20242C90" rx="2" ry="2" />
	<rect x="483" y="15" width="11" height="11" fill="#20242C90" rx="2" ry="2" />
	<rect x="483" y="28" width="11" height="11" fill="#20242C90" rx="2" ry="2" />
	<rect x="483" y="41" width="11" height="11" fill="#20242C90" rx="2" ry="2" />
	<rect x="483" y="54" width="11" height="11" fill="#20242C90" rx="2" ry="2" />
	<rect x="483" y="67" width="11" height="11" fill="#20242C90" rx="2" ry="2" />
	<rect x="483" y="80" width="11" height="11" fill="#20242C90" rx="2" ry="2" />
	<rect x="483" y="93" width="11" height="11" fill="#20242C90" rx="2" ry="2" />
	<rect x="496" y="15" width="11" height="11" fill="#20242C90" rx="2" ry="2" />
	<rect x="496" y="28" width="11" height="11" fill="#20242C90" rx="2" ry="2" />
	<rect x="496" y="41" width="11" height="11" fill="#20242C90" rx="2" ry="2" />
	<rect x="496" y="54" width="11" height="11" fill="#20242C90" rx="2" ry="2" />
	<rect x="496" y="67" width="11" height="11" fill="#20242C90" rx="2" ry="2" />
	<rect x="496" y="80" width="11" height="11" fill="#20242C90" rx="2" ry="2" />
	<rect x="496" y="93" width="11" height="11" fill="#20242C90" rx="2" ry="2" />
	<rect x="509" y="15" width="11" height="11" fill="#20242C90" rx="2" ry="2" />
	<rect x="509" y="28" width="11" height="11" fill="#20242C90" rx="2" ry="2" />
	<rect x="509" y="41" width="11" height="11" fill="#20242C90" rx="2" ry="2" />
	<text x="7.5" y="20.5" text-anchor="middle" style="font-size:9px;alignment-baseline:central;fill:#aaa">
		M
	</text>
	<text x="7.5" y="33.5" text-anchor="middle" style="font-size:9px;alignment-baseline:central;fill:#aaa">
	</text>
	<text x="7.5" y="46.5" text-anchor="middle" style="font-size:9px;alignment-baseline:central;fill:#aaa">
		W
	</text>
	<text x="7.5" y="59.5" text-anchor="middle" style="font-size:9px;alignment-baseline:central;fill:#aaa">
	</text>
	<text x="7.5" y="72.5" text-anchor="middle" style="font-size:9px;alignment-baseline:central;fill:#aaa">
		F
	</text>
	<text x="7.5" y="85.5" text-anchor="middle" style="font-size:9px;alignment-baseline:central;fill:#aaa">
	</text>
	<text x="7.5" y="98.5" text-anchor="middle" style="font-size:9px;alignment-baseline:central;fill:#aaa">
		S
	</text>
	<text x="40.5" y="7.5" text-anchor="middle" style="font-size:10px;alignment-baseline:central;fill:#aaa">
		Jan
	</text>
	<text x="82.5" y="7.5" text-anchor="middle" style="font-size:10px;alignment-baseline:central;fill:#aaa">
		Feb
	</text>
	<text x="124.5" y="7.5" text-anchor="middle" style="font-size:10px;alignment-baseline:central;fill:#aaa">
		Mar
	</text>
	<text x="166.5" y="7.5" text-anchor="middle" style="font-size:10px;alignment-baseline:central;fill:#aaa">
		Apr
	</text>
	<text x="208.5" y="7.5" text-anchor="middle" style="font-size:10px;alignment-baseline:central;fill:#aaa">
		May
	</text>
	<text x="250.5" y="7.5" text-anchor="middle" style="font-size:10px;alignment-baseline:central;fill:#aaa">
		Jun
	</text>
	<text x="292.5" y="7.5" text-anchor="middle" style="font-size:10px;alignment-baseline:central;fill:#aaa">
		Jul
	</text>
	<text x="334.5" y="7.5" text-anchor="middle" style="font-size:10px;alignment-baseline:central;fill:#aaa">
		Aug
	</text>
	<text x="376.5" y="7.5" text-anchor="middle" style="font-size:10px;alignment-baseline:central;fill:#aaa">
		Sep
	</text>
	<text x="418.5" y="7.5" text-anchor="middle" style="font-size:10px;alignment-baseline:central;fill:#aaa">
		Oct
	</text>
	<text x="460.5" y="7.5" text-anchor="middle" style="font-size:10px;alignment-baseline:central;fill:#aaa">
		Nov
	</text>
	<text x="502.5" y="7.5" text-anchor="middle" style="font-size:10px;alignment-baseline:central;fill:#aaa">
		Dec
	</text>
</svg>
