<?xml version="1.0" encoding="utf-8" ?>
<svg baseProfile="full" height="180" version="1.1" width="1100" xmlns="http://www.w3.org/2000/svg" xmlns:ev="http://www.w3.org/2001/xml-events" xmlns:xlink="http://www.w3.org/1999/xlink"><defs /><text fill="black" font-family="monospace" font-size="10px" x="20" y="38">M</text><text fill="black" font-family="monospace" font-size="10px" x="20" y="58">T</text><text fill="black" font-family="monospace" font-size="10px" x="20" y="78">W</text><text fill="black" font-family="monospace" font-size="10px" x="20" y="98">T</text><text fill="black" font-family="monospace" font-size="10px" x="20" y="118">F</text><text fill="black" font-family="monospace" font-size="10px" x="20" y="138">S</text><text fill="black" font-family="monospace" font-size="10px" x="20" y="158">S</text><rect fill="#ebedf0" height="16" stroke="gray" stroke-width="0.5" width="16" x="40" y="80" /><text fill="black" font-family="monospace" font-size="10px" x="40" y="16">Jan</text><rect fill="#ebedf0" height="16" stroke="gray" stroke-width="0.5" width="16" x="40" y="100" /><rect fill="#ebedf0" height="16" stroke="gray" stroke-width="0.5" width="16" x="40" y="120" /><rect fill="#ebedf0" height="16" stroke="gray" stroke-width="0.5" width="16" x="40" y="140" /><rect fill="#ebedf0" height="16" stroke="gray" stroke-width="0.5" width="16" x="60" y="160" /><text fill="black" font-family="monospace" font-size="10px" x="60" y="16">Jan</text><rect fill="#ebedf0" height="16" stroke="gray" stroke-width="0.5" width="16" x="60" y="40" /><rect fill="#ebedf0" height="16" stroke="gray" stroke-width="0.5" width="16" x="60" y="60" /><rect fill="#ebedf0" height="16" stroke="gray" stroke-width="0.5" width="16" x="60" y="80" /><rect fill="#ebedf0" height="16" stroke="gray" stroke-width="0.5" width="16" x="60" y="100" /><rect fill="#ebedf0" height="16" stroke="gray" stroke-width="0.5" width="16" x="60" y="120" /><rect fill="#ebedf0" height="16" stroke="gray" stroke-width="0.5" width="16" x="60" y="140" /><rect fill="#ebedf0" height="16" stroke="gray" stroke-width="0.5" width="16" x="80" y="160" /><text fill="black" font-family="monospace" font-size="10px" x="80" y="16">Jan</text><rect fill="#ebedf0" height="16" stroke="gray" stroke-width="0.5" width="16" x="80" y="40" /><rect fill="#ebedf0" height="16" stroke="gray" stroke-width="0.5" width="16" x="80" y="60" /><rect fill="#ebedf0" height="16" stroke="gray" stroke-width="0.5" width="16" x="80" y="80" /><rect fill="#ebedf0" height="16" stroke="gray" stroke-width="0.5" width="16" x="80" y="100" /><rect fill="#ebedf0" height="16" stroke="gray" stroke-width="0.5" width="16" x="80" y="120" /><rect fill="#ebedf0" height="16" stroke="gray" stroke-width="0.5" width="16" x="80" y="140" /><rect fill="#ebedf0" height="16" stroke="gray" stroke-width="0.5" width="16" x="100" y="160" /><text fill="black" font-family="monospace" font-size="10px" x="100" y="16">Jan</text><rect fill="#ebedf0" height="16" stroke="gray" stroke-width="0.5" width="16" x="100" y="40" /><rect fill="#ebedf0" height="16" stroke="gray" stroke-width="0.5" width="16" x="100" y="60" /><rect fill="#ebedf0" height="16" stroke="gray" stroke-width="0.5" width="16" x="100" y="80" /><rect fill="#ebedf0" height="16" stroke="gray" stroke-width="0.5" width="16" x="100" y="100" /><rect fill="#ebedf0" height="16" stroke="gray" stroke-width="0.5" width="16" x="100" y="120" /><rect fill="#ebedf0" height="16" stroke="gray" stroke-width="0.5" width="16" x="100" y="140" /><rect fill="#ebedf0" height="16" stroke="gray" stroke-width="0.5" width="16" x="120" y="160" /><text fill="black" font-family="monospace" font-size="10px" x="120" y="16">Jan</text><rect fill="#ebedf0" height="16" stroke="gray" stroke-width="0.5" width="16" x="120" y="40" /><rect fill="#ebedf0" height="16" stroke="gray" stroke-width="0.5" width="16" x="120" y="60" /><rect fill="#ebedf0" height="16" stroke="gray" stroke-width="0.5" width="16" x="120" y="80" /><rect fill="#ebedf0" height="16" stroke="gray" stroke-width="0.5" width="16" x="120" y="100" /><rect fill="#ebedf0" height="16" stroke="gray" stroke-width="0.5" width="16" x="120" y="120" /><rect fill="#ebedf0" height="16" stroke="gray" stroke-width="0.5" width="16" x="120" y="140" /><rect fill="#ebedf0" height="16" stroke="gray" stroke-width="0.5" width="16" x="140" y="160" /><text fill="black" font-family="monospace" font-size="10px" x="140" y="16">Feb</text><rect fill="#ebedf0" height="16" stroke="gray" stroke-width="0.5" width="16" x="140" y="40" /><rect fill="#ebedf0" height="16" stroke="gray" stroke-width="0.5" width="16" x="140" y="60" /><rect fill="#ebedf0" height="16" stroke="gray" stroke-width="0.5" width="16" x="140" y="80" /><rect fill="#ebedf0" height="16" stroke="gray" stroke-width="0.5" width="16" x="140" y="100" /><rect fill="#ebedf0" height="16" stroke="gray" stroke-width="0.5" width="16" x="140" y="120" /><rect fill="#ebedf0" height="16" stroke="gray" stroke-width="0.5" width="16" x="140" y="140" /><rect fill="#ebedf0" height="16" stroke="gray" stroke-width="0.5" width="16" x="160" y="160" /><text fill="black" font-family="monospace" font-size="10px" x="160" y="16">Feb</text><rect fill="#ebedf0" height="16" stroke="gray" stroke-width="0.5" width="16" x="160" y="40" /><rect fill="#ebedf0" height="16" stroke="gray" stroke-width="0.5" width="16" x="160" y="60" /><rect fill="#ebedf0" height="16" stroke="gray" stroke-width="0.5" width="16" x="160" y="80" /><rect fill="#ebedf0" height="16" stroke="gray" stroke-width="0.5" width="16" x="160" y="100" /><rect fill="#ebedf0" height="16" stroke="gray" stroke-width="0.5" width="16" x="160" y="120" /><rect fill="#ebedf0" height="16" stroke="gray" stroke-width="0.5" width="16" x="160" y="140" /><rect fill="#ebedf0" height="16" stroke="gray" stroke-width="0.5" width="16" x="180" y="160" /><text fill="black" font-family="monospace" font-size="10px" x="180" y="16">Feb</text><rect fill="#ebedf0" height="16" stroke="gray" stroke-width="0.5" width="16" x="180" y="40" /><rect fill="#ebedf0" height="16" stroke="gray" stroke-width="0.5" width="16" x="180" y="60" /><rect fill="#ebedf0" height="16" stroke="gray" stroke-width="0.5" width="16" x="180" y="80" /><rect fill="#ebedf0" height="16" stroke="gray" stroke-width="0.5" width="16" x="180" y="100" /><rect fill="#ebedf0" height="16" stroke="gray" stroke-width="0.5" width="16" x="180" y="120" /><rect fill="#ebedf0" height="16" stroke="gray" stroke-width="0.5" width="16" x="180" y="140" /><rect fill="#ebedf0" height="16" stroke="gray" stroke-width="0.5" width="16" x="200" y="160" /><text fill="black" font-family="monospace" font-size="10px" x="200" y="16">Feb</text><rect fill="#ebedf0" height="16" stroke="gray" stroke-width="0.5" width="16" x="200" y="40" /><rect fill="#ebedf0" height="16" stroke="gray" stroke-width="0.5" width="16" x="200" y="60" /><rect fill="#ebedf0" height="16" stroke="gray" stroke-width="0.5" width="16" x="200" y="80" /><rect fill="#ebedf0" height="16" stroke="gray" stroke-width="0.5" width="16" x="200" y="100" /><rect fill="#ebedf0" height="16" stroke="gray" stroke-width="0.5" width="16" x="200" y="120" /><rect fill="#ebedf0" height="16" stroke="gray" stroke-width="0.5" width="16" x="200" y="140" /><rect fill="#ebedf0" height="16" stroke="gray" stroke-width="0.5" width="16" x="220" y="160" /><text fill="black" font-family="monospace" font-size="10px" x="220" y="16">Mar</text><rect fill="#ebedf0" height="16" stroke="gray" stroke-width="0.5" width="16" x="220" y="40" /><rect fill="#ebedf0" height="16" stroke="gray" stroke-width="0.5" width="16" x="220" y="60" /><rect fill="#ebedf0" height="16" stroke="gray" stroke-width="0.5" width="16" x="220" y="80" /><rect fill="#ebedf0" height="16" stroke="gray" stroke-width="0.5" width="16" x="220" y="100" /><rect fill="#ebedf0" height="16" stroke="gray" stroke-width="0.5" width="16" x="220" y="120" /><rect fill="#ebedf0" height="16" stroke="gray" stroke-width="0.5" width="16" x="220" y="140" /><rect fill="#ebedf0" height="16" stroke="gray" stroke-width="0.5" width="16" x="240" y="160" /><text fill="black" font-family="monospace" font-size="10px" x="240" y="16">Mar</text><rect fill="#ebedf0" height="16" stroke="gray" stroke-width="0.5" width="16" x="240" y="40" /><rect fill="#ebedf0" height="16" stroke="gray" stroke-width="0.5" width="16" x="240" y="60" /><rect fill="#ebedf0" height="16" stroke="gray" stroke-width="0.5" width="16" x="240" y="80" /><rect fill="#ebedf0" height="16" stroke="gray" stroke-width="0.5" width="16" x="240" y="100" /><rect fill="#ebedf0" height="16" stroke="gray" stroke-width="0.5" width="16" x="240" y="120" /><rect fill="#ebedf0" height="16" stroke="gray" stroke-width="0.5" width="16" x="240" y="140" /><rect fill="#ebedf0" height="16" stroke="gray" stroke-width="0.5" width="16" x="260" y="160" /><text fill="black" font-family="monospace" font-size="10px" x="260" y="16">Mar</text><rect fill="#ebedf0" height="16" stroke="gray" stroke-width="0.5" width="16" x="260" y="40" /><rect fill="#ebedf0" height="16" stroke="gray" stroke-width="0.5" width="16" x="260" y="60" /><rect fill="#ebedf0" height="16" stroke="gray" stroke-width="0.5" width="16" x="260" y="80" /><rect fill="#ebedf0" height="16" stroke="gray" stroke-width="0.5" width="16" x="260" y="100" /><rect fill="#ebedf0" height="16" stroke="gray" stroke-width="0.5" width="16" x="260" y="120" /><rect fill="#ebedf0" height="16" stroke="gray" stroke-width="0.5" width="16" x="260" y="140" /><rect fill="#ebedf0" height="16" stroke="gray" stroke-width="0.5" width="16" x="280" y="160" /><text fill="black" font-family="monospace" font-size="10px" x="280" y="16">Mar</text><rect fill="#ebedf0" height="16" stroke="gray" stroke-width="0.5" width="16" x="280" y="40" /><rect fill="#ebedf0" height="16" stroke="gray" stroke-width="0.5" width="16" x="280" y="60" /><rect fill="#ebedf0" height="16" stroke="gray" stroke-width="0.5" width="16" x="280" y="80" /><rect fill="#ebedf0" height="16" stroke="gray" stroke-width="0.5" width="16" x="280" y="100" /><rect fill="#ebedf0" height="16" stroke="gray" stroke-width="0.5" width="16" x="280" y="120" /><rect fill="#ebedf0" height="16" stroke="gray" stroke-width="0.5" width="16" x="280" y="140" /><rect fill="#ebedf0" height="16" stroke="gray" stroke-width="0.5" width="16" x="300" y="160" /><text fill="black" font-family="monospace" font-size="10px" x="300" y="16">Mar</text><rect fill="#ebedf0" height="16" stroke="gray" stroke-width="0.5" width="16" x="300" y="40" /><rect fill="#ebedf0" height="16" stroke="gray" stroke-width="0.5" width="16" x="300" y="60" /><rect fill="#ebedf0" height="16" stroke="gray" stroke-width="0.5" width="16" x="300" y="80" /><rect fill="#ebedf0" height="16" stroke="gray" stroke-width="0.5" width="16" x="300" y="100" /><rect fill="#ebedf0" height="16" stroke="gray" stroke-width="0.5" width="16" x="300" y="120" /><rect fill="#ebedf0" height="16" stroke="gray" stroke-width="0.5" width="16" x="300" y="140" /><rect fill="#ebedf0" height="16" stroke="gray" stroke-width="0.5" width="16" x="320" y="160" /><text fill="black" font-family="monospace" font-size="10px" x="320" y="16">Apr</text><rect fill="#ebedf0" height="16" stroke="gray" stroke-width="0.5" width="16" x="320" y="40" /><rect fill="#ebedf0" height="16" stroke="gray" stroke-width="0.5" width="16" x="320" y="60" /><rect fill="#ebedf0" height="16" stroke="gray" stroke-width="0.5" width="16" x="320" y="80" /><rect fill="#ebedf0" height="16" stroke="gray" stroke-width="0.5" width="16" x="320" y="100" /><rect fill="#ebedf0" height="16" stroke="gray" stroke-width="0.5" width="16" x="320" y="120" /><rect fill="#ebedf0" height="16" stroke="gray" stroke-width="0.5" width="16" x="320" y="140" /><rect fill="#ebedf0" height="16" stroke="gray" stroke-width="0.5" width="16" x="340" y="160" /><text fill="black" font-family="monospace" font-size="10px" x="340" y="16">Apr</text><rect fill="#ebedf0" height="16" stroke="gray" stroke-width="0.5" width="16" x="340" y="40" /><rect fill="#ebedf0" height="16" stroke="gray" stroke-width="0.5" width="16" x="340" y="60" /><rect fill="#ebedf0" height="16" stroke="gray" stroke-width="0.5" width="16" x="340" y="80" /><rect fill="#ebedf0" height="16" stroke="gray" stroke-width="0.5" width="16" x="340" y="100" /><rect fill="#ebedf0" height="16" stroke="gray" stroke-width="0.5" width="16" x="340" y="120" /><rect fill="#ebedf0" height="16" stroke="gray" stroke-width="0.5" width="16" x="340" y="140" /><rect fill="#ebedf0" height="16" stroke="gray" stroke-width="0.5" width="16" x="360" y="160" /><text fill="black" font-family="monospace" font-size="10px" x="360" y="16">Apr</text><rect fill="#ebedf0" height="16" stroke="gray" stroke-width="0.5" width="16" x="360" y="40" /><rect fill="#ebedf0" height="16" stroke="gray" stroke-width="0.5" width="16" x="360" y="60" /><rect fill="#ebedf0" height="16" stroke="gray" stroke-width="0.5" width="16" x="360" y="80" /><rect fill="#ebedf0" height="16" stroke="gray" stroke-width="0.5" width="16" x="360" y="100" /><rect fill="#ebedf0" height="16" stroke="gray" stroke-width="0.5" width="16" x="360" y="120" /><rect fill="#ebedf0" height="16" stroke="gray" stroke-width="0.5" width="16" x="360" y="140" /><rect fill="#ebedf0" height="16" stroke="gray" stroke-width="0.5" width="16" x="380" y="160" /><text fill="black" font-family="monospace" font-size="10px" x="380" y="16">Apr</text><rect fill="#ebedf0" height="16" stroke="gray" stroke-width="0.5" width="16" x="380" y="40" /><rect fill="#ebedf0" height="16" stroke="gray" stroke-width="0.5" width="16" x="380" y="60" /><rect fill="#ebedf0" height="16" stroke="gray" stroke-width="0.5" width="16" x="380" y="80" /><rect fill="#ebedf0" height="16" stroke="gray" stroke-width="0.5" width="16" x="380" y="100" /><rect fill="#ebedf0" height="16" stroke="gray" stroke-width="0.5" width="16" x="380" y="120" /><rect fill="#ebedf0" height="16" stroke="gray" stroke-width="0.5" width="16" x="380" y="140" /><rect fill="#ebedf0" height="16" stroke="gray" stroke-width="0.5" width="16" x="400" y="160" /><text fill="black" font-family="monospace" font-size="10px" x="400" y="16">May</text><rect fill="#ebedf0" height="16" stroke="gray" stroke-width="0.5" width="16" x="400" y="40" /><rect fill="#ebedf0" height="16" stroke="gray" stroke-width="0.5" width="16" x="400" y="60" /><rect fill="#ebedf0" height="16" stroke="gray" stroke-width="0.5" width="16" x="400" y="80" /><rect fill="#ebedf0" height="16" stroke="gray" stroke-width="0.5" width="16" x="400" y="100" /><rect fill="#ebedf0" height="16" stroke="gray" stroke-width="0.5" width="16" x="400" y="120" /><rect fill="#ebedf0" height="16" stroke="gray" stroke-width="0.5" width="16" x="400" y="140" /><rect fill="#ebedf0" height="16" stroke="gray" stroke-width="0.5" width="16" x="420" y="160" /><text fill="black" font-family="monospace" font-size="10px" x="420" y="16">May</text><rect fill="#ebedf0" height="16" stroke="gray" stroke-width="0.5" width="16" x="420" y="40" /><rect fill="#ebedf0" height="16" stroke="gray" stroke-width="0.5" width="16" x="420" y="60" /><rect fill="#ebedf0" height="16" stroke="gray" stroke-width="0.5" width="16" x="420" y="80" /><rect fill="#ebedf0" height="16" stroke="gray" stroke-width="0.5" width="16" x="420" y="100" /><rect fill="#ebedf0" height="16" stroke="gray" stroke-width="0.5" width="16" x="420" y="120" /><rect fill="#ebedf0" height="16" stroke="gray" stroke-width="0.5" width="16" x="420" y="140" /><rect fill="#ebedf0" height="16" stroke="gray" stroke-width="0.5" width="16" x="440" y="160" /><text fill="black" font-family="monospace" font-size="10px" x="440" y="16">May</text><rect fill="#ebedf0" height="16" stroke="gray" stroke-width="0.5" width="16" x="440" y="40" /><rect fill="#ebedf0" height="16" stroke="gray" stroke-width="0.5" width="16" x="440" y="60" /><rect fill="#ebedf0" height="16" stroke="gray" stroke-width="0.5" width="16" x="440" y="80" /><rect fill="#ebedf0" height="16" stroke="gray" stroke-width="0.5" width="16" x="440" y="100" /><rect fill="#ebedf0" height="16" stroke="gray" stroke-width="0.5" width="16" x="440" y="120" /><rect fill="#ebedf0" height="16" stroke="gray" stroke-width="0.5" width="16" x="440" y="140" /><rect fill="#ebedf0" height="16" stroke="gray" stroke-width="0.5" width="16" x="460" y="160" /><text fill="black" font-family="monospace" font-size="10px" x="460" y="16">May</text><rect fill="#ebedf0" height="16" stroke="gray" stroke-width="0.5" width="16" x="460" y="40" /><rect fill="#ebedf0" height="16" stroke="gray" stroke-width="0.5" width="16" x="460" y="60" /><rect fill="#ebedf0" height="16" stroke="gray" stroke-width="0.5" width="16" x="460" y="80" /><rect fill="#ebedf0" height="16" stroke="gray" stroke-width="0.5" width="16" x="460" y="100" /><rect fill="#ebedf0" height="16" stroke="gray" stroke-width="0.5" width="16" x="460" y="120" /><rect fill="#ebedf0" height="16" stroke="gray" stroke-width="0.5" width="16" x="460" y="140" /><rect fill="#ebedf0" height="16" stroke="gray" stroke-width="0.5" width="16" x="480" y="160" /><text fill="black" font-family="monospace" font-size="10px" x="480" y="16">Jun</text><rect fill="#ebedf0" height="16" stroke="gray" stroke-width="0.5" width="16" x="480" y="40" /><rect fill="#ebedf0" height="16" stroke="gray" stroke-width="0.5" width="16" x="480" y="60" /><rect fill="#ebedf0" height="16" stroke="gray" stroke-width="0.5" width="16" x="480" y="80" /><rect fill="#ebedf0" height="16" stroke="gray" stroke-width="0.5" width="16" x="480" y="100" /><rect fill="#ebedf0" height="16" stroke="gray" stroke-width="0.5" width="16" x="480" y="120" /><rect fill="#ebedf0" height="16" stroke="gray" stroke-width="0.5" width="16" x="480" y="140" /><rect fill="#ebedf0" height="16" stroke="gray" stroke-width="0.5" width="16" x="500" y="160" /><text fill="black" font-family="monospace" font-size="10px" x="500" y="16">Jun</text><rect fill="#ebedf0" height="16" stroke="gray" stroke-width="0.5" width="16" x="500" y="40" /><rect fill="#ebedf0" height="16" stroke="gray" stroke-width="0.5" width="16" x="500" y="60" /><rect fill="#ebedf0" height="16" stroke="gray" stroke-width="0.5" width="16" x="500" y="80" /><rect fill="#ebedf0" height="16" stroke="gray" stroke-width="0.5" width="16" x="500" y="100" /><rect fill="#ebedf0" height="16" stroke="gray" stroke-width="0.5" width="16" x="500" y="120" /><rect fill="#ebedf0" height="16" stroke="gray" stroke-width="0.5" width="16" x="500" y="140" /><rect fill="#ebedf0" height="16" stroke="gray" stroke-width="0.5" width="16" x="520" y="160" /><text fill="black" font-family="monospace" font-size="10px" x="520" y="16">Jun</text><rect fill="#ebedf0" height="16" stroke="gray" stroke-width="0.5" width="16" x="520" y="40" /><rect fill="#ebedf0" height="16" stroke="gray" stroke-width="0.5" width="16" x="520" y="60" /><rect fill="#ebedf0" height="16" stroke="gray" stroke-width="0.5" width="16" x="520" y="80" /><rect fill="#ebedf0" height="16" stroke="gray" stroke-width="0.5" width="16" x="520" y="100" /><rect fill="#ebedf0" height="16" stroke="gray" stroke-width="0.5" width="16" x="520" y="120" /><rect fill="#ebedf0" height="16" stroke="gray" stroke-width="0.5" width="16" x="520" y="140" /><rect fill="#ebedf0" height="16" stroke="gray" stroke-width="0.5" width="16" x="540" y="160" /><text fill="black" font-family="monospace" font-size="10px" x="540" y="16">Jun</text><rect fill="#ebedf0" height="16" stroke="gray" stroke-width="0.5" width="16" x="540" y="40" /><rect fill="#ebedf0" height="16" stroke="gray" stroke-width="0.5" width="16" x="540" y="60" /><rect fill="#ebedf0" height="16" stroke="gray" stroke-width="0.5" width="16" x="540" y="80" /><rect fill="#ebedf0" height="16" stroke="gray" stroke-width="0.5" width="16" x="540" y="100" /><rect fill="#ebedf0" height="16" stroke="gray" stroke-width="0.5" width="16" x="540" y="120" /><rect fill="#ebedf0" height="16" stroke="gray" stroke-width="0.5" width="16" x="540" y="140" /><rect fill="#ebedf0" height="16" stroke="gray" stroke-width="0.5" width="16" x="560" y="160" /><text fill="black" font-family="monospace" font-size="10px" x="560" y="16">Jun</text><rect fill="#ebedf0" height="16" stroke="gray" stroke-width="0.5" width="16" x="560" y="40" /><rect fill="#ebedf0" height="16" stroke="gray" stroke-width="0.5" width="16" x="560" y="60" /><rect fill="#ebedf0" height="16" stroke="gray" stroke-width="0.5" width="16" x="560" y="80" /><rect fill="#ebedf0" height="16" stroke="gray" stroke-width="0.5" width="16" x="560" y="100" /><rect fill="#ebedf0" height="16" stroke="gray" stroke-width="0.5" width="16" x="560" y="120" /><rect fill="#ebedf0" height="16" stroke="gray" stroke-width="0.5" width="16" x="560" y="140" /><rect fill="#ebedf0" height="16" stroke="gray" stroke-width="0.5" width="16" x="580" y="160" /><text fill="black" font-family="monospace" font-size="10px" x="580" y="16">Jul</text><rect fill="#ebedf0" height="16" stroke="gray" stroke-width="0.5" width="16" x="580" y="40" /><rect fill="#ebedf0" height="16" stroke="gray" stroke-width="0.5" width="16" x="580" y="60" /><rect fill="#ebedf0" height="16" stroke="gray" stroke-width="0.5" width="16" x="580" y="80" /><rect fill="#ebedf0" height="16" stroke="gray" stroke-width="0.5" width="16" x="580" y="100" /><rect fill="#ebedf0" height="16" stroke="gray" stroke-width="0.5" width="16" x="580" y="120" /><rect fill="#ebedf0" height="16" stroke="gray" stroke-width="0.5" width="16" x="580" y="140" /><rect fill="#ebedf0" height="16" stroke="gray" stroke-width="0.5" width="16" x="600" y="160" /><text fill="black" font-family="monospace" font-size="10px" x="600" y="16">Jul</text><rect fill="#ebedf0" height="16" stroke="gray" stroke-width="0.5" width="16" x="600" y="40" /><rect fill="#ebedf0" height="16" stroke="gray" stroke-width="0.5" width="16" x="600" y="60" /><rect fill="#ebedf0" height="16" stroke="gray" stroke-width="0.5" width="16" x="600" y="80" /><rect fill="#ebedf0" height="16" stroke="gray" stroke-width="0.5" width="16" x="600" y="100" /><rect fill="#ebedf0" height="16" stroke="gray" stroke-width="0.5" width="16" x="600" y="120" /><rect fill="#ebedf0" height="16" stroke="gray" stroke-width="0.5" width="16" x="600" y="140" /><rect fill="#ebedf0" height="16" stroke="gray" stroke-width="0.5" width="16" x="620" y="160" /><text fill="black" font-family="monospace" font-size="10px" x="620" y="16">Jul</text><rect fill="#ebedf0" height="16" stroke="gray" stroke-width="0.5" width="16" x="620" y="40" /><rect fill="#ebedf0" height="16" stroke="gray" stroke-width="0.5" width="16" x="620" y="60" /><rect fill="#ebedf0" height="16" stroke="gray" stroke-width="0.5" width="16" x="620" y="80" /><rect fill="#ebedf0" height="16" stroke="gray" stroke-width="0.5" width="16" x="620" y="100" /><rect fill="#ebedf0" height="16" stroke="gray" stroke-width="0.5" width="16" x="620" y="120" /><rect fill="#ebedf0" height="16" stroke="gray" stroke-width="0.5" width="16" x="620" y="140" /><rect fill="#ebedf0" height="16" stroke="gray" stroke-width="0.5" width="16" x="640" y="160" /><text fill="black" font-family="monospace" font-size="10px" x="640" y="16">Jul</text><rect fill="#ebedf0" height="16" stroke="gray" stroke-width="0.5" width="16" x="640" y="40" /><rect fill="#ebedf0" height="16" stroke="gray" stroke-width="0.5" width="16" x="640" y="60" /><rect fill="#ebedf0" height="16" stroke="gray" stroke-width="0.5" width="16" x="640" y="80" /><rect fill="#ebedf0" height="16" stroke="gray" stroke-width="0.5" width="16" x="640" y="100" /><rect fill="#ebedf0" height="16" stroke="gray" stroke-width="0.5" width="16" x="640" y="120" /><rect fill="#ebedf0" height="16" stroke="gray" stroke-width="0.5" width="16" x="640" y="140" /><rect fill="#ebedf0" height="16" stroke="gray" stroke-width="0.5" width="16" x="660" y="160" /><text fill="black" font-family="monospace" font-size="10px" x="660" y="16">Aug</text><rect fill="#ebedf0" height="16" stroke="gray" stroke-width="0.5" width="16" x="660" y="40" /><rect fill="#ebedf0" height="16" stroke="gray" stroke-width="0.5" width="16" x="660" y="60" /><rect fill="#ebedf0" height="16" stroke="gray" stroke-width="0.5" width="16" x="660" y="80" /><rect fill="#ebedf0" height="16" stroke="gray" stroke-width="0.5" width="16" x="660" y="100" /><rect fill="#ebedf0" height="16" stroke="gray" stroke-width="0.5" width="16" x="660" y="120" /><rect fill="#ebedf0" height="16" stroke="gray" stroke-width="0.5" width="16" x="660" y="140" /><rect fill="#ebedf0" height="16" stroke="gray" stroke-width="0.5" width="16" x="680" y="160" /><text fill="black" font-family="monospace" font-size="10px" x="680" y="16">Aug</text><rect fill="#ebedf0" height="16" stroke="gray" stroke-width="0.5" width="16" x="680" y="40" /><rect fill="#ebedf0" height="16" stroke="gray" stroke-width="0.5" width="16" x="680" y="60" /><rect fill="#ebedf0" height="16" stroke="gray" stroke-width="0.5" width="16" x="680" y="80" /><rect fill="#ebedf0" height="16" stroke="gray" stroke-width="0.5" width="16" x="680" y="100" /><rect fill="#ebedf0" height="16" stroke="gray" stroke-width="0.5" width="16" x="680" y="120" /><rect fill="#ebedf0" height="16" stroke="gray" stroke-width="0.5" width="16" x="680" y="140" /><rect fill="#ebedf0" height="16" stroke="gray" stroke-width="0.5" width="16" x="700" y="160" /><text fill="black" font-family="monospace" font-size="10px" x="700" y="16">Aug</text><rect fill="#ebedf0" height="16" stroke="gray" stroke-width="0.5" width="16" x="700" y="40" /><rect fill="#ebedf0" height="16" stroke="gray" stroke-width="0.5" width="16" x="700" y="60" /><rect fill="#ebedf0" height="16" stroke="gray" stroke-width="0.5" width="16" x="700" y="80" /><rect fill="#ebedf0" height="16" stroke="gray" stroke-width="0.5" width="16" x="700" y="100" /><rect fill="#ebedf0" height="16" stroke="gray" stroke-width="0.5" width="16" x="700" y="120" /><rect fill="#ebedf0" height="16" stroke="gray" stroke-width="0.5" width="16" x="700" y="140" /><rect fill="#ebedf0" height="16" stroke="gray" stroke-width="0.5" width="16" x="720" y="160" /><text fill="black" font-family="monospace" font-size="10px" x="720" y="16">Aug</text><rect fill="#ebedf0" height="16" stroke="gray" stroke-width="0.5" width="16" x="720" y="40" /><rect fill="#ebedf0" height="16" stroke="gray" stroke-width="0.5" width="16" x="720" y="60" /><rect fill="#ebedf0" height="16" stroke="gray" stroke-width="0.5" width="16" x="720" y="80" /><rect fill="#ebedf0" height="16" stroke="gray" stroke-width="0.5" width="16" x="720" y="100" /><rect fill="#ebedf0" height="16" stroke="gray" stroke-width="0.5" width="16" x="720" y="120" /><rect fill="#ebedf0" height="16" stroke="gray" stroke-width="0.5" width="16" x="720" y="140" /><rect fill="#ebedf0" height="16" stroke="gray" stroke-width="0.5" width="16" x="740" y="160" /><text fill="black" font-family="monospace" font-size="10px" x="740" y="16">Aug</text><rect fill="#ebedf0" height="16" stroke="gray" stroke-width="0.5" width="16" x="740" y="40" /><rect fill="#ebedf0" height="16" stroke="gray" stroke-width="0.5" width="16" x="740" y="60" /><rect fill="#ebedf0" height="16" stroke="gray" stroke-width="0.5" width="16" x="740" y="80" /><rect fill="#ebedf0" height="16" stroke="gray" stroke-width="0.5" width="16" x="740" y="100" /><rect fill="#ebedf0" height="16" stroke="gray" stroke-width="0.5" width="16" x="740" y="120" /><rect fill="#ebedf0" height="16" stroke="gray" stroke-width="0.5" width="16" x="740" y="140" /><rect fill="#ebedf0" height="16" stroke="gray" stroke-width="0.5" width="16" x="760" y="160" /><text fill="black" font-family="monospace" font-size="10px" x="760" y="16">Sep</text><rect fill="#ebedf0" height="16" stroke="gray" stroke-width="0.5" width="16" x="760" y="40" /><rect fill="#ebedf0" height="16" stroke="gray" stroke-width="0.5" width="16" x="760" y="60" /><rect fill="#ebedf0" height="16" stroke="gray" stroke-width="0.5" width="16" x="760" y="80" /><rect fill="#ebedf0" height="16" stroke="gray" stroke-width="0.5" width="16" x="760" y="100" /><rect fill="#ebedf0" height="16" stroke="gray" stroke-width="0.5" width="16" x="760" y="120" /><rect fill="#ebedf0" height="16" stroke="gray" stroke-width="0.5" width="16" x="760" y="140" /><rect fill="#ebedf0" height="16" stroke="gray" stroke-width="0.5" width="16" x="780" y="160" /><text fill="black" font-family="monospace" font-size="10px" x="780" y="16">Sep</text><rect fill="#ebedf0" height="16" stroke="gray" stroke-width="0.5" width="16" x="780" y="40" /><rect fill="#ebedf0" height="16" stroke="gray" stroke-width="0.5" width="16" x="780" y="60" /><rect fill="#ebedf0" height="16" stroke="gray" stroke-width="0.5" width="16" x="780" y="80" /><rect fill="#ebedf0" height="16" stroke="gray" stroke-width="0.5" width="16" x="780" y="100" /><rect fill="#ebedf0" height="16" stroke="gray" stroke-width="0.5" width="16" x="780" y="120" /><rect fill="#ebedf0" height="16" stroke="gray" stroke-width="0.5" width="16" x="780" y="140" /><rect fill="#ebedf0" height="16" stroke="gray" stroke-width="0.5" width="16" x="800" y="160" /><text fill="black" font-family="monospace" font-size="10px" x="800" y="16">Sep</text><rect fill="#ebedf0" height="16" stroke="gray" stroke-width="0.5" width="16" x="800" y="40" /><rect fill="#ebedf0" height="16" stroke="gray" stroke-width="0.5" width="16" x="800" y="60" /><rect fill="#ebedf0" height="16" stroke="gray" stroke-width="0.5" width="16" x="800" y="80" /><rect fill="#ebedf0" height="16" stroke="gray" stroke-width="0.5" width="16" x="800" y="100" /><rect fill="#ebedf0" height="16" stroke="gray" stroke-width="0.5" width="16" x="800" y="120" /><rect fill="#ebedf0" height="16" stroke="gray" stroke-width="0.5" width="16" x="800" y="140" /><rect fill="#ebedf0" height="16" stroke="gray" stroke-width="0.5" width="16" x="820" y="160" /><text fill="black" font-family="monospace" font-size="10px" x="820" y="16">Sep</text><rect fill="#ebedf0" height="16" stroke="gray" stroke-width="0.5" width="16" x="820" y="40" /><rect fill="#ebedf0" height="16" stroke="gray" stroke-width="0.5" width="16" x="820" y="60" /><rect fill="#ebedf0" height="16" stroke="gray" stroke-width="0.5" width="16" x="820" y="80" /><rect fill="#ebedf0" height="16" stroke="gray" stroke-width="0.5" width="16" x="820" y="100" /><rect fill="#ebedf0" height="16" stroke="gray" stroke-width="0.5" width="16" x="820" y="120" /><rect fill="#ebedf0" height="16" stroke="gray" stroke-width="0.5" width="16" x="820" y="140" /><rect fill="#ebedf0" height="16" stroke="gray" stroke-width="0.5" width="16" x="840" y="160" /><text fill="black" font-family="monospace" font-size="10px" x="840" y="16">Oct</text><rect fill="#ebedf0" height="16" stroke="gray" stroke-width="0.5" width="16" x="840" y="40" /><rect fill="#ebedf0" height="16" stroke="gray" stroke-width="0.5" width="16" x="840" y="60" /><rect fill="#ebedf0" height="16" stroke="gray" stroke-width="0.5" width="16" x="840" y="80" /><rect fill="#ebedf0" height="16" stroke="gray" stroke-width="0.5" width="16" x="840" y="100" /><rect fill="#ebedf0" height="16" stroke="gray" stroke-width="0.5" width="16" x="840" y="120" /><rect fill="#ebedf0" height="16" stroke="gray" stroke-width="0.5" width="16" x="840" y="140" /><rect fill="#ebedf0" height="16" stroke="gray" stroke-width="0.5" width="16" x="860" y="160" /><text fill="black" font-family="monospace" font-size="10px" x="860" y="16">Oct</text><rect fill="#ebedf0" height="16" stroke="gray" stroke-width="0.5" width="16" x="860" y="40" /><rect fill="#ebedf0" height="16" stroke="gray" stroke-width="0.5" width="16" x="860" y="60" /><rect fill="#ebedf0" height="16" stroke="gray" stroke-width="0.5" width="16" x="860" y="80" /><rect fill="#ebedf0" height="16" stroke="gray" stroke-width="0.5" width="16" x="860" y="100" /><rect fill="#ebedf0" height="16" stroke="gray" stroke-width="0.5" width="16" x="860" y="120" /><rect fill="#ebedf0" height="16" stroke="gray" stroke-width="0.5" width="16" x="860" y="140" /><rect fill="#ebedf0" height="16" stroke="gray" stroke-width="0.5" width="16" x="880" y="160" /><text fill="black" font-family="monospace" font-size="10px" x="880" y="16">Oct</text><rect fill="#ebedf0" height="16" stroke="gray" stroke-width="0.5" width="16" x="880" y="40" /><rect fill="#ebedf0" height="16" stroke="gray" stroke-width="0.5" width="16" x="880" y="60" /><rect fill="#ebedf0" height="16" stroke="gray" stroke-width="0.5" width="16" x="880" y="80" /><rect fill="#ebedf0" height="16" stroke="gray" stroke-width="0.5" width="16" x="880" y="100" /><rect fill="#ebedf0" height="16" stroke="gray" stroke-width="0.5" width="16" x="880" y="120" /><rect fill="#ebedf0" height="16" stroke="gray" stroke-width="0.5" width="16" x="880" y="140" /><rect fill="#ebedf0" height="16" stroke="gray" stroke-width="0.5" width="16" x="900" y="160" /><text fill="black" font-family="monospace" font-size="10px" x="900" y="16">Oct</text><rect fill="#ebedf0" height="16" stroke="gray" stroke-width="0.5" width="16" x="900" y="40" /><rect fill="#ebedf0" height="16" stroke="gray" stroke-width="0.5" width="16" x="900" y="60" /><rect fill="#ebedf0" height="16" stroke="gray" stroke-width="0.5" width="16" x="900" y="80" /><rect fill="#ebedf0" height="16" stroke="gray" stroke-width="0.5" width="16" x="900" y="100" /><rect fill="#ebedf0" height="16" stroke="gray" stroke-width="0.5" width="16" x="900" y="120" /><rect fill="#ebedf0" height="16" stroke="gray" stroke-width="0.5" width="16" x="900" y="140" /><rect fill="#ebedf0" height="16" stroke="gray" stroke-width="0.5" width="16" x="920" y="160" /><text fill="black" font-family="monospace" font-size="10px" x="920" y="16">Nov</text><rect fill="#ebedf0" height="16" stroke="gray" stroke-width="0.5" width="16" x="920" y="40" /><rect fill="#ebedf0" height="16" stroke="gray" stroke-width="0.5" width="16" x="920" y="60" /><rect fill="#ebedf0" height="16" stroke="gray" stroke-width="0.5" width="16" x="920" y="80" /><rect fill="#ebedf0" height="16" stroke="gray" stroke-width="0.5" width="16" x="920" y="100" /><rect fill="#ebedf0" height="16" stroke="gray" stroke-width="0.5" width="16" x="920" y="120" /><rect fill="#ebedf0" height="16" stroke="gray" stroke-width="0.5" width="16" x="920" y="140" /><rect fill="#ebedf0" height="16" stroke="gray" stroke-width="0.5" width="16" x="940" y="160" /><text fill="black" font-family="monospace" font-size="10px" x="940" y="16">Nov</text><rect fill="#ebedf0" height="16" stroke="gray" stroke-width="0.5" width="16" x="940" y="40" /><rect fill="#ebedf0" height="16" stroke="gray" stroke-width="0.5" width="16" x="940" y="60" /><rect fill="#ebedf0" height="16" stroke="gray" stroke-width="0.5" width="16" x="940" y="80" /><rect fill="#ebedf0" height="16" stroke="gray" stroke-width="0.5" width="16" x="940" y="100" /><rect fill="#ebedf0" height="16" stroke="gray" stroke-width="0.5" width="16" x="940" y="120" /><rect fill="#ebedf0" height="16" stroke="gray" stroke-width="0.5" width="16" x="940" y="140" /><rect fill="#ebedf0" height="16" stroke="gray" stroke-width="0.5" width="16" x="960" y="160" /><text fill="black" font-family="monospace" font-size="10px" x="960" y="16">Nov</text><rect fill="#ebedf0" height="16" stroke="gray" stroke-width="0.5" width="16" x="960" y="40" /><rect fill="#ebedf0" height="16" stroke="gray" stroke-width="0.5" width="16" x="960" y="60" /><rect fill="#ebedf0" height="16" stroke="gray" stroke-width="0.5" width="16" x="960" y="80" /><rect fill="#ebedf0" height="16" stroke="gray" stroke-width="0.5" width="16" x="960" y="100" /><rect fill="#ebedf0" height="16" stroke="gray" stroke-width="0.5" width="16" x="960" y="120" /><rect fill="#ebedf0" height="16" stroke="gray" stroke-width="0.5" width="16" x="960" y="140" /><rect fill="#ebedf0" height="16" stroke="gray" stroke-width="0.5" width="16" x="980" y="160" /><text fill="black" font-family="monospace" font-size="10px" x="980" y="16">Nov</text><rect fill="#ebedf0" height="16" stroke="gray" stroke-width="0.5" width="16" x="980" y="40" /><rect fill="#ebedf0" height="16" stroke="gray" stroke-width="0.5" width="16" x="980" y="60" /><rect fill="#ebedf0" height="16" stroke="gray" stroke-width="0.5" width="16" x="980" y="80" /><rect fill="#ebedf0" height="16" stroke="gray" stroke-width="0.5" width="16" x="980" y="100" /><rect fill="#ebedf0" height="16" stroke="gray" stroke-width="0.5" width="16" x="980" y="120" /><rect fill="#ebedf0" height="16" stroke="gray" stroke-width="0.5" width="16" x="980" y="140" /><rect fill="#ebedf0" height="16" stroke="gray" stroke-width="0.5" width="16" x="1000" y="160" /><text fill="black" font-family="monospace" font-size="10px" x="1000" y="16">Nov</text><rect fill="#ebedf0" height="16" stroke="gray" stroke-width="0.5" width="16" x="1000" y="40" /><rect fill="#ebedf0" height="16" stroke="gray" stroke-width="0.5" width="16" x="1000" y="60" /><rect fill="#ebedf0" height="16" stroke="gray" stroke-width="0.5" width="16" x="1000" y="80" /><rect fill="#ebedf0" height="16" stroke="gray" stroke-width="0.5" width="16" x="1000" y="100" /><rect fill="#ebedf0" height="16" stroke="gray" stroke-width="0.5" width="16" x="1000" y="120" /><rect fill="#ebedf0" height="16" stroke="gray" stroke-width="0.5" width="16" x="1000" y="140" /><rect fill="#ebedf0" height="16" stroke="gray" stroke-width="0.5" width="16" x="1020" y="160" /><text fill="black" font-family="monospace" font-size="10px" x="1020" y="16">Dec</text><rect fill="#ebedf0" height="16" stroke="gray" stroke-width="0.5" width="16" x="1020" y="40" /><rect fill="#ebedf0" height="16" stroke="gray" stroke-width="0.5" width="16" x="1020" y="60" /><rect fill="#ebedf0" height="16" stroke="gray" stroke-width="0.5" width="16" x="1020" y="80" /><rect fill="#ebedf0" height="16" stroke="gray" stroke-width="0.5" width="16" x="1020" y="100" /><rect fill="#ebedf0" height="16" stroke="gray" stroke-width="0.5" width="16" x="1020" y="120" /><rect fill="#ebedf0" height="16" stroke="gray" stroke-width="0.5" width="16" x="1020" y="140" /><rect fill="#ebedf0" height="16" stroke="gray" stroke-width="0.5" width="16" x="1040" y="160" /><text fill="black" font-family="monospace" font-size="10px" x="1040" y="16">Dec</text><rect fill="#ebedf0" height="16" stroke="gray" stroke-width="0.5" width="16" x="1040" y="40" /><rect fill="#ebedf0" height="16" stroke="gray" stroke-width="0.5" width="16" x="1040" y="60" /><rect fill="#ebedf0" height="16" stroke="gray" stroke-width="0.5" width="16" x="1040" y="80" /><rect fill="#ebedf0" height="16" stroke="gray" stroke-width="0.5" width="16" x="1040" y="100" /><rect fill="#ebedf0" height="16" stroke="gray" stroke-width="0.5" width="16" x="1040" y="120" /><rect fill="#ebedf0" height="16" stroke="gray" stroke-width="0.5" width="16" x="1040" y="140" /><rect fill="#ebedf0" height="16" stroke="gray" stroke-width="0.5" width="16" x="1060" y="160" /><text fill="black" font-family="monospace" font-size="10px" x="1060" y="16">Dec</text><rect fill="#ebedf0" height="16" stroke="gray" stroke-width="0.5" width="16" x="1060" y="40" /><rect fill="#ebedf0" height="16" stroke="gray" stroke-width="0.5" width="16" x="1060" y="60" /><rect fill="#ebedf0" height="16" stroke="gray" stroke-width="0.5" width="16" x="1060" y="80" /><rect fill="#ebedf0" height="16" stroke="gray" stroke-width="0.5" width="16" x="1060" y="100" /><rect fill="#ebedf0" height="16" stroke="gray" stroke-width="0.5" width="16" x="1060" y="120" /><rect fill="#ebedf0" height="16" stroke="gray" stroke-width="0.5" width="16" x="1060" y="140" /><rect fill="#ebedf0" height="16" stroke="gray" stroke-width="0.5" width="16" x="1080" y="160" /><text fill="black" font-family="monospace" font-size="10px" x="1080" y="16">Dec</text><rect fill="#ebedf0" height="16" stroke="gray" stroke-width="0.5" width="16" x="1080" y="40" /><rect fill="#ebedf0" height="16" stroke="gray" stroke-width="0.5" width="16" x="1080" y="60" /><rect fill="#ebedf0" height="16" stroke="gray" stroke-width="0.5" width="16" x="1080" y="80" /></svg>