<?xml version="1.0" ?>
<svg width="717" height="119" style="font-family:Helvetica,arial,nimbussansl,liberationsans,freesans,clean,sans-serif;width:100%">
  <rect x="15" y="15" width="11" height="11" fill="#20242C90" rx="2" ry="2"/>
  <rect x="15" y="28" width="11" height="11" fill="#20242C90" rx="2" ry="2"/>
  <rect x="15" y="41" width="11" height="11" fill="#20242C90" rx="2" ry="2"/>
  <rect x="15" y="54" width="11" height="11" fill="#20242C90" rx="2" ry="2"/>
  <rect x="15" y="67" width="11" height="11" fill="#20242C90" rx="2" ry="2"/>
  <rect x="15" y="80" width="11" height="11" fill="#20242C90" rx="2" ry="2"/>
  <rect x="15" y="93" width="11" height="11" fill="#20242C90" rx="2" ry="2"/>
  <rect x="28" y="15" width="11" height="11" fill="#20242C90" rx="2" ry="2"/>
  <rect x="28" y="28" width="11" height="11" fill="#20242C90" rx="2" ry="2"/>
  <rect x="28" y="41" width="11" height="11" fill="#20242C90" rx="2" ry="2"/>
  <rect x="28" y="54" width="11" height="11" fill="#20242C90" rx="2" ry="2"/>
  <rect x="28" y="67" width="11" height="11" fill="#20242C90" rx="2" ry="2"/>
  <rect x="28" y="80" width="11" height="11" fill="#20242C90" rx="2" ry="2"/>
  <rect x="28" y="93" width="11" height="11" fill="#20242C90" rx="2" ry="2"/>
  <rect x="41" y="15" width="11" height="11" fill="#20242C90" rx="2" ry="2"/>
  <rect x="41" y="28" width="11" height="11" fill="#20242C90" rx="2" ry="2"/>
  <rect x="41" y="41" width="11" height="11" fill="#20242C90" rx="2" ry="2"/>
  <rect x="41" y="54" width="11" height="11" fill="#20242C90" rx="2" ry="2"/>
  <rect x="41" y="67" width="11" height="11" fill="#20242C90" rx="2" ry="2"/>
  <rect x="41" y="80" width="11" height="11" fill="#20242C90" rx="2" ry="2"/>
  <rect x="41" y="93" width="11" height="11" fill="#20242C90" rx="2" ry="2"/>
  <rect x="54" y="15" width="11" height="11" fill="#20242C90" rx="2" ry="2"/>
  <rect x="54" y="28" width="11" height="11" fill="#20242C90" rx="2" ry="2"/>
  <rect x="54" y="41" width="11" height="11" fill="#20242C90" rx="2" ry="2"/>
  <rect x="54" y="54" width="11" height="11" fill="#20242C90" rx="2" ry="2"/>
  <rect x="54" y="67" width="11" height="11" fill="#20242C90" rx="2" ry="2"/>
  <rect x="54" y="80" width="11" height="11" fill="#20242C90" rx="2" ry="2"/>
  <rect x="54" y="93" width="11" height="11" fill="#20242C90" rx="2" ry="2"/>
  <rect x="67" y="15" width="11" height="11" fill="#20242C90" rx="2" ry="2"/>
  <rect x="67" y="28" width="11" height="11" fill="#20242C90" rx="2" ry="2"/>
  <rect x="67" y="41" width="11" height="11" fill="#20242C90" rx="2" ry="2"/>
  <rect x="67" y="54" width="11" height="11" fill="#20242C90" rx="2" ry="2"/>
  <rect x="67" y="67" width="11" height="11" fill="#20242C90" rx="2" ry="2"/>
  <rect x="67" y="80" width="11" height="11" fill="#20242C90" rx="2" ry="2"/>
  <rect x="67" y="93" width="11" height="11" fill="#20242C90" rx="2" ry="2"/>
  <rect x="80" y="15" width="11" height="11" fill="#20242C90" rx="2" ry="2"/>
  <rect x="80" y="28" width="11" height="11" fill="#20242C90" rx="2" ry="2"/>
  <rect x="80" y="41" width="11" height="11" fill="#20242C90" rx="2" ry="2"/>
  <rect x="80" y="54" width="11" height="11" fill="#20242C90" rx="2" ry="2"/>
  <rect x="80" y="67" width="11" height="11" fill="#20242C90" rx="2" ry="2"/>
  <rect x="80" y="80" width="11" height="11" fill="#20242C90" rx="2" ry="2"/>
  <rect x="80" y="93" width="11" height="11" fill="#20242C90" rx="2" ry="2"/>
  <rect x="93" y="15" width="11" height="11" fill="#20242C90" rx="2" ry="2"/>
  <rect x="93" y="28" width="11" height="11" fill="#20242C90" rx="2" ry="2"/>
  <rect x="93" y="41" width="11" height="11" fill="#20242C90" rx="2" ry="2"/>
  <rect x="93" y="54" width="11" height="11" fill="#20242C90" rx="2" ry="2"/>
  <rect x="93" y="67" width="11" height="11" fill="#20242C90" rx="2" ry="2"/>
  <rect x="93" y="80" width="11" height="11" fill="#20242C90" rx="2" ry="2"/>
  <rect x="93" y="93" width="11" height="11" fill="#20242C90" rx="2" ry="2"/>
  <rect x="106" y="15" width="11" height="11" fill="#20242C90" rx="2" ry="2"/>
  <rect x="106" y="28" width="11" height="11" fill="#20242C90" rx="2" ry="2"/>
  <rect x="106" y="41" width="11" height="11" fill="#20242C90" rx="2" ry="2"/>
  <rect x="106" y="54" width="11" height="11" fill="#20242C90" rx="2" ry="2"/>
  <rect x="106" y="67" width="11" height="11" fill="#20242C90" rx="2" ry="2"/>
  <rect x="106" y="80" width="11" height="11" fill="#20242C90" rx="2" ry="2"/>
  <rect x="106" y="93" width="11" height="11" fill="#20242C90" rx="2" ry="2"/>
  <rect x="119" y="15" width="11" height="11" fill="#20242C90" rx="2" ry="2"/>
  <rect x="119" y="28" width="11" height="11" fill="#20242C90" rx="2" ry="2"/>
  <rect x="119" y="41" width="11" height="11" fill="#20242C90" rx="2" ry="2"/>
  <rect x="119" y="54" width="11" height="11" fill="#20242C90" rx="2" ry="2"/>
  <rect x="119" y="67" width="11" height="11" fill="#20242C90" rx="2" ry="2"/>
  <rect x="119" y="80" width="11" height="11" fill="#20242C90" rx="2" ry="2"/>
  <rect x="119" y="93" width="11" height="11" fill="#20242C90" rx="2" ry="2"/>
  <rect x="132" y="15" width="11" height="11" fill="#20242C90" rx="2" ry="2"/>
  <rect x="132" y="28" width="11" height="11" fill="#20242C90" rx="2" ry="2"/>
  <rect x="132" y="41" width="11" height="11" fill="#20242C90" rx="2" ry="2"/>
  <rect x="132" y="54" width="11" height="11" fill="#20242C90" rx="2" ry="2"/>
  <rect x="132" y="67" width="11" height="11" fill="#20242C90" rx="2" ry="2"/>
  <rect x="132" y="80" width="11" height="11" fill="#20242C90" rx="2" ry="2"/>
  <rect x="132" y="93" width="11" height="11" fill="#20242C90" rx="2" ry="2"/>
  <rect x="145" y="15" width="11" height="11" fill="#20242C90" rx="2" ry="2"/>
  <rect x="145" y="28" width="11" height="11" fill="#20242C90" rx="2" ry="2"/>
  <rect x="145" y="41" width="11" height="11" fill="#20242C90" rx="2" ry="2"/>
  <rect x="145" y="54" width="11" height="11" fill="#20242C90" rx="2" ry="2"/>
  <rect x="145" y="67" width="11" height="11" fill="#20242C90" rx="2" ry="2"/>
  <rect x="145" y="80" width="11" height="11" fill="#20242C90" rx="2" ry="2"/>
  <rect x="145" y="93" width="11" height="11" fill="#20242C90" rx="2" ry="2"/>
  <rect x="158" y="15" width="11" height="11" fill="#20242C90" rx="2" ry="2"/>
  <rect x="158" y="28" width="11" height="11" fill="#20242C90" rx="2" ry="2"/>
  <rect x="158" y="41" width="11" height="11" fill="#20242C90" rx="2" ry="2"/>
  <rect x="158" y="54" width="11" height="11" fill="#20242C90" rx="2" ry="2"/>
  <rect x="158" y="67" width="11" height="11" fill="#20242C90" rx="2" ry="2"/>
  <rect x="158" y="80" width="11" height="11" fill="#20242C90" rx="2" ry="2"/>
  <rect x="158" y="93" width="11" height="11" fill="#20242C90" rx="2" ry="2"/>
  <rect x="171" y="15" width="11" height="11" fill="#20242C90" rx="2" ry="2"/>
  <rect x="171" y="28" width="11" height="11" fill="#20242C90" rx="2" ry="2"/>
  <rect x="171" y="41" width="11" height="11" fill="#20242C90" rx="2" ry="2"/>
  <rect x="171" y="54" width="11" height="11" fill="#20242C90" rx="2" ry="2"/>
  <rect x="171" y="67" width="11" height="11" fill="#20242C90" rx="2" ry="2"/>
  <rect x="171" y="80" width="11" height="11" fill="#20242C90" rx="2" ry="2"/>
  <rect x="171" y="93" width="11" height="11" fill="#20242C90" rx="2" ry="2"/>
  <rect x="184" y="15" width="11" height="11" fill="#20242C90" rx="2" ry="2"/>
  <rect x="184" y="28" width="11" height="11" fill="#20242C90" rx="2" ry="2"/>
  <rect x="184" y="41" width="11" height="11" fill="#20242C90" rx="2" ry="2"/>
  <rect x="184" y="54" width="11" height="11" fill="#20242C90" rx="2" ry="2"/>
  <rect x="184" y="67" width="11" height="11" fill="#20242C90" rx="2" ry="2"/>
  <rect x="184" y="80" width="11" height="11" fill="#20242C90" rx="2" ry="2"/>
  <rect x="184" y="93" width="11" height="11" fill="#20242C90" rx="2" ry="2"/>
  <rect x="197" y="15" width="11" height="11" fill="#20242C90" rx="2" ry="2"/>
  <rect x="197" y="28" width="11" height="11" fill="#20242C90" rx="2" ry="2"/>
  <rect x="197" y="41" width="11" height="11" fill="#20242C90" rx="2" ry="2"/>
  <rect x="197" y="54" width="11" height="11" fill="#20242C90" rx="2" ry="2"/>
  <rect x="197" y="67" width="11" height="11" fill="#20242C90" rx="2" ry="2"/>
  <rect x="197" y="80" width="11" height="11" fill="#20242C90" rx="2" ry="2"/>
  <rect x="197" y="93" width="11" height="11" fill="#20242C90" rx="2" ry="2"/>
  <rect x="210" y="15" width="11" height="11" fill="#20242C90" rx="2" ry="2"/>
  <rect x="210" y="28" width="11" height="11" fill="#20242C90" rx="2" ry="2"/>
  <rect x="210" y="41" width="11" height="11" fill="#20242C90" rx="2" ry="2"/>
  <rect x="210" y="54" width="11" height="11" fill="#20242C90" rx="2" ry="2"/>
  <rect x="210" y="67" width="11" height="11" fill="#20242C90" rx="2" ry="2"/>
  <rect x="210" y="80" width="11" height="11" fill="#20242C90" rx="2" ry="2"/>
  <rect x="210" y="93" width="11" height="11" fill="#20242C90" rx="2" ry="2"/>
  <rect x="223" y="15" width="11" height="11" fill="#20242C90" rx="2" ry="2"/>
  <rect x="223" y="28" width="11" height="11" fill="#20242C90" rx="2" ry="2"/>
  <rect x="223" y="41" width="11" height="11" fill="#20242C90" rx="2" ry="2"/>
  <rect x="223" y="54" width="11" height="11" fill="#20242C90" rx="2" ry="2"/>
  <rect x="223" y="67" width="11" height="11" fill="#20242C90" rx="2" ry="2"/>
  <rect x="223" y="80" width="11" height="11" fill="#20242C90" rx="2" ry="2"/>
  <rect x="223" y="93" width="11" height="11" fill="#20242C90" rx="2" ry="2"/>
  <rect x="236" y="15" width="11" height="11" fill="#20242C90" rx="2" ry="2"/>
  <rect x="236" y="28" width="11" height="11" fill="#20242C90" rx="2" ry="2"/>
  <rect x="236" y="41" width="11" height="11" fill="#20242C90" rx="2" ry="2"/>
  <rect x="236" y="54" width="11" height="11" fill="#20242C90" rx="2" ry="2"/>
  <rect x="236" y="67" width="11" height="11" fill="#20242C90" rx="2" ry="2"/>
  <rect x="236" y="80" width="11" height="11" fill="#20242C90" rx="2" ry="2"/>
  <rect x="236" y="93" width="11" height="11" fill="#20242C90" rx="2" ry="2"/>
  <rect x="249" y="15" width="11" height="11" fill="#20242C90" rx="2" ry="2"/>
  <rect x="249" y="28" width="11" height="11" fill="#20242C90" rx="2" ry="2"/>
  <rect x="249" y="41" width="11" height="11" fill="#20242C90" rx="2" ry="2"/>
  <rect x="249" y="54" width="11" height="11" fill="#20242C90" rx="2" ry="2"/>
  <rect x="249" y="67" width="11" height="11" fill="#20242C90" rx="2" ry="2"/>
  <rect x="249" y="80" width="11" height="11" fill="#20242C90" rx="2" ry="2"/>
  <rect x="249" y="93" width="11" height="11" fill="#20242C90" rx="2" ry="2"/>
  <rect x="262" y="15" width="11" height="11" fill="#20242C90" rx="2" ry="2"/>
  <rect x="262" y="28" width="11" height="11" fill="#20242C90" rx="2" ry="2"/>
  <rect x="262" y="41" width="11" height="11" fill="#20242C90" rx="2" ry="2"/>
  <rect x="262" y="54" width="11" height="11" fill="#20242C90" rx="2" ry="2"/>
  <rect x="262" y="67" width="11" height="11" fill="#20242C90" rx="2" ry="2"/>
  <rect x="262" y="80" width="11" height="11" fill="#20242C90" rx="2" ry="2"/>
  <rect x="262" y="93" width="11" height="11" fill="#20242C90" rx="2" ry="2"/>
  <rect x="275" y="15" width="11" height="11" fill="#20242C90" rx="2" ry="2"/>
  <rect x="275" y="28" width="11" height="11" fill="#20242C90" rx="2" ry="2"/>
  <rect x="275" y="41" width="11" height="11" fill="#20242C90" rx="2" ry="2"/>
  <rect x="275" y="54" width="11" height="11" fill="#20242C90" rx="2" ry="2"/>
  <rect x="275" y="67" width="11" height="11" fill="#20242C90" rx="2" ry="2"/>
  <rect x="275" y="80" width="11" height="11" fill="#20242C90" rx="2" ry="2"/>
  <rect x="275" y="93" width="11" height="11" fill="#20242C90" rx="2" ry="2"/>
  <rect x="288" y="15" width="11" height="11" fill="#20242C90" rx="2" ry="2"/>
  <rect x="288" y="28" width="11" height="11" fill="#20242C90" rx="2" ry="2"/>
  <rect x="288" y="41" width="11" height="11" fill="#20242C90" rx="2" ry="2"/>
  <rect x="288" y="54" width="11" height="11" fill="#20242C90" rx="2" ry="2"/>
  <rect x="288" y="67" width="11" height="11" fill="#20242C90" rx="2" ry="2"/>
  <rect x="288" y="80" width="11" height="11" fill="#20242C90" rx="2" ry="2"/>
  <rect x="288" y="93" width="11" height="11" fill="#20242C90" rx="2" ry="2"/>
  <rect x="301" y="15" width="11" height="11" fill="#20242C90" rx="2" ry="2"/>
  <rect x="301" y="28" width="11" height="11" fill="#20242C90" rx="2" ry="2"/>
  <rect x="301" y="41" width="11" height="11" fill="#20242C90" rx="2" ry="2"/>
  <rect x="301" y="54" width="11" height="11" fill="#20242C90" rx="2" ry="2"/>
  <rect x="301" y="67" width="11" height="11" fill="#20242C90" rx="2" ry="2"/>
  <rect x="301" y="80" width="11" height="11" fill="#20242C90" rx="2" ry="2"/>
  <rect x="301" y="93" width="11" height="11" fill="#20242C90" rx="2" ry="2"/>
  <rect x="314" y="15" width="11" height="11" fill="#20242C90" rx="2" ry="2"/>
  <rect x="314" y="28" width="11" height="11" fill="#20242C90" rx="2" ry="2"/>
  <rect x="314" y="41" width="11" height="11" fill="#20242C90" rx="2" ry="2"/>
  <rect x="314" y="54" width="11" height="11" fill="#20242C90" rx="2" ry="2"/>
  <rect x="314" y="67" width="11" height="11" fill="#20242C90" rx="2" ry="2"/>
  <rect x="314" y="80" width="11" height="11" fill="#20242C90" rx="2" ry="2"/>
  <rect x="314" y="93" width="11" height="11" fill="#20242C90" rx="2" ry="2"/>
  <rect x="327" y="15" width="11" height="11" fill="#20242C90" rx="2" ry="2"/>
  <rect x="327" y="28" width="11" height="11" fill="#20242C90" rx="2" ry="2"/>
  <rect x="327" y="41" width="11" height="11" fill="#20242C90" rx="2" ry="2"/>
  <rect x="327" y="54" width="11" height="11" fill="#20242C90" rx="2" ry="2"/>
  <rect x="327" y="67" width="11" height="11" fill="#20242C90" rx="2" ry="2"/>
  <rect x="327" y="80" width="11" height="11" fill="#20242C90" rx="2" ry="2"/>
  <rect x="327" y="93" width="11" height="11" fill="#20242C90" rx="2" ry="2"/>
  <rect x="340" y="15" width="11" height="11" fill="#20242C90" rx="2" ry="2"/>
  <rect x="340" y="28" width="11" height="11" fill="#20242C90" rx="2" ry="2"/>
  <rect x="340" y="41" width="11" height="11" fill="#20242C90" rx="2" ry="2"/>
  <rect x="340" y="54" width="11" height="11" fill="#20242C90" rx="2" ry="2"/>
  <rect x="340" y="67" width="11" height="11" fill="#20242C90" rx="2" ry="2"/>
  <rect x="340" y="80" width="11" height="11" fill="#20242C90" rx="2" ry="2"/>
  <rect x="340" y="93" width="11" height="11" fill="#20242C90" rx="2" ry="2"/>
  <rect x="353" y="15" width="11" height="11" fill="#20242C90" rx="2" ry="2"/>
  <rect x="353" y="28" width="11" height="11" fill="#20242C90" rx="2" ry="2"/>
  <rect x="353" y="41" width="11" height="11" fill="#20242C90" rx="2" ry="2"/>
  <rect x="353" y="54" width="11" height="11" fill="#20242C90" rx="2" ry="2"/>
  <rect x="353" y="67" width="11" height="11" fill="#20242C90" rx="2" ry="2"/>
  <rect x="353" y="80" width="11" height="11" fill="#20242C90" rx="2" ry="2"/>
  <rect x="353" y="93" width="11" height="11" fill="#20242C90" rx="2" ry="2"/>
  <rect x="366" y="15" width="11" height="11" fill="#20242C90" rx="2" ry="2"/>
  <rect x="366" y="28" width="11" height="11" fill="#20242C90" rx="2" ry="2"/>
  <rect x="366" y="41" width="11" height="11" fill="#20242C90" rx="2" ry="2"/>
  <rect x="366" y="54" width="11" height="11" fill="#20242C90" rx="2" ry="2"/>
  <rect x="366" y="67" width="11" height="11" fill="#20242C90" rx="2" ry="2"/>
  <rect x="366" y="80" width="11" height="11" fill="#20242C90" rx="2" ry="2"/>
  <rect x="366" y="93" width="11" height="11" fill="#20242C90" rx="2" ry="2"/>
  <rect x="379" y="15" width="11" height="11" fill="#20242C90" rx="2" ry="2"/>
  <rect x="379" y="28" width="11" height="11" fill="#20242C90" rx="2" ry="2"/>
  <rect x="379" y="41" width="11" height="11" fill="#20242C90" rx="2" ry="2"/>
  <rect x="379" y="54" width="11" height="11" fill="#20242C90" rx="2" ry="2"/>
  <rect x="379" y="67" width="11" height="11" fill="#20242C90" rx="2" ry="2"/>
  <rect x="379" y="80" width="11" height="11" fill="#20242C90" rx="2" ry="2"/>
  <rect x="379" y="93" width="11" height="11" fill="#20242C90" rx="2" ry="2"/>
  <rect x="392" y="15" width="11" height="11" fill="#20242C90" rx="2" ry="2"/>
  <rect x="392" y="28" width="11" height="11" fill="#20242C90" rx="2" ry="2"/>
  <rect x="392" y="41" width="11" height="11" fill="#20242C90" rx="2" ry="2"/>
  <rect x="392" y="54" width="11" height="11" fill="#20242C90" rx="2" ry="2"/>
  <rect x="392" y="67" width="11" height="11" fill="#20242C90" rx="2" ry="2"/>
  <rect x="392" y="80" width="11" height="11" fill="#20242C90" rx="2" ry="2"/>
  <rect x="392" y="93" width="11" height="11" fill="#20242C90" rx="2" ry="2"/>
  <rect x="405" y="15" width="11" height="11" fill="#20242C90" rx="2" ry="2"/>
  <rect x="405" y="28" width="11" height="11" fill="#20242C90" rx="2" ry="2"/>
  <rect x="405" y="41" width="11" height="11" fill="#20242C90" rx="2" ry="2"/>
  <rect x="405" y="54" width="11" height="11" fill="#20242C90" rx="2" ry="2"/>
  <rect x="405" y="67" width="11" height="11" fill="#20242C90" rx="2" ry="2"/>
  <rect x="405" y="80" width="11" height="11" fill="#20242C90" rx="2" ry="2"/>
  <rect x="405" y="93" width="11" height="11" fill="#20242C90" rx="2" ry="2"/>
  <rect x="418" y="15" width="11" height="11" fill="#20242C90" rx="2" ry="2"/>
  <rect x="418" y="28" width="11" height="11" fill="#20242C90" rx="2" ry="2"/>
  <rect x="418" y="41" width="11" height="11" fill="#20242C90" rx="2" ry="2"/>
  <rect x="418" y="54" width="11" height="11" fill="#20242C90" rx="2" ry="2"/>
  <rect x="418" y="67" width="11" height="11" fill="#20242C90" rx="2" ry="2"/>
  <rect x="418" y="80" width="11" height="11" fill="#20242C90" rx="2" ry="2"/>
  <rect x="418" y="93" width="11" height="11" fill="#20242C90" rx="2" ry="2"/>
  <rect x="431" y="15" width="11" height="11" fill="#20242C90" rx="2" ry="2"/>
  <rect x="431" y="28" width="11" height="11" fill="#20242C90" rx="2" ry="2"/>
  <rect x="431" y="41" width="11" height="11" fill="#20242C90" rx="2" ry="2"/>
  <rect x="431" y="54" width="11" height="11" fill="#20242C90" rx="2" ry="2"/>
  <rect x="431" y="67" width="11" height="11" fill="#20242C90" rx="2" ry="2"/>
  <rect x="431" y="80" width="11" height="11" fill="#20242C90" rx="2" ry="2"/>
  <rect x="431" y="93" width="11" height="11" fill="#20242C90" rx="2" ry="2"/>
  <rect x="444" y="15" width="11" height="11" fill="#20242C90" rx="2" ry="2"/>
  <rect x="444" y="28" width="11" height="11" fill="#20242C90" rx="2" ry="2"/>
  <rect x="444" y="41" width="11" height="11" fill="#20242C90" rx="2" ry="2"/>
  <rect x="444" y="54" width="11" height="11" fill="#20242C90" rx="2" ry="2"/>
  <rect x="444" y="67" width="11" height="11" fill="#20242C90" rx="2" ry="2"/>
  <rect x="444" y="80" width="11" height="11" fill="#20242C90" rx="2" ry="2"/>
  <rect x="444" y="93" width="11" height="11" fill="#20242C90" rx="2" ry="2"/>
  <rect x="457" y="15" width="11" height="11" fill="#20242C90" rx="2" ry="2"/>
  <rect x="457" y="28" width="11" height="11" fill="#20242C90" rx="2" ry="2"/>
  <rect x="457" y="41" width="11" height="11" fill="#20242C90" rx="2" ry="2"/>
  <rect x="457" y="54" width="11" height="11" fill="#20242C90" rx="2" ry="2"/>
  <rect x="457" y="67" width="11" height="11" fill="#20242C90" rx="2" ry="2"/>
  <rect x="457" y="80" width="11" height="11" fill="#20242C90" rx="2" ry="2"/>
  <rect x="457" y="93" width="11" height="11" fill="#20242C90" rx="2" ry="2"/>
  <rect x="470" y="15" width="11" height="11" fill="#20242C90" rx="2" ry="2"/>
  <rect x="470" y="28" width="11" height="11" fill="#20242C90" rx="2" ry="2"/>
  <rect x="470" y="41" width="11" height="11" fill="#20242C90" rx="2" ry="2"/>
  <rect x="470" y="54" width="11" height="11" fill="#20242C90" rx="2" ry="2"/>
  <rect x="470" y="67" width="11" height="11" fill="#20242C90" rx="2" ry="2"/>
  <rect x="470" y="80" width="11" height="11" fill="#20242C90" rx="2" ry="2"/>
  <rect x="470" y="93" width="11" height="11" fill="#20242C90" rx="2" ry="2"/>
  <rect x="483" y="15" width="11" height="11" fill="#20242C90" rx="2" ry="2"/>
  <rect x="483" y="28" width="11" height="11" fill="#20242C90" rx="2" ry="2"/>
  <rect x="483" y="41" width="11" height="11" fill="#20242C90" rx="2" ry="2"/>
  <rect x="483" y="54" width="11" height="11" fill="#20242C90" rx="2" ry="2"/>
  <rect x="483" y="67" width="11" height="11" fill="#20242C90" rx="2" ry="2"/>
  <rect x="483" y="80" width="11" height="11" fill="#20242C90" rx="2" ry="2"/>
  <rect x="483" y="93" width="11" height="11" fill="#20242C90" rx="2" ry="2"/>
  <rect x="496" y="15" width="11" height="11" fill="#20242C90" rx="2" ry="2"/>
  <rect x="496" y="28" width="11" height="11" fill="#20242C90" rx="2" ry="2"/>
  <rect x="496" y="41" width="11" height="11" fill="#20242C90" rx="2" ry="2"/>
  <rect x="496" y="54" width="11" height="11" fill="#20242C90" rx="2" ry="2"/>
  <rect x="496" y="67" width="11" height="11" fill="#20242C90" rx="2" ry="2"/>
  <rect x="496" y="80" width="11" height="11" fill="#20242C90" rx="2" ry="2"/>
  <rect x="496" y="93" width="11" height="11" fill="#20242C90" rx="2" ry="2"/>
  <rect x="509" y="15" width="11" height="11" fill="#20242C90" rx="2" ry="2"/>
  <rect x="509" y="28" width="11" height="11" fill="#20242C90" rx="2" ry="2"/>
  <rect x="509" y="41" width="11" height="11" fill="#20242C90" rx="2" ry="2"/>
  <rect x="509" y="54" width="11" height="11" fill="#20242C90" rx="2" ry="2"/>
  <rect x="509" y="67" width="11" height="11" fill="#20242C90" rx="2" ry="2"/>
  <rect x="509" y="80" width="11" height="11" fill="#20242C90" rx="2" ry="2"/>
  <rect x="509" y="93" width="11" height="11" fill="#20242C90" rx="2" ry="2"/>
  <rect x="522" y="15" width="11" height="11" fill="#20242C90" rx="2" ry="2"/>
  <rect x="522" y="28" width="11" height="11" fill="#20242C90" rx="2" ry="2"/>
  <rect x="522" y="41" width="11" height="11" fill="#20242C90" rx="2" ry="2"/>
  <rect x="522" y="54" width="11" height="11" fill="#20242C90" rx="2" ry="2"/>
  <rect x="522" y="67" width="11" height="11" fill="#20242C90" rx="2" ry="2"/>
  <rect x="522" y="80" width="11" height="11" fill="#20242C90" rx="2" ry="2"/>
  <rect x="522" y="93" width="11" height="11" fill="#20242C90" rx="2" ry="2"/>
  <rect x="535" y="15" width="11" height="11" fill="#20242C90" rx="2" ry="2"/>
  <rect x="535" y="28" width="11" height="11" fill="#20242C90" rx="2" ry="2"/>
  <rect x="535" y="41" width="11" height="11" fill="#20242C90" rx="2" ry="2"/>
  <rect x="535" y="54" width="11" height="11" fill="#20242C90" rx="2" ry="2"/>
  <rect x="535" y="67" width="11" height="11" fill="#20242C90" rx="2" ry="2"/>
  <rect x="535" y="80" width="11" height="11" fill="#20242C90" rx="2" ry="2"/>
  <rect x="535" y="93" width="11" height="11" fill="#20242C90" rx="2" ry="2"/>
  <rect x="548" y="15" width="11" height="11" fill="#20242C90" rx="2" ry="2"/>
  <rect x="548" y="28" width="11" height="11" fill="#20242C90" rx="2" ry="2"/>
  <rect x="548" y="41" width="11" height="11" fill="#20242C90" rx="2" ry="2"/>
  <rect x="548" y="54" width="11" height="11" fill="#20242C90" rx="2" ry="2"/>
  <rect x="548" y="67" width="11" height="11" fill="#20242C90" rx="2" ry="2"/>
  <rect x="548" y="80" width="11" height="11" fill="#20242C90" rx="2" ry="2"/>
  <rect x="548" y="93" width="11" height="11" fill="#20242C90" rx="2" ry="2"/>
  <rect x="561" y="15" width="11" height="11" fill="#20242C90" rx="2" ry="2"/>
  <rect x="561" y="28" width="11" height="11" fill="#20242C90" rx="2" ry="2"/>
  <rect x="561" y="41" width="11" height="11" fill="#20242C90" rx="2" ry="2"/>
  <rect x="561" y="54" width="11" height="11" fill="#20242C90" rx="2" ry="2"/>
  <rect x="561" y="67" width="11" height="11" fill="#20242C90" rx="2" ry="2"/>
  <rect x="561" y="80" width="11" height="11" fill="#20242C90" rx="2" ry="2"/>
  <rect x="561" y="93" width="11" height="11" fill="#20242C90" rx="2" ry="2"/>
  <rect x="574" y="15" width="11" height="11" fill="#20242C90" rx="2" ry="2"/>
  <rect x="574" y="28" width="11" height="11" fill="#20242C90" rx="2" ry="2"/>
  <rect x="574" y="41" width="11" height="11" fill="#20242C90" rx="2" ry="2"/>
  <rect x="574" y="54" width="11" height="11" fill="#20242C90" rx="2" ry="2"/>
  <rect x="574" y="67" width="11" height="11" fill="#20242C90" rx="2" ry="2"/>
  <rect x="574" y="80" width="11" height="11" fill="#20242C90" rx="2" ry="2"/>
  <rect x="574" y="93" width="11" height="11" fill="#20242C90" rx="2" ry="2"/>
  <rect x="587" y="15" width="11" height="11" fill="#20242C90" rx="2" ry="2"/>
  <rect x="587" y="28" width="11" height="11" fill="#20242C90" rx="2" ry="2"/>
  <rect x="587" y="41" width="11" height="11" fill="#20242C90" rx="2" ry="2"/>
  <rect x="587" y="54" width="11" height="11" fill="#20242C90" rx="2" ry="2"/>
  <rect x="587" y="67" width="11" height="11" fill="#20242C90" rx="2" ry="2"/>
  <rect x="587" y="80" width="11" height="11" fill="#20242C90" rx="2" ry="2"/>
  <rect x="587" y="93" width="11" height="11" fill="#20242C90" rx="2" ry="2"/>
  <rect x="600" y="15" width="11" height="11" fill="#20242C90" rx="2" ry="2"/>
  <rect x="600" y="28" width="11" height="11" fill="#20242C90" rx="2" ry="2"/>
  <rect x="600" y="41" width="11" height="11" fill="#20242C90" rx="2" ry="2"/>
  <rect x="600" y="54" width="11" height="11" fill="#20242C90" rx="2" ry="2"/>
  <rect x="600" y="67" width="11" height="11" fill="#20242C90" rx="2" ry="2"/>
  <rect x="600" y="80" width="11" height="11" fill="#20242C90" rx="2" ry="2"/>
  <rect x="600" y="93" width="11" height="11" fill="#20242C90" rx="2" ry="2"/>
  <rect x="613" y="15" width="11" height="11" fill="#20242C90" rx="2" ry="2"/>
  <rect x="613" y="28" width="11" height="11" fill="#20242C90" rx="2" ry="2"/>
  <rect x="613" y="41" width="11" height="11" fill="#20242C90" rx="2" ry="2"/>
  <rect x="613" y="54" width="11" height="11" fill="#20242C90" rx="2" ry="2"/>
  <rect x="613" y="67" width="11" height="11" fill="#20242C90" rx="2" ry="2"/>
  <rect x="613" y="80" width="11" height="11" fill="#20242C90" rx="2" ry="2"/>
  <rect x="613" y="93" width="11" height="11" fill="#20242C90" rx="2" ry="2"/>
  <rect x="626" y="15" width="11" height="11" fill="#20242C90" rx="2" ry="2"/>
  <rect x="626" y="28" width="11" height="11" fill="#20242C90" rx="2" ry="2"/>
  <rect x="626" y="41" width="11" height="11" fill="#20242C90" rx="2" ry="2"/>
  <rect x="626" y="54" width="11" height="11" fill="#20242C90" rx="2" ry="2"/>
  <rect x="626" y="67" width="11" height="11" fill="#20242C90" rx="2" ry="2"/>
  <rect x="626" y="80" width="11" height="11" fill="#20242C90" rx="2" ry="2"/>
  <rect x="626" y="93" width="11" height="11" fill="#20242C90" rx="2" ry="2"/>
  <rect x="639" y="15" width="11" height="11" fill="#20242C90" rx="2" ry="2"/>
  <rect x="639" y="28" width="11" height="11" fill="#20242C90" rx="2" ry="2"/>
  <rect x="639" y="41" width="11" height="11" fill="#20242C90" rx="2" ry="2"/>
  <rect x="639" y="54" width="11" height="11" fill="#20242C90" rx="2" ry="2"/>
  <rect x="639" y="67" width="11" height="11" fill="#20242C90" rx="2" ry="2"/>
  <rect x="639" y="80" width="11" height="11" fill="#20242C90" rx="2" ry="2"/>
  <rect x="639" y="93" width="11" height="11" fill="#20242C90" rx="2" ry="2"/>
  <rect x="652" y="15" width="11" height="11" fill="#20242C90" rx="2" ry="2"/>
  <rect x="652" y="28" width="11" height="11" fill="#20242C90" rx="2" ry="2"/>
  <rect x="652" y="41" width="11" height="11" fill="#20242C90" rx="2" ry="2"/>
  <rect x="652" y="54" width="11" height="11" fill="#20242C90" rx="2" ry="2"/>
  <rect x="652" y="67" width="11" height="11" fill="#20242C90" rx="2" ry="2"/>
  <rect x="652" y="80" width="11" height="11" fill="#20242C90" rx="2" ry="2"/>
  <rect x="652" y="93" width="11" height="11" fill="#20242C90" rx="2" ry="2"/>
  <rect x="665" y="15" width="11" height="11" fill="#20242C90" rx="2" ry="2"/>
  <rect x="665" y="28" width="11" height="11" fill="#20242C90" rx="2" ry="2"/>
  <rect x="665" y="41" width="11" height="11" fill="#20242C90" rx="2" ry="2"/>
  <rect x="665" y="54" width="11" height="11" fill="#20242C90" rx="2" ry="2"/>
  <rect x="665" y="67" width="11" height="11" fill="#20242C90" rx="2" ry="2"/>
  <rect x="665" y="80" width="11" height="11" fill="#20242C90" rx="2" ry="2"/>
  <rect x="665" y="93" width="11" height="11" fill="#20242C90" rx="2" ry="2"/>
  <rect x="678" y="15" width="11" height="11" fill="#20242C90" rx="2" ry="2"/>
  <rect x="678" y="28" width="11" height="11" fill="#20242C90" rx="2" ry="2"/>
  <rect x="678" y="41" width="11" height="11" fill="#20242C90" rx="2" ry="2"/>
  <rect x="678" y="54" width="11" height="11" fill="#20242C90" rx="2" ry="2"/>
  <rect x="678" y="67" width="11" height="11" fill="#20242C90" rx="2" ry="2"/>
  <rect x="678" y="80" width="11" height="11" fill="#20242C90" rx="2" ry="2"/>
  <rect x="678" y="93" width="11" height="11" fill="#20242C90" rx="2" ry="2"/>
  <rect x="691" y="15" width="11" height="11" fill="#20242C90" rx="2" ry="2"/>
</svg>
