<svg width="1000" height="140" xmlns="http://www.w3.org/2000/svg" style="background:#0D1117" shape-rendering="crispEdges" text-rendering="geometricPrecision">
  <text x="40" y="30" font-size="10" fill="#999" font-family="Inter, system-ui, -apple-system, BlinkMacSystemFont, 'Segoe UI', Roboto, 'Helvetica Neue', sans-serif">Jan</text>
<text x="92" y="30" font-size="10" fill="#999" font-family="Inter, system-ui, -apple-system, BlinkMacSystemFont, 'Segoe UI', Roboto, 'Helvetica Neue', sans-serif">Feb</text>
<text x="144" y="30" font-size="10" fill="#999" font-family="Inter, system-ui, -apple-system, BlinkMacSystemFont, 'Segoe UI', Roboto, 'Helvetica Neue', sans-serif">Mar</text>
<text x="209" y="30" font-size="10" fill="#999" font-family="Inter, system-ui, -apple-system, BlinkMacSystemFont, 'Segoe UI', Roboto, 'Helvetica Neue', sans-serif">Apr</text>
<text x="261" y="30" font-size="10" fill="#999" font-family="Inter, system-ui, -apple-system, BlinkMacSystemFont, 'Segoe UI', Roboto, 'Helvetica Neue', sans-serif">May</text>
<text x="313" y="30" font-size="10" fill="#999" font-family="Inter, system-ui, -apple-system, BlinkMacSystemFont, 'Segoe UI', Roboto, 'Helvetica Neue', sans-serif">Jun</text>
<text x="378" y="30" font-size="10" fill="#999" font-family="Inter, system-ui, -apple-system, BlinkMacSystemFont, 'Segoe UI', Roboto, 'Helvetica Neue', sans-serif">Jul</text>
<text x="430" y="30" font-size="10" fill="#999" font-family="Inter, system-ui, -apple-system, BlinkMacSystemFont, 'Segoe UI', Roboto, 'Helvetica Neue', sans-serif">Aug</text>
<text x="495" y="30" font-size="10" fill="#999" font-family="Inter, system-ui, -apple-system, BlinkMacSystemFont, 'Segoe UI', Roboto, 'Helvetica Neue', sans-serif">Sep</text>
<text x="547" y="30" font-size="10" fill="#999" font-family="Inter, system-ui, -apple-system, BlinkMacSystemFont, 'Segoe UI', Roboto, 'Helvetica Neue', sans-serif">Oct</text>
<text x="599" y="30" font-size="10" fill="#999" font-family="Inter, system-ui, -apple-system, BlinkMacSystemFont, 'Segoe UI', Roboto, 'Helvetica Neue', sans-serif">Nov</text>
<text x="664" y="30" font-size="10" fill="#999" font-family="Inter, system-ui, -apple-system, BlinkMacSystemFont, 'Segoe UI', Roboto, 'Helvetica Neue', sans-serif">Dec</text>
  <text x="25" y="49" font-size="10" fill="#999" font-family="Inter, system-ui, -apple-system, BlinkMacSystemFont, 'Segoe UI', Roboto, 'Helvetica Neue', sans-serif">M</text>
<text x="25" y="62" font-size="10" fill="#999" font-family="Inter, system-ui, -apple-system, BlinkMacSystemFont, 'Segoe UI', Roboto, 'Helvetica Neue', sans-serif">T</text>
<text x="25" y="75" font-size="10" fill="#999" font-family="Inter, system-ui, -apple-system, BlinkMacSystemFont, 'Segoe UI', Roboto, 'Helvetica Neue', sans-serif">W</text>
<text x="25" y="88" font-size="10" fill="#999" font-family="Inter, system-ui, -apple-system, BlinkMacSystemFont, 'Segoe UI', Roboto, 'Helvetica Neue', sans-serif">T</text>
<text x="25" y="101" font-size="10" fill="#999" font-family="Inter, system-ui, -apple-system, BlinkMacSystemFont, 'Segoe UI', Roboto, 'Helvetica Neue', sans-serif">F</text>
<text x="25" y="114" font-size="10" fill="#999" font-family="Inter, system-ui, -apple-system, BlinkMacSystemFont, 'Segoe UI', Roboto, 'Helvetica Neue', sans-serif">S</text>
<text x="25" y="127" font-size="10" fill="#999" font-family="Inter, system-ui, -apple-system, BlinkMacSystemFont, 'Segoe UI', Roboto, 'Helvetica Neue', sans-serif">S</text>
  <rect x="40" y="66" width="11" height="11" fill="#20242C90" rx="2" ry="2" id="2025-01-01" />
<rect x="40" y="79" width="11" height="11" fill="#20242C90" rx="2" ry="2" id="2025-01-02" />
<rect x="40" y="92" width="11" height="11" fill="#20242C90" rx="2" ry="2" id="2025-01-03" />
<rect x="40" y="105" width="11" height="11" fill="#20242C90" rx="2" ry="2" id="2025-01-04" />
<rect x="40" y="118" width="11" height="11" fill="#20242C90" rx="2" ry="2" id="2025-01-05" />
<rect x="53" y="40" width="11" height="11" fill="#20242C90" rx="2" ry="2" id="2025-01-06" />
<rect x="53" y="53" width="11" height="11" fill="#20242C90" rx="2" ry="2" id="2025-01-07" />
<rect x="53" y="66" width="11" height="11" fill="#20242C90" rx="2" ry="2" id="2025-01-08" />
<rect x="53" y="79" width="11" height="11" fill="#20242C90" rx="2" ry="2" id="2025-01-09" />
<rect x="53" y="92" width="11" height="11" fill="#20242C90" rx="2" ry="2" id="2025-01-10" />
<rect x="53" y="105" width="11" height="11" fill="#20242C90" rx="2" ry="2" id="2025-01-11" />
<rect x="53" y="118" width="11" height="11" fill="#20242C90" rx="2" ry="2" id="2025-01-12" />
<rect x="66" y="40" width="11" height="11" fill="#20242C90" rx="2" ry="2" id="2025-01-13" />
<rect x="66" y="53" width="11" height="11" fill="#20242C90" rx="2" ry="2" id="2025-01-14" />
<rect x="66" y="66" width="11" height="11" fill="#20242C90" rx="2" ry="2" id="2025-01-15" />
<rect x="66" y="79" width="11" height="11" fill="#20242C90" rx="2" ry="2" id="2025-01-16" />
<rect x="66" y="92" width="11" height="11" fill="#20242C90" rx="2" ry="2" id="2025-01-17" />
<rect x="66" y="105" width="11" height="11" fill="#20242C90" rx="2" ry="2" id="2025-01-18" />
<rect x="66" y="118" width="11" height="11" fill="#20242C90" rx="2" ry="2" id="2025-01-19" />
<rect x="79" y="40" width="11" height="11" fill="#20242C90" rx="2" ry="2" id="2025-01-20" />
<rect x="79" y="53" width="11" height="11" fill="#20242C90" rx="2" ry="2" id="2025-01-21" />
<rect x="79" y="66" width="11" height="11" fill="#20242C90" rx="2" ry="2" id="2025-01-22" />
<rect x="79" y="79" width="11" height="11" fill="#20242C90" rx="2" ry="2" id="2025-01-23" />
<rect x="79" y="92" width="11" height="11" fill="#20242C90" rx="2" ry="2" id="2025-01-24" />
<rect x="79" y="105" width="11" height="11" fill="#20242C90" rx="2" ry="2" id="2025-01-25" />
<rect x="79" y="118" width="11" height="11" fill="#20242C90" rx="2" ry="2" id="2025-01-26" />
<rect x="92" y="40" width="11" height="11" fill="#20242C90" rx="2" ry="2" id="2025-01-27" />
<rect x="92" y="53" width="11" height="11" fill="#20242C90" rx="2" ry="2" id="2025-01-28" />
<rect x="92" y="66" width="11" height="11" fill="#20242C90" rx="2" ry="2" id="2025-01-29" />
<rect x="92" y="79" width="11" height="11" fill="#20242C90" rx="2" ry="2" id="2025-01-30" />
<rect x="92" y="92" width="11" height="11" fill="#20242C90" rx="2" ry="2" id="2025-01-31" />
<rect x="92" y="105" width="11" height="11" fill="#20242C90" rx="2" ry="2" id="2025-02-01" />
<rect x="92" y="118" width="11" height="11" fill="#20242C90" rx="2" ry="2" id="2025-02-02" />
<rect x="105" y="40" width="11" height="11" fill="#20242C90" rx="2" ry="2" id="2025-02-03" />
<rect x="105" y="53" width="11" height="11" fill="#20242C90" rx="2" ry="2" id="2025-02-04" />
<rect x="105" y="66" width="11" height="11" fill="#20242C90" rx="2" ry="2" id="2025-02-05" />
<rect x="105" y="79" width="11" height="11" fill="#20242C90" rx="2" ry="2" id="2025-02-06" />
<rect x="105" y="92" width="11" height="11" fill="#20242C90" rx="2" ry="2" id="2025-02-07" />
<rect x="105" y="105" width="11" height="11" fill="#20242C90" rx="2" ry="2" id="2025-02-08" />
<rect x="105" y="118" width="11" height="11" fill="#20242C90" rx="2" ry="2" id="2025-02-09" />
<rect x="118" y="40" width="11" height="11" fill="#20242C90" rx="2" ry="2" id="2025-02-10" />
<rect x="118" y="53" width="11" height="11" fill="#20242C90" rx="2" ry="2" id="2025-02-11" />
<rect x="118" y="66" width="11" height="11" fill="#20242C90" rx="2" ry="2" id="2025-02-12" />
<rect x="118" y="79" width="11" height="11" fill="#20242C90" rx="2" ry="2" id="2025-02-13" />
<rect x="118" y="92" width="11" height="11" fill="#20242C90" rx="2" ry="2" id="2025-02-14" />
<rect x="118" y="105" width="11" height="11" fill="#20242C90" rx="2" ry="2" id="2025-02-15" />
<rect x="118" y="118" width="11" height="11" fill="#20242C90" rx="2" ry="2" id="2025-02-16" />
<rect x="131" y="40" width="11" height="11" fill="#20242C90" rx="2" ry="2" id="2025-02-17" />
<rect x="131" y="53" width="11" height="11" fill="#20242C90" rx="2" ry="2" id="2025-02-18" />
<rect x="131" y="66" width="11" height="11" fill="#20242C90" rx="2" ry="2" id="2025-02-19" />
<rect x="131" y="79" width="11" height="11" fill="#20242C90" rx="2" ry="2" id="2025-02-20" />
<rect x="131" y="92" width="11" height="11" fill="#20242C90" rx="2" ry="2" id="2025-02-21" />
<rect x="131" y="105" width="11" height="11" fill="#20242C90" rx="2" ry="2" id="2025-02-22" />
<rect x="131" y="118" width="11" height="11" fill="#20242C90" rx="2" ry="2" id="2025-02-23" />
<rect x="144" y="40" width="11" height="11" fill="#20242C90" rx="2" ry="2" id="2025-02-24" />
<rect x="144" y="53" width="11" height="11" fill="#20242C90" rx="2" ry="2" id="2025-02-25" />
<rect x="144" y="66" width="11" height="11" fill="#20242C90" rx="2" ry="2" id="2025-02-26" />
<rect x="144" y="79" width="11" height="11" fill="#20242C90" rx="2" ry="2" id="2025-02-27" />
<rect x="144" y="92" width="11" height="11" fill="#20242C90" rx="2" ry="2" id="2025-02-28" />
<rect x="144" y="105" width="11" height="11" fill="#20242C90" rx="2" ry="2" id="2025-03-01" />
<rect x="144" y="118" width="11" height="11" fill="#20242C90" rx="2" ry="2" id="2025-03-02" />
<rect x="157" y="40" width="11" height="11" fill="#20242C90" rx="2" ry="2" id="2025-03-03" />
<rect x="157" y="53" width="11" height="11" fill="#20242C90" rx="2" ry="2" id="2025-03-04" />
<rect x="157" y="66" width="11" height="11" fill="#20242C90" rx="2" ry="2" id="2025-03-05" />
<rect x="157" y="79" width="11" height="11" fill="#20242C90" rx="2" ry="2" id="2025-03-06" />
<rect x="157" y="92" width="11" height="11" fill="#20242C90" rx="2" ry="2" id="2025-03-07" />
<rect x="157" y="105" width="11" height="11" fill="#20242C90" rx="2" ry="2" id="2025-03-08" />
<rect x="157" y="118" width="11" height="11" fill="#20242C90" rx="2" ry="2" id="2025-03-09" />
<rect x="170" y="40" width="11" height="11" fill="#20242C90" rx="2" ry="2" id="2025-03-10" />
<rect x="170" y="53" width="11" height="11" fill="#20242C90" rx="2" ry="2" id="2025-03-11" />
<rect x="170" y="66" width="11" height="11" fill="#20242C90" rx="2" ry="2" id="2025-03-12" />
<rect x="170" y="79" width="11" height="11" fill="#20242C90" rx="2" ry="2" id="2025-03-13" />
<rect x="170" y="92" width="11" height="11" fill="#20242C90" rx="2" ry="2" id="2025-03-14" />
<rect x="170" y="105" width="11" height="11" fill="#20242C90" rx="2" ry="2" id="2025-03-15" />
<rect x="170" y="118" width="11" height="11" fill="#20242C90" rx="2" ry="2" id="2025-03-16" />
<rect x="183" y="40" width="11" height="11" fill="#20242C90" rx="2" ry="2" id="2025-03-17" />
<rect x="183" y="53" width="11" height="11" fill="#20242C90" rx="2" ry="2" id="2025-03-18" />
<rect x="183" y="66" width="11" height="11" fill="#20242C90" rx="2" ry="2" id="2025-03-19" />
<rect x="183" y="79" width="11" height="11" fill="#20242C90" rx="2" ry="2" id="2025-03-20" />
<rect x="183" y="92" width="11" height="11" fill="#20242C90" rx="2" ry="2" id="2025-03-21" />
<rect x="183" y="105" width="11" height="11" fill="#20242C90" rx="2" ry="2" id="2025-03-22" />
<rect x="183" y="118" width="11" height="11" fill="#20242C90" rx="2" ry="2" id="2025-03-23" />
<rect x="196" y="40" width="11" height="11" fill="#20242C90" rx="2" ry="2" id="2025-03-24" />
<rect x="196" y="53" width="11" height="11" fill="#20242C90" rx="2" ry="2" id="2025-03-25" />
<rect x="196" y="66" width="11" height="11" fill="#20242C90" rx="2" ry="2" id="2025-03-26" />
<rect x="196" y="79" width="11" height="11" fill="#20242C90" rx="2" ry="2" id="2025-03-27" />
<rect x="196" y="92" width="11" height="11" fill="#20242C90" rx="2" ry="2" id="2025-03-28" />
<rect x="196" y="105" width="11" height="11" fill="#20242C90" rx="2" ry="2" id="2025-03-29" />
<rect x="196" y="118" width="11" height="11" fill="#20242C90" rx="2" ry="2" id="2025-03-30" />
<rect x="209" y="40" width="11" height="11" fill="#20242C90" rx="2" ry="2" id="2025-03-31" />
<rect x="209" y="53" width="11" height="11" fill="#20242C90" rx="2" ry="2" id="2025-04-01" />
<rect x="209" y="66" width="11" height="11" fill="#20242C90" rx="2" ry="2" id="2025-04-02" />
<rect x="209" y="79" width="11" height="11" fill="#20242C90" rx="2" ry="2" id="2025-04-03" />
<rect x="209" y="92" width="11" height="11" fill="#20242C90" rx="2" ry="2" id="2025-04-04" />
<rect x="209" y="105" width="11" height="11" fill="#20242C90" rx="2" ry="2" id="2025-04-05" />
<rect x="209" y="118" width="11" height="11" fill="#20242C90" rx="2" ry="2" id="2025-04-06" />
<rect x="222" y="40" width="11" height="11" fill="#20242C90" rx="2" ry="2" id="2025-04-07" />
<rect x="222" y="53" width="11" height="11" fill="#20242C90" rx="2" ry="2" id="2025-04-08" />
<rect x="222" y="66" width="11" height="11" fill="#20242C90" rx="2" ry="2" id="2025-04-09" />
<rect x="222" y="79" width="11" height="11" fill="#20242C90" rx="2" ry="2" id="2025-04-10" />
<rect x="222" y="92" width="11" height="11" fill="#20242C90" rx="2" ry="2" id="2025-04-11" />
<rect x="222" y="105" width="11" height="11" fill="#20242C90" rx="2" ry="2" id="2025-04-12" />
<rect x="222" y="118" width="11" height="11" fill="#20242C90" rx="2" ry="2" id="2025-04-13" />
<rect x="235" y="40" width="11" height="11" fill="#20242C90" rx="2" ry="2" id="2025-04-14" />
<rect x="235" y="53" width="11" height="11" fill="#20242C90" rx="2" ry="2" id="2025-04-15" />
<rect x="235" y="66" width="11" height="11" fill="#20242C90" rx="2" ry="2" id="2025-04-16" />
<rect x="235" y="79" width="11" height="11" fill="#20242C90" rx="2" ry="2" id="2025-04-17" />
<rect x="235" y="92" width="11" height="11" fill="#20242C90" rx="2" ry="2" id="2025-04-18" />
<rect x="235" y="105" width="11" height="11" fill="#20242C90" rx="2" ry="2" id="2025-04-19" />
<rect x="235" y="118" width="11" height="11" fill="#20242C90" rx="2" ry="2" id="2025-04-20" />
<rect x="248" y="40" width="11" height="11" fill="#20242C90" rx="2" ry="2" id="2025-04-21" />
<rect x="248" y="53" width="11" height="11" fill="#20242C90" rx="2" ry="2" id="2025-04-22" />
<rect x="248" y="66" width="11" height="11" fill="#20242C90" rx="2" ry="2" id="2025-04-23" />
<rect x="248" y="79" width="11" height="11" fill="#20242C90" rx="2" ry="2" id="2025-04-24" />
<rect x="248" y="92" width="11" height="11" fill="#20242C90" rx="2" ry="2" id="2025-04-25" />
<rect x="248" y="105" width="11" height="11" fill="#20242C90" rx="2" ry="2" id="2025-04-26" />
<rect x="248" y="118" width="11" height="11" fill="#20242C90" rx="2" ry="2" id="2025-04-27" />
<rect x="261" y="40" width="11" height="11" fill="#20242C90" rx="2" ry="2" id="2025-04-28" />
<rect x="261" y="53" width="11" height="11" fill="#20242C90" rx="2" ry="2" id="2025-04-29" />
<rect x="261" y="66" width="11" height="11" fill="#20242C90" rx="2" ry="2" id="2025-04-30" />
<rect x="261" y="79" width="11" height="11" fill="#20242C90" rx="2" ry="2" id="2025-05-01" />
<rect x="261" y="92" width="11" height="11" fill="#20242C90" rx="2" ry="2" id="2025-05-02" />
<rect x="261" y="105" width="11" height="11" fill="#20242C90" rx="2" ry="2" id="2025-05-03" />
<rect x="261" y="118" width="11" height="11" fill="#20242C90" rx="2" ry="2" id="2025-05-04" />
<rect x="274" y="40" width="11" height="11" fill="#20242C90" rx="2" ry="2" id="2025-05-05" />
<rect x="274" y="53" width="11" height="11" fill="#20242C90" rx="2" ry="2" id="2025-05-06" />
<rect x="274" y="66" width="11" height="11" fill="#20242C90" rx="2" ry="2" id="2025-05-07" />
<rect x="274" y="79" width="11" height="11" fill="#20242C90" rx="2" ry="2" id="2025-05-08" />
<rect x="274" y="92" width="11" height="11" fill="#20242C90" rx="2" ry="2" id="2025-05-09" />
<rect x="274" y="105" width="11" height="11" fill="#20242C90" rx="2" ry="2" id="2025-05-10" />
<rect x="274" y="118" width="11" height="11" fill="#20242C90" rx="2" ry="2" id="2025-05-11" />
<rect x="287" y="40" width="11" height="11" fill="#20242C90" rx="2" ry="2" id="2025-05-12" />
<rect x="287" y="53" width="11" height="11" fill="#20242C90" rx="2" ry="2" id="2025-05-13" />
<rect x="287" y="66" width="11" height="11" fill="#20242C90" rx="2" ry="2" id="2025-05-14" />
<rect x="287" y="79" width="11" height="11" fill="#20242C90" rx="2" ry="2" id="2025-05-15" />
<rect x="287" y="92" width="11" height="11" fill="#20242C90" rx="2" ry="2" id="2025-05-16" />
<rect x="287" y="105" width="11" height="11" fill="#20242C90" rx="2" ry="2" id="2025-05-17" />
<rect x="287" y="118" width="11" height="11" fill="#20242C90" rx="2" ry="2" id="2025-05-18" />
<rect x="300" y="40" width="11" height="11" fill="#20242C90" rx="2" ry="2" id="2025-05-19" />
<rect x="300" y="53" width="11" height="11" fill="#20242C90" rx="2" ry="2" id="2025-05-20" />
<rect x="300" y="66" width="11" height="11" fill="#20242C90" rx="2" ry="2" id="2025-05-21" />
<rect x="300" y="79" width="11" height="11" fill="#20242C90" rx="2" ry="2" id="2025-05-22" />
<rect x="300" y="92" width="11" height="11" fill="#20242C90" rx="2" ry="2" id="2025-05-23" />
<rect x="300" y="105" width="11" height="11" fill="#20242C90" rx="2" ry="2" id="2025-05-24" />
<rect x="300" y="118" width="11" height="11" fill="#20242C90" rx="2" ry="2" id="2025-05-25" />
<rect x="313" y="40" width="11" height="11" fill="#20242C90" rx="2" ry="2" id="2025-05-26" />
<rect x="313" y="53" width="11" height="11" fill="#20242C90" rx="2" ry="2" id="2025-05-27" />
<rect x="313" y="66" width="11" height="11" fill="#20242C90" rx="2" ry="2" id="2025-05-28" />
<rect x="313" y="79" width="11" height="11" fill="#20242C90" rx="2" ry="2" id="2025-05-29" />
<rect x="313" y="92" width="11" height="11" fill="#20242C90" rx="2" ry="2" id="2025-05-30" />
<rect x="313" y="105" width="11" height="11" fill="#20242C90" rx="2" ry="2" id="2025-05-31" />
<rect x="313" y="118" width="11" height="11" fill="#20242C90" rx="2" ry="2" id="2025-06-01" />
<rect x="326" y="40" width="11" height="11" fill="#20242C90" rx="2" ry="2" id="2025-06-02" />
<rect x="326" y="53" width="11" height="11" fill="#20242C90" rx="2" ry="2" id="2025-06-03" />
<rect x="326" y="66" width="11" height="11" fill="#20242C90" rx="2" ry="2" id="2025-06-04" />
<rect x="326" y="79" width="11" height="11" fill="#20242C90" rx="2" ry="2" id="2025-06-05" />
<rect x="326" y="92" width="11" height="11" fill="#20242C90" rx="2" ry="2" id="2025-06-06" />
<rect x="326" y="105" width="11" height="11" fill="#20242C90" rx="2" ry="2" id="2025-06-07" />
<rect x="326" y="118" width="11" height="11" fill="#20242C90" rx="2" ry="2" id="2025-06-08" />
<rect x="339" y="40" width="11" height="11" fill="#20242C90" rx="2" ry="2" id="2025-06-09" />
<rect x="339" y="53" width="11" height="11" fill="#20242C90" rx="2" ry="2" id="2025-06-10" />
<rect x="339" y="66" width="11" height="11" fill="#20242C90" rx="2" ry="2" id="2025-06-11" />
<rect x="339" y="79" width="11" height="11" fill="#20242C90" rx="2" ry="2" id="2025-06-12" />
<rect x="339" y="92" width="11" height="11" fill="#20242C90" rx="2" ry="2" id="2025-06-13" />
<rect x="339" y="105" width="11" height="11" fill="#20242C90" rx="2" ry="2" id="2025-06-14" />
<rect x="339" y="118" width="11" height="11" fill="#20242C90" rx="2" ry="2" id="2025-06-15" />
<rect x="352" y="40" width="11" height="11" fill="#20242C90" rx="2" ry="2" id="2025-06-16" />
<rect x="352" y="53" width="11" height="11" fill="#20242C90" rx="2" ry="2" id="2025-06-17" />
<rect x="352" y="66" width="11" height="11" fill="#20242C90" rx="2" ry="2" id="2025-06-18" />
<rect x="352" y="79" width="11" height="11" fill="#20242C90" rx="2" ry="2" id="2025-06-19" />
<rect x="352" y="92" width="11" height="11" fill="#20242C90" rx="2" ry="2" id="2025-06-20" />
<rect x="352" y="105" width="11" height="11" fill="#20242C90" rx="2" ry="2" id="2025-06-21" />
<rect x="352" y="118" width="11" height="11" fill="#20242C90" rx="2" ry="2" id="2025-06-22" />
<rect x="365" y="40" width="11" height="11" fill="#20242C90" rx="2" ry="2" id="2025-06-23" />
<rect x="365" y="53" width="11" height="11" fill="#20242C90" rx="2" ry="2" id="2025-06-24" />
<rect x="365" y="66" width="11" height="11" fill="#20242C90" rx="2" ry="2" id="2025-06-25" />
<rect x="365" y="79" width="11" height="11" fill="#20242C90" rx="2" ry="2" id="2025-06-26" />
<rect x="365" y="92" width="11" height="11" fill="#20242C90" rx="2" ry="2" id="2025-06-27" />
<rect x="365" y="105" width="11" height="11" fill="#20242C90" rx="2" ry="2" id="2025-06-28" />
<rect x="365" y="118" width="11" height="11" fill="#20242C90" rx="2" ry="2" id="2025-06-29" />
<rect x="378" y="40" width="11" height="11" fill="#20242C90" rx="2" ry="2" id="2025-06-30" />
<rect x="378" y="53" width="11" height="11" fill="#20242C90" rx="2" ry="2" id="2025-07-01" />
<rect x="378" y="66" width="11" height="11" fill="#20242C90" rx="2" ry="2" id="2025-07-02" />
<rect x="378" y="79" width="11" height="11" fill="#20242C90" rx="2" ry="2" id="2025-07-03" />
<rect x="378" y="92" width="11" height="11" fill="#20242C90" rx="2" ry="2" id="2025-07-04" />
<rect x="378" y="105" width="11" height="11" fill="#20242C90" rx="2" ry="2" id="2025-07-05" />
<rect x="378" y="118" width="11" height="11" fill="#20242C90" rx="2" ry="2" id="2025-07-06" />
<rect x="391" y="40" width="11" height="11" fill="#20242C90" rx="2" ry="2" id="2025-07-07" />
<rect x="391" y="53" width="11" height="11" fill="#20242C90" rx="2" ry="2" id="2025-07-08" />
<rect x="391" y="66" width="11" height="11" fill="#20242C90" rx="2" ry="2" id="2025-07-09" />
<rect x="391" y="79" width="11" height="11" fill="#20242C90" rx="2" ry="2" id="2025-07-10" />
<rect x="391" y="92" width="11" height="11" fill="#20242C90" rx="2" ry="2" id="2025-07-11" />
<rect x="391" y="105" width="11" height="11" fill="#20242C90" rx="2" ry="2" id="2025-07-12" />
<rect x="391" y="118" width="11" height="11" fill="#20242C90" rx="2" ry="2" id="2025-07-13" />
<rect x="404" y="40" width="11" height="11" fill="#20242C90" rx="2" ry="2" id="2025-07-14" />
<rect x="404" y="53" width="11" height="11" fill="#20242C90" rx="2" ry="2" id="2025-07-15" />
<rect x="404" y="66" width="11" height="11" fill="#20242C90" rx="2" ry="2" id="2025-07-16" />
<rect x="404" y="79" width="11" height="11" fill="#20242C90" rx="2" ry="2" id="2025-07-17" />
<rect x="404" y="92" width="11" height="11" fill="#20242C90" rx="2" ry="2" id="2025-07-18" />
<rect x="404" y="105" width="11" height="11" fill="#20242C90" rx="2" ry="2" id="2025-07-19" />
<rect x="404" y="118" width="11" height="11" fill="#20242C90" rx="2" ry="2" id="2025-07-20" />
<rect x="417" y="40" width="11" height="11" fill="#20242C90" rx="2" ry="2" id="2025-07-21" />
<rect x="417" y="53" width="11" height="11" fill="#20242C90" rx="2" ry="2" id="2025-07-22" />
<rect x="417" y="66" width="11" height="11" fill="#20242C90" rx="2" ry="2" id="2025-07-23" />
<rect x="417" y="79" width="11" height="11" fill="#20242C90" rx="2" ry="2" id="2025-07-24" />
<rect x="417" y="92" width="11" height="11" fill="#20242C90" rx="2" ry="2" id="2025-07-25" />
<rect x="417" y="105" width="11" height="11" fill="#20242C90" rx="2" ry="2" id="2025-07-26" />
<rect x="417" y="118" width="11" height="11" fill="#20242C90" rx="2" ry="2" id="2025-07-27" />
<rect x="430" y="40" width="11" height="11" fill="#20242C90" rx="2" ry="2" id="2025-07-28" />
<rect x="430" y="53" width="11" height="11" fill="#20242C90" rx="2" ry="2" id="2025-07-29" />
<rect x="430" y="66" width="11" height="11" fill="#20242C90" rx="2" ry="2" id="2025-07-30" />
<rect x="430" y="79" width="11" height="11" fill="#20242C90" rx="2" ry="2" id="2025-07-31" />
<rect x="430" y="92" width="11" height="11" fill="#20242C90" rx="2" ry="2" id="2025-08-01" />
<rect x="430" y="105" width="11" height="11" fill="#20242C90" rx="2" ry="2" id="2025-08-02" />
<rect x="430" y="118" width="11" height="11" fill="#20242C90" rx="2" ry="2" id="2025-08-03" />
<rect x="443" y="40" width="11" height="11" fill="#20242C90" rx="2" ry="2" id="2025-08-04" />
<rect x="443" y="53" width="11" height="11" fill="#20242C90" rx="2" ry="2" id="2025-08-05" />
<rect x="443" y="66" width="11" height="11" fill="#20242C90" rx="2" ry="2" id="2025-08-06" />
<rect x="443" y="79" width="11" height="11" fill="#20242C90" rx="2" ry="2" id="2025-08-07" />
<rect x="443" y="92" width="11" height="11" fill="#20242C90" rx="2" ry="2" id="2025-08-08" />
<rect x="443" y="105" width="11" height="11" fill="#20242C90" rx="2" ry="2" id="2025-08-09" />
<rect x="443" y="118" width="11" height="11" fill="#20242C90" rx="2" ry="2" id="2025-08-10" />
<rect x="456" y="40" width="11" height="11" fill="#20242C90" rx="2" ry="2" id="2025-08-11" />
<rect x="456" y="53" width="11" height="11" fill="#20242C90" rx="2" ry="2" id="2025-08-12" />
<rect x="456" y="66" width="11" height="11" fill="#20242C90" rx="2" ry="2" id="2025-08-13" />
<rect x="456" y="79" width="11" height="11" fill="#20242C90" rx="2" ry="2" id="2025-08-14" />
<rect x="456" y="92" width="11" height="11" fill="#20242C90" rx="2" ry="2" id="2025-08-15" />
<rect x="456" y="105" width="11" height="11" fill="#20242C90" rx="2" ry="2" id="2025-08-16" />
<rect x="456" y="118" width="11" height="11" fill="#20242C90" rx="2" ry="2" id="2025-08-17" />
<rect x="469" y="40" width="11" height="11" fill="#20242C90" rx="2" ry="2" id="2025-08-18" />
<rect x="469" y="53" width="11" height="11" fill="#20242C90" rx="2" ry="2" id="2025-08-19" />
<rect x="469" y="66" width="11" height="11" fill="#20242C90" rx="2" ry="2" id="2025-08-20" />
<rect x="469" y="79" width="11" height="11" fill="#20242C90" rx="2" ry="2" id="2025-08-21" />
<rect x="469" y="92" width="11" height="11" fill="#20242C90" rx="2" ry="2" id="2025-08-22" />
<rect x="469" y="105" width="11" height="11" fill="#20242C90" rx="2" ry="2" id="2025-08-23" />
<rect x="469" y="118" width="11" height="11" fill="#20242C90" rx="2" ry="2" id="2025-08-24" />
<rect x="482" y="40" width="11" height="11" fill="#20242C90" rx="2" ry="2" id="2025-08-25" />
<rect x="482" y="53" width="11" height="11" fill="#20242C90" rx="2" ry="2" id="2025-08-26" />
<rect x="482" y="66" width="11" height="11" fill="#20242C90" rx="2" ry="2" id="2025-08-27" />
<rect x="482" y="79" width="11" height="11" fill="#20242C90" rx="2" ry="2" id="2025-08-28" />
<rect x="482" y="92" width="11" height="11" fill="#20242C90" rx="2" ry="2" id="2025-08-29" />
<rect x="482" y="105" width="11" height="11" fill="#20242C90" rx="2" ry="2" id="2025-08-30" />
<rect x="482" y="118" width="11" height="11" fill="#20242C90" rx="2" ry="2" id="2025-08-31" />
<rect x="495" y="40" width="11" height="11" fill="#20242C90" rx="2" ry="2" id="2025-09-01" />
<rect x="495" y="53" width="11" height="11" fill="#20242C90" rx="2" ry="2" id="2025-09-02" />
<rect x="495" y="66" width="11" height="11" fill="#20242C90" rx="2" ry="2" id="2025-09-03" />
<rect x="495" y="79" width="11" height="11" fill="#20242C90" rx="2" ry="2" id="2025-09-04" />
<rect x="495" y="92" width="11" height="11" fill="#20242C90" rx="2" ry="2" id="2025-09-05" />
<rect x="495" y="105" width="11" height="11" fill="#20242C90" rx="2" ry="2" id="2025-09-06" />
<rect x="495" y="118" width="11" height="11" fill="#20242C90" rx="2" ry="2" id="2025-09-07" />
<rect x="508" y="40" width="11" height="11" fill="#20242C90" rx="2" ry="2" id="2025-09-08" />
<rect x="508" y="53" width="11" height="11" fill="#20242C90" rx="2" ry="2" id="2025-09-09" />
<rect x="508" y="66" width="11" height="11" fill="#20242C90" rx="2" ry="2" id="2025-09-10" />
<rect x="508" y="79" width="11" height="11" fill="#20242C90" rx="2" ry="2" id="2025-09-11" />
<rect x="508" y="92" width="11" height="11" fill="#20242C90" rx="2" ry="2" id="2025-09-12" />
<rect x="508" y="105" width="11" height="11" fill="#20242C90" rx="2" ry="2" id="2025-09-13" />
<rect x="508" y="118" width="11" height="11" fill="#20242C90" rx="2" ry="2" id="2025-09-14" />
<rect x="521" y="40" width="11" height="11" fill="#20242C90" rx="2" ry="2" id="2025-09-15" />
<rect x="521" y="53" width="11" height="11" fill="#20242C90" rx="2" ry="2" id="2025-09-16" />
<rect x="521" y="66" width="11" height="11" fill="#20242C90" rx="2" ry="2" id="2025-09-17" />
<rect x="521" y="79" width="11" height="11" fill="#20242C90" rx="2" ry="2" id="2025-09-18" />
<rect x="521" y="92" width="11" height="11" fill="#20242C90" rx="2" ry="2" id="2025-09-19" />
<rect x="521" y="105" width="11" height="11" fill="#20242C90" rx="2" ry="2" id="2025-09-20" />
<rect x="521" y="118" width="11" height="11" fill="#20242C90" rx="2" ry="2" id="2025-09-21" />
<rect x="534" y="40" width="11" height="11" fill="#20242C90" rx="2" ry="2" id="2025-09-22" />
<rect x="534" y="53" width="11" height="11" fill="#20242C90" rx="2" ry="2" id="2025-09-23" />
<rect x="534" y="66" width="11" height="11" fill="#20242C90" rx="2" ry="2" id="2025-09-24" />
<rect x="534" y="79" width="11" height="11" fill="#20242C90" rx="2" ry="2" id="2025-09-25" />
<rect x="534" y="92" width="11" height="11" fill="#20242C90" rx="2" ry="2" id="2025-09-26" />
<rect x="534" y="105" width="11" height="11" fill="#20242C90" rx="2" ry="2" id="2025-09-27" />
<rect x="534" y="118" width="11" height="11" fill="#20242C90" rx="2" ry="2" id="2025-09-28" />
<rect x="547" y="40" width="11" height="11" fill="#20242C90" rx="2" ry="2" id="2025-09-29" />
<rect x="547" y="53" width="11" height="11" fill="#20242C90" rx="2" ry="2" id="2025-09-30" />
<rect x="547" y="66" width="11" height="11" fill="#20242C90" rx="2" ry="2" id="2025-10-01" />
<rect x="547" y="79" width="11" height="11" fill="#20242C90" rx="2" ry="2" id="2025-10-02" />
<rect x="547" y="92" width="11" height="11" fill="#20242C90" rx="2" ry="2" id="2025-10-03" />
<rect x="547" y="105" width="11" height="11" fill="#20242C90" rx="2" ry="2" id="2025-10-04" />
<rect x="547" y="118" width="11" height="11" fill="#20242C90" rx="2" ry="2" id="2025-10-05" />
<rect x="560" y="40" width="11" height="11" fill="#20242C90" rx="2" ry="2" id="2025-10-06" />
<rect x="560" y="53" width="11" height="11" fill="#20242C90" rx="2" ry="2" id="2025-10-07" />
<rect x="560" y="66" width="11" height="11" fill="#20242C90" rx="2" ry="2" id="2025-10-08" />
<rect x="560" y="79" width="11" height="11" fill="#20242C90" rx="2" ry="2" id="2025-10-09" />
<rect x="560" y="92" width="11" height="11" fill="#20242C90" rx="2" ry="2" id="2025-10-10" />
<rect x="560" y="105" width="11" height="11" fill="#20242C90" rx="2" ry="2" id="2025-10-11" />
<rect x="560" y="118" width="11" height="11" fill="#20242C90" rx="2" ry="2" id="2025-10-12" />
<rect x="573" y="40" width="11" height="11" fill="#20242C90" rx="2" ry="2" id="2025-10-13" />
<rect x="573" y="53" width="11" height="11" fill="#20242C90" rx="2" ry="2" id="2025-10-14" />
<rect x="573" y="66" width="11" height="11" fill="#20242C90" rx="2" ry="2" id="2025-10-15" />
<rect x="573" y="79" width="11" height="11" fill="#20242C90" rx="2" ry="2" id="2025-10-16" />
<rect x="573" y="92" width="11" height="11" fill="#20242C90" rx="2" ry="2" id="2025-10-17" />
<rect x="573" y="105" width="11" height="11" fill="#20242C90" rx="2" ry="2" id="2025-10-18" />
<rect x="573" y="118" width="11" height="11" fill="#20242C90" rx="2" ry="2" id="2025-10-19" />
<rect x="586" y="40" width="11" height="11" fill="#20242C90" rx="2" ry="2" id="2025-10-20" />
<rect x="586" y="53" width="11" height="11" fill="#20242C90" rx="2" ry="2" id="2025-10-21" />
<rect x="586" y="66" width="11" height="11" fill="#20242C90" rx="2" ry="2" id="2025-10-22" />
<rect x="586" y="79" width="11" height="11" fill="#20242C90" rx="2" ry="2" id="2025-10-23" />
<rect x="586" y="92" width="11" height="11" fill="#20242C90" rx="2" ry="2" id="2025-10-24" />
<rect x="586" y="105" width="11" height="11" fill="#20242C90" rx="2" ry="2" id="2025-10-25" />
<rect x="586" y="118" width="11" height="11" fill="#20242C90" rx="2" ry="2" id="2025-10-26" />
<rect x="599" y="40" width="11" height="11" fill="#20242C90" rx="2" ry="2" id="2025-10-27" />
<rect x="599" y="53" width="11" height="11" fill="#20242C90" rx="2" ry="2" id="2025-10-28" />
<rect x="599" y="66" width="11" height="11" fill="#20242C90" rx="2" ry="2" id="2025-10-29" />
<rect x="599" y="79" width="11" height="11" fill="#20242C90" rx="2" ry="2" id="2025-10-30" />
<rect x="599" y="92" width="11" height="11" fill="#20242C90" rx="2" ry="2" id="2025-10-31" />
<rect x="599" y="105" width="11" height="11" fill="#20242C90" rx="2" ry="2" id="2025-11-01" />
<rect x="599" y="118" width="11" height="11" fill="#20242C90" rx="2" ry="2" id="2025-11-02" />
<rect x="612" y="40" width="11" height="11" fill="#20242C90" rx="2" ry="2" id="2025-11-03" />
<rect x="612" y="53" width="11" height="11" fill="#20242C90" rx="2" ry="2" id="2025-11-04" />
<rect x="612" y="66" width="11" height="11" fill="#20242C90" rx="2" ry="2" id="2025-11-05" />
<rect x="612" y="79" width="11" height="11" fill="#20242C90" rx="2" ry="2" id="2025-11-06" />
<rect x="612" y="92" width="11" height="11" fill="#20242C90" rx="2" ry="2" id="2025-11-07" />
<rect x="612" y="105" width="11" height="11" fill="#20242C90" rx="2" ry="2" id="2025-11-08" />
<rect x="612" y="118" width="11" height="11" fill="#20242C90" rx="2" ry="2" id="2025-11-09" />
<rect x="625" y="40" width="11" height="11" fill="#20242C90" rx="2" ry="2" id="2025-11-10" />
<rect x="625" y="53" width="11" height="11" fill="#20242C90" rx="2" ry="2" id="2025-11-11" />
<rect x="625" y="66" width="11" height="11" fill="#20242C90" rx="2" ry="2" id="2025-11-12" />
<rect x="625" y="79" width="11" height="11" fill="#20242C90" rx="2" ry="2" id="2025-11-13" />
<rect x="625" y="92" width="11" height="11" fill="#20242C90" rx="2" ry="2" id="2025-11-14" />
<rect x="625" y="105" width="11" height="11" fill="#20242C90" rx="2" ry="2" id="2025-11-15" />
<rect x="625" y="118" width="11" height="11" fill="#20242C90" rx="2" ry="2" id="2025-11-16" />
<rect x="638" y="40" width="11" height="11" fill="#20242C90" rx="2" ry="2" id="2025-11-17" />
<rect x="638" y="53" width="11" height="11" fill="#20242C90" rx="2" ry="2" id="2025-11-18" />
<rect x="638" y="66" width="11" height="11" fill="#20242C90" rx="2" ry="2" id="2025-11-19" />
<rect x="638" y="79" width="11" height="11" fill="#20242C90" rx="2" ry="2" id="2025-11-20" />
<rect x="638" y="92" width="11" height="11" fill="#20242C90" rx="2" ry="2" id="2025-11-21" />
<rect x="638" y="105" width="11" height="11" fill="#20242C90" rx="2" ry="2" id="2025-11-22" />
<rect x="638" y="118" width="11" height="11" fill="#20242C90" rx="2" ry="2" id="2025-11-23" />
<rect x="651" y="40" width="11" height="11" fill="#20242C90" rx="2" ry="2" id="2025-11-24" />
<rect x="651" y="53" width="11" height="11" fill="#20242C90" rx="2" ry="2" id="2025-11-25" />
<rect x="651" y="66" width="11" height="11" fill="#20242C90" rx="2" ry="2" id="2025-11-26" />
<rect x="651" y="79" width="11" height="11" fill="#20242C90" rx="2" ry="2" id="2025-11-27" />
<rect x="651" y="92" width="11" height="11" fill="#20242C90" rx="2" ry="2" id="2025-11-28" />
<rect x="651" y="105" width="11" height="11" fill="#20242C90" rx="2" ry="2" id="2025-11-29" />
<rect x="651" y="118" width="11" height="11" fill="#20242C90" rx="2" ry="2" id="2025-11-30" />
<rect x="664" y="40" width="11" height="11" fill="#20242C90" rx="2" ry="2" id="2025-12-01" />
<rect x="664" y="53" width="11" height="11" fill="#20242C90" rx="2" ry="2" id="2025-12-02" />
<rect x="664" y="66" width="11" height="11" fill="#20242C90" rx="2" ry="2" id="2025-12-03" />
<rect x="664" y="79" width="11" height="11" fill="#20242C90" rx="2" ry="2" id="2025-12-04" />
<rect x="664" y="92" width="11" height="11" fill="#20242C90" rx="2" ry="2" id="2025-12-05" />
<rect x="664" y="105" width="11" height="11" fill="#20242C90" rx="2" ry="2" id="2025-12-06" />
<rect x="664" y="118" width="11" height="11" fill="#20242C90" rx="2" ry="2" id="2025-12-07" />
<rect x="677" y="40" width="11" height="11" fill="#20242C90" rx="2" ry="2" id="2025-12-08" />
<rect x="677" y="53" width="11" height="11" fill="#20242C90" rx="2" ry="2" id="2025-12-09" />
<rect x="677" y="66" width="11" height="11" fill="#20242C90" rx="2" ry="2" id="2025-12-10" />
<rect x="677" y="79" width="11" height="11" fill="#20242C90" rx="2" ry="2" id="2025-12-11" />
<rect x="677" y="92" width="11" height="11" fill="#20242C90" rx="2" ry="2" id="2025-12-12" />
<rect x="677" y="105" width="11" height="11" fill="#20242C90" rx="2" ry="2" id="2025-12-13" />
<rect x="677" y="118" width="11" height="11" fill="#20242C90" rx="2" ry="2" id="2025-12-14" />
<rect x="690" y="40" width="11" height="11" fill="#20242C90" rx="2" ry="2" id="2025-12-15" />
<rect x="690" y="53" width="11" height="11" fill="#20242C90" rx="2" ry="2" id="2025-12-16" />
<rect x="690" y="66" width="11" height="11" fill="#20242C90" rx="2" ry="2" id="2025-12-17" />
<rect x="690" y="79" width="11" height="11" fill="#20242C90" rx="2" ry="2" id="2025-12-18" />
<rect x="690" y="92" width="11" height="11" fill="#20242C90" rx="2" ry="2" id="2025-12-19" />
<rect x="690" y="105" width="11" height="11" fill="#20242C90" rx="2" ry="2" id="2025-12-20" />
<rect x="690" y="118" width="11" height="11" fill="#20242C90" rx="2" ry="2" id="2025-12-21" />
<rect x="703" y="40" width="11" height="11" fill="#20242C90" rx="2" ry="2" id="2025-12-22" />
<rect x="703" y="53" width="11" height="11" fill="#20242C90" rx="2" ry="2" id="2025-12-23" />
<rect x="703" y="66" width="11" height="11" fill="#20242C90" rx="2" ry="2" id="2025-12-24" />
<rect x="703" y="79" width="11" height="11" fill="#20242C90" rx="2" ry="2" id="2025-12-25" />
<rect x="703" y="92" width="11" height="11" fill="#20242C90" rx="2" ry="2" id="2025-12-26" />
<rect x="703" y="105" width="11" height="11" fill="#20242C90" rx="2" ry="2" id="2025-12-27" />
<rect x="703" y="118" width="11" height="11" fill="#20242C90" rx="2" ry="2" id="2025-12-28" />
<rect x="716" y="40" width="11" height="11" fill="#20242C90" rx="2" ry="2" id="2025-12-29" />
<rect x="716" y="53" width="11" height="11" fill="#20242C90" rx="2" ry="2" id="2025-12-30" />
<rect x="716" y="66" width="11" height="11" fill="#20242C90" rx="2" ry="2" id="2025-12-31" />
</svg>